SplineFontDB: 3.0
FontName: Vaigai-BoldItalic
FullName: Vaigai Bold Italic
FamilyName: Vaigai
Weight: Bold
Copyright: Copyright (c) 1995-2015, NLCI (http://www.nlci.in/fonts/) Derived from SAU Vaigai Bold Italic by ttfbuilder v0.33
Version: 1.0 Sat Jul 20 09:51:16 1996
ItalicAngle: 12
UnderlinePosition: -260
UnderlineWidth: 20
Ascent: 800
Descent: 200
InvalidEm: 0
sfntRevision: 0x00010000
LayerCount: 2
Layer: 0 1 "Back" 1
Layer: 1 1 "Fore" 0
XUID: [1021 885 741910497 4884353]
StyleMap: 0x0021
FSType: 0
OS2Version: 1
OS2_WeightWidthSlopeOnly: 0
OS2_UseTypoMetrics: 0
CreationTime: 1534550736
ModificationTime: 1534550775
PfmFamily: 17
TTFWeight: 700
TTFWidth: 5
LineGap: 0
VLineGap: 0
Panose: 2 0 0 3 0 0 0 0 0 0
OS2TypoAscent: 1052
OS2TypoAOffset: 0
OS2TypoDescent: -367
OS2TypoDOffset: 0
OS2TypoLinegap: 0
OS2WinAscent: 1052
OS2WinAOffset: 0
OS2WinDescent: 367
OS2WinDOffset: 0
HheadAscent: 1052
HheadAOffset: 0
HheadDescent: -367
HheadDOffset: 0
OS2SubXSize: 700
OS2SubYSize: 650
OS2SubXOff: 0
OS2SubYOff: 143
OS2SupXSize: 700
OS2SupYSize: 650
OS2SupXOff: 0
OS2SupYOff: 453
OS2StrikeYSize: 50
OS2StrikeYPos: 259
OS2Vendor: 'Alts'
OS2CodePages: 20000001.00000000
OS2UnicodeRanges: a01080ff.520021cb.08000028.00000000
Lookup: 260 0 0 "_holdAnchorsbase" { "_someAnchorsbase"  } []
DEI: 91125
ShortTable: maxp 16
  1
  0
  339
  193
  12
  308
  16
  1
  0
  0
  0
  0
  3
  0
  3
  2
EndShort

StartChar: .notdef
Encoding: 0 -1 0
Width: 500
Flags: W
LayerCount: 2
Fore
SplineSet
31 0 m 1,0,-1
 31 750 l 1,1,-1
 469 750 l 1,2,-1
 469 0 l 1,3,-1
 31 0 l 1,0,-1
438 31 m 1,4,-1
 438 719 l 1,5,-1
 62 719 l 1,6,-1
 62 31 l 1,7,-1
 438 31 l 1,4,-1
EndSplineSet
EndChar

StartChar: exclam
Encoding: 4 33 4
Width: 244
VWidth: 488
Flags: W
LayerCount: 2
Fore
SplineSet
154.296875 204.58984375 m 0,0,1
 149.4140625 201.171875 149.4140625 201.171875 142.333984375 197.75390625 c 0,2,3
 135.25390625 194.3359375 135.25390625 194.3359375 127.685546875 191.162109375 c 0,4,5
 120.1171875 187.98828125 120.1171875 187.98828125 112.548828125 185.302734375 c 0,6,7
 104.98046875 182.6171875 104.98046875 182.6171875 99.12109375 180.6640625 c 0,8,-1
 86.9140625 190.91796875 l 0,9,-1
 108.88671875 641.6015625 l 0,10,11
 119.62890625 647.4609375 119.62890625 647.4609375 137.451171875 656.25 c 0,12,13
 155.2734375 665.0390625 155.2734375 665.0390625 174.31640625 673.828125 c 0,14,15
 193.359375 682.6171875 193.359375 682.6171875 210.44921875 690.185546875 c 0,16,17
 227.5390625 697.75390625 227.5390625 697.75390625 237.3046875 701.171875 c 0,18,-1
 258.7890625 684.08203125 l 0,19,-1
 154.296875 204.58984375 l 0,0,1
182.12890625 83.984375 m 0,20,21
 182.12890625 66.89453125 182.12890625 66.89453125 176.025390625 49.31640625 c 0,22,23
 169.921875 31.73828125 169.921875 31.73828125 157.71484375 17.578125 c 0,24,25
 145.5078125 3.41796875 145.5078125 3.41796875 127.44140625 -5.859375 c 0,26,27
 109.375 -15.13671875 109.375 -15.13671875 85.44921875 -15.13671875 c 0,28,29
 51.26953125 -15.13671875 51.26953125 -15.13671875 35.64453125 0.9765625 c 0,30,31
 20.01953125 17.08984375 20.01953125 17.08984375 20.01953125 42.96875 c 0,32,33
 20.01953125 59.08203125 20.01953125 59.08203125 26.85546875 76.171875 c 0,34,35
 33.69140625 93.26171875 33.69140625 93.26171875 46.142578125 107.421875 c 0,36,37
 58.59375 121.58203125 58.59375 121.58203125 76.66015625 130.615234375 c 0,38,39
 94.7265625 139.6484375 94.7265625 139.6484375 117.67578125 139.6484375 c 0,40,41
 150.390625 139.6484375 150.390625 139.6484375 166.259765625 123.779296875 c 0,42,43
 182.12890625 107.91015625 182.12890625 107.91015625 182.12890625 83.984375 c 0,20,21
EndSplineSet
EndChar

StartChar: quotedbl
Encoding: 5 34 5
Width: 450
VWidth: 488
Flags: W
LayerCount: 2
Fore
SplineSet
357.421875 414.55078125 m 0,0,1
 353.515625 412.109375 353.515625 412.109375 346.19140625 410.400390625 c 0,2,3
 338.8671875 408.69140625 338.8671875 408.69140625 330.810546875 407.2265625 c 0,4,5
 322.75390625 405.76171875 322.75390625 405.76171875 314.94140625 405.029296875 c 0,6,7
 307.12890625 404.296875 307.12890625 404.296875 301.7578125 404.296875 c 0,8,-1
 293.45703125 655.2734375 l 0,9,10
 297.36328125 657.2265625 297.36328125 657.2265625 306.884765625 661.1328125 c 0,11,12
 316.40625 665.0390625 316.40625 665.0390625 328.61328125 669.43359375 c 0,13,14
 340.8203125 673.828125 340.8203125 673.828125 354.4921875 678.466796875 c 0,15,16
 368.1640625 683.10546875 368.1640625 683.10546875 380.615234375 687.255859375 c 0,17,18
 393.06640625 691.40625 393.06640625 691.40625 402.34375 694.3359375 c 0,19,20
 411.62109375 697.265625 411.62109375 697.265625 415.0390625 698.2421875 c 0,21,-1
 437.98828125 683.10546875 l 0,22,-1
 357.421875 414.55078125 l 0,0,1
166.9921875 414.55078125 m 0,23,24
 163.0859375 412.109375 163.0859375 412.109375 155.76171875 410.400390625 c 0,25,26
 148.4375 408.69140625 148.4375 408.69140625 140.380859375 407.2265625 c 0,27,28
 132.32421875 405.76171875 132.32421875 405.76171875 124.51171875 405.029296875 c 0,29,30
 116.69921875 404.296875 116.69921875 404.296875 111.328125 404.296875 c 0,31,-1
 103.02734375 655.2734375 l 0,32,33
 106.93359375 657.2265625 106.93359375 657.2265625 116.455078125 661.1328125 c 0,34,35
 125.9765625 665.0390625 125.9765625 665.0390625 138.18359375 669.43359375 c 0,36,37
 150.390625 673.828125 150.390625 673.828125 164.0625 678.466796875 c 0,38,39
 177.734375 683.10546875 177.734375 683.10546875 190.185546875 687.255859375 c 0,40,41
 202.63671875 691.40625 202.63671875 691.40625 211.9140625 694.3359375 c 0,42,43
 221.19140625 697.265625 221.19140625 697.265625 224.609375 698.2421875 c 0,44,-1
 247.55859375 683.10546875 l 0,45,-1
 166.9921875 414.55078125 l 0,23,24
EndSplineSet
EndChar

StartChar: numbersign
Encoding: 6 35 6
Width: 472
VWidth: 488
Flags: W
LayerCount: 2
Fore
SplineSet
203.125 297.8515625 m 0,0,-1
 280.2734375 297.8515625 l 0,1,-1
 322.75390625 403.3203125 l 0,2,-1
 245.60546875 403.3203125 l 0,3,-1
 203.125 297.8515625 l 0,0,-1
421.875 479.00390625 m 0,4,-1
 492.1875 479.00390625 l 0,5,-1
 501.953125 466.796875 l 0,6,7
 500 461.42578125 500 461.42578125 495.849609375 452.392578125 c 0,8,9
 491.69921875 443.359375 491.69921875 443.359375 486.81640625 433.837890625 c 0,10,11
 481.93359375 424.31640625 481.93359375 424.31640625 477.294921875 415.771484375 c 0,12,13
 472.65625 407.2265625 472.65625 407.2265625 470.21484375 403.3203125 c 0,14,-1
 391.11328125 403.3203125 l 0,15,-1
 348.6328125 297.8515625 l 0,16,-1
 419.43359375 297.8515625 l 0,17,-1
 427.24609375 284.66796875 l 0,18,19
 425.78125 279.78515625 425.78125 279.78515625 421.875 270.99609375 c 0,20,21
 417.96875 262.20703125 417.96875 262.20703125 413.0859375 252.685546875 c 0,22,23
 408.203125 243.1640625 408.203125 243.1640625 403.80859375 234.86328125 c 0,24,25
 399.4140625 226.5625 399.4140625 226.5625 397.4609375 222.16796875 c 0,26,-1
 318.359375 222.16796875 l 0,27,-1
 262.20703125 83.0078125 l 0,28,29
 257.8125 79.58984375 257.8125 79.58984375 249.755859375 76.66015625 c 0,30,31
 241.69921875 73.73046875 241.69921875 73.73046875 232.666015625 71.2890625 c 0,32,33
 223.6328125 68.84765625 223.6328125 68.84765625 214.84375 66.40625 c 0,34,35
 206.0546875 63.96484375 206.0546875 63.96484375 199.70703125 62.01171875 c 0,36,-1
 189.453125 71.77734375 l 0,37,-1
 250 222.16796875 l 0,38,-1
 172.8515625 222.16796875 l 0,39,-1
 116.69921875 83.0078125 l 0,40,41
 112.3046875 79.58984375 112.3046875 79.58984375 104.248046875 76.66015625 c 0,42,43
 96.19140625 73.73046875 96.19140625 73.73046875 87.40234375 71.2890625 c 0,44,-1
 69.82421875 66.40625 l 0,45,46
 61.03515625 63.96484375 61.03515625 63.96484375 54.6875 62.01171875 c 0,47,-1
 44.43359375 71.77734375 l 0,48,-1
 104.98046875 222.16796875 l 0,49,-1
 26.85546875 222.16796875 l 0,50,-1
 18.06640625 234.375 l 0,51,52
 20.01953125 239.2578125 20.01953125 239.2578125 24.169921875 247.802734375 c 0,53,54
 28.3203125 256.34765625 28.3203125 256.34765625 32.958984375 265.869140625 c 0,55,56
 37.59765625 275.390625 37.59765625 275.390625 42.236328125 284.1796875 c 0,57,58
 46.875 292.96875 46.875 292.96875 49.8046875 297.8515625 c 0,59,-1
 135.25390625 297.8515625 l 0,60,-1
 177.734375 403.3203125 l 0,61,-1
 101.07421875 403.3203125 l 0,62,-1
 91.30859375 415.0390625 l 0,63,64
 92.7734375 420.41015625 92.7734375 420.41015625 97.16796875 429.19921875 c 0,65,66
 101.5625 437.98828125 101.5625 437.98828125 106.4453125 447.509765625 c 0,67,68
 111.328125 457.03125 111.328125 457.03125 115.966796875 465.576171875 c 0,69,70
 120.60546875 474.12109375 120.60546875 474.12109375 123.046875 479.00390625 c 0,71,-1
 208.0078125 479.00390625 l 0,72,-1
 261.23046875 610.83984375 l 0,73,74
 266.6015625 614.74609375 266.6015625 614.74609375 274.90234375 617.431640625 c 0,75,76
 283.203125 620.1171875 283.203125 620.1171875 291.9921875 622.0703125 c 0,77,-1
 308.59375 626.46484375 l 0,78,79
 316.40625 628.41796875 316.40625 628.41796875 321.77734375 630.859375 c 0,80,-1
 333.49609375 620.1171875 l 0,81,-1
 276.3671875 479.00390625 l 0,82,-1
 353.02734375 479.00390625 l 0,83,-1
 406.25 610.83984375 l 0,84,85
 411.62109375 614.74609375 411.62109375 614.74609375 419.677734375 617.431640625 c 0,86,87
 427.734375 620.1171875 427.734375 620.1171875 436.5234375 622.314453125 c 0,88,89
 445.3125 624.51171875 445.3125 624.51171875 453.61328125 626.46484375 c 0,90,91
 461.9140625 628.41796875 461.9140625 628.41796875 467.28515625 630.859375 c 0,92,-1
 478.515625 620.1171875 l 0,93,-1
 421.875 479.00390625 l 0,4,-1
EndSplineSet
EndChar

StartChar: dollar
Encoding: 7 36 7
Width: 472
VWidth: 488
Flags: W
LayerCount: 2
Fore
SplineSet
460.44921875 558.59375 m 0,0,1
 462.40234375 557.12890625 462.40234375 557.12890625 460.205078125 548.583984375 c 0,2,3
 458.0078125 540.0390625 458.0078125 540.0390625 453.125 527.34375 c 0,4,5
 448.2421875 514.6484375 448.2421875 514.6484375 441.89453125 500.244140625 c 0,6,7
 435.546875 485.83984375 435.546875 485.83984375 428.955078125 472.900390625 c 0,8,9
 422.36328125 459.9609375 422.36328125 459.9609375 416.748046875 450.927734375 c 0,10,11
 411.1328125 441.89453125 411.1328125 441.89453125 408.203125 439.94140625 c 0,12,-1
 375 444.82421875 l 0,13,14
 372.0703125 459.9609375 372.0703125 459.9609375 366.2109375 473.6328125 c 0,15,16
 360.3515625 487.3046875 360.3515625 487.3046875 351.318359375 498.779296875 c 0,17,18
 342.28515625 510.25390625 342.28515625 510.25390625 329.833984375 519.04296875 c 0,19,20
 317.3828125 527.83203125 317.3828125 527.83203125 300.78125 532.71484375 c 0,21,-1
 276.85546875 361.81640625 l 0,22,23
 312.01171875 347.65625 312.01171875 347.65625 340.087890625 332.51953125 c 0,24,25
 368.1640625 317.3828125 368.1640625 317.3828125 387.939453125 298.828125 c 0,26,27
 407.71484375 280.2734375 407.71484375 280.2734375 418.45703125 257.080078125 c 0,28,29
 429.19921875 233.88671875 429.19921875 233.88671875 429.19921875 204.1015625 c 0,30,31
 429.19921875 166.015625 429.19921875 166.015625 416.9921875 130.859375 c 0,32,33
 404.78515625 95.703125 404.78515625 95.703125 379.39453125 67.138671875 c 0,34,35
 354.00390625 38.57421875 354.00390625 38.57421875 315.673828125 18.310546875 c 0,36,37
 277.34375 -1.953125 277.34375 -1.953125 224.609375 -10.25390625 c 0,38,-1
 217.28515625 -62.5 l 0,39,40
 208.49609375 -69.82421875 208.49609375 -69.82421875 194.091796875 -76.904296875 c 0,41,42
 179.6875 -83.984375 179.6875 -83.984375 167.96875 -86.9140625 c 0,43,-1
 153.3203125 -71.77734375 l 0,44,-1
 161.1328125 -15.13671875 l 0,45,-1
 157.2265625 -15.13671875 l 0,46,47
 132.8125 -15.13671875 132.8125 -15.13671875 104.98046875 -7.080078125 c 0,48,49
 77.1484375 0.9765625 77.1484375 0.9765625 52.978515625 13.18359375 c 0,50,51
 28.80859375 25.390625 28.80859375 25.390625 12.939453125 39.794921875 c 0,52,53
 -2.9296875 54.19921875 -2.9296875 54.19921875 -2.9296875 67.3828125 c 0,54,55
 -2.9296875 72.75390625 -2.9296875 72.75390625 0.48828125 83.49609375 c 0,56,57
 3.90625 94.23828125 3.90625 94.23828125 9.521484375 106.93359375 c 0,58,59
 15.13671875 119.62890625 15.13671875 119.62890625 22.216796875 132.8125 c 0,60,61
 29.296875 145.99609375 29.296875 145.99609375 36.62109375 156.73828125 c 0,62,63
 43.9453125 167.48046875 43.9453125 167.48046875 51.025390625 174.31640625 c 0,64,65
 58.10546875 181.15234375 58.10546875 181.15234375 62.98828125 181.15234375 c 0,66,67
 67.3828125 181.15234375 67.3828125 181.15234375 72.265625 174.072265625 c 0,68,69
 77.1484375 166.9921875 77.1484375 166.9921875 83.0078125 155.517578125 c 0,70,71
 88.8671875 144.04296875 88.8671875 144.04296875 96.6796875 130.37109375 c 0,72,73
 104.4921875 116.69921875 104.4921875 116.69921875 115.234375 103.515625 c 0,74,75
 125.9765625 90.33203125 125.9765625 90.33203125 139.892578125 79.345703125 c 0,76,77
 153.80859375 68.359375 153.80859375 68.359375 172.36328125 62.98828125 c 0,78,-1
 202.1484375 275.87890625 l 0,79,80
 197.75390625 277.83203125 197.75390625 277.83203125 192.87109375 279.541015625 c 0,81,82
 187.98828125 281.25 187.98828125 281.25 183.10546875 283.69140625 c 0,83,84
 152.34375 295.41015625 152.34375 295.41015625 127.685546875 308.837890625 c 0,85,86
 103.02734375 322.265625 103.02734375 322.265625 85.9375 339.111328125 c 0,87,88
 68.84765625 355.95703125 68.84765625 355.95703125 59.5703125 377.44140625 c 0,89,90
 50.29296875 398.92578125 50.29296875 398.92578125 50.29296875 427.24609375 c 0,91,92
 50.29296875 454.1015625 50.29296875 454.1015625 61.03515625 481.4453125 c 0,93,94
 71.77734375 508.7890625 71.77734375 508.7890625 95.458984375 532.2265625 c 0,95,96
 119.140625 555.6640625 119.140625 555.6640625 156.494140625 572.998046875 c 0,97,98
 193.84765625 590.33203125 193.84765625 590.33203125 247.55859375 597.16796875 c 0,99,-1
 255.859375 653.3203125 l 0,100,101
 268.5546875 661.1328125 268.5546875 661.1328125 279.78515625 669.43359375 c 0,102,103
 291.015625 677.734375 291.015625 677.734375 303.7109375 681.640625 c 0,104,-1
 319.3359375 666.015625 l 0,105,-1
 310.05859375 601.07421875 l 0,106,-1
 312.01171875 601.07421875 l 0,107,108
 333.49609375 601.07421875 333.49609375 601.07421875 354.4921875 597.412109375 c 0,109,110
 375.48828125 593.75 375.48828125 593.75 394.775390625 587.890625 c 0,111,112
 414.0625 582.03125 414.0625 582.03125 430.6640625 574.21875 c 0,113,114
 447.265625 566.40625 447.265625 566.40625 460.44921875 558.59375 c 0,0,1
319.3359375 167.48046875 m 0,115,116
 319.3359375 192.87109375 319.3359375 192.87109375 305.419921875 211.9140625 c 0,117,118
 291.50390625 230.95703125 291.50390625 230.95703125 260.7421875 248.53515625 c 0,119,-1
 234.375 61.03515625 l 0,120,121
 276.3671875 67.87109375 276.3671875 67.87109375 297.8515625 95.21484375 c 0,122,123
 319.3359375 122.55859375 319.3359375 122.55859375 319.3359375 167.48046875 c 0,115,116
160.64453125 463.8671875 m 0,124,125
 160.64453125 452.1484375 160.64453125 452.1484375 163.0859375 442.138671875 c 0,126,127
 165.52734375 432.12890625 165.52734375 432.12890625 171.875 422.8515625 c 0,128,129
 178.22265625 413.57421875 178.22265625 413.57421875 189.208984375 404.541015625 c 0,130,131
 200.1953125 395.5078125 200.1953125 395.5078125 217.7734375 386.71875 c 0,132,-1
 239.2578125 537.109375 l 0,133,134
 221.6796875 534.1796875 221.6796875 534.1796875 207.275390625 527.587890625 c 0,135,136
 192.87109375 520.99609375 192.87109375 520.99609375 182.6171875 511.23046875 c 0,137,138
 172.36328125 501.46484375 172.36328125 501.46484375 166.50390625 489.2578125 c 0,139,140
 160.64453125 477.05078125 160.64453125 477.05078125 160.64453125 463.8671875 c 0,124,125
EndSplineSet
EndChar

StartChar: percent
Encoding: 8 37 8
Width: 688
VWidth: 488
Flags: W
LayerCount: 2
Fore
SplineSet
347.65625 485.83984375 m 0,0,1
 347.65625 447.265625 347.65625 447.265625 335.44921875 408.935546875 c 0,2,3
 323.2421875 370.60546875 323.2421875 370.60546875 299.560546875 339.84375 c 0,4,5
 275.87890625 309.08203125 275.87890625 309.08203125 240.478515625 290.0390625 c 0,6,7
 205.078125 270.99609375 205.078125 270.99609375 158.69140625 270.99609375 c 0,8,9
 131.34765625 270.99609375 131.34765625 270.99609375 108.3984375 280.76171875 c 0,10,11
 85.44921875 290.52734375 85.44921875 290.52734375 68.84765625 307.12890625 c 0,12,13
 52.24609375 323.73046875 52.24609375 323.73046875 42.96875 345.458984375 c 0,14,15
 33.69140625 367.1875 33.69140625 367.1875 33.69140625 390.625 c 0,16,17
 33.69140625 429.19921875 33.69140625 429.19921875 46.38671875 467.7734375 c 0,18,19
 59.08203125 506.34765625 59.08203125 506.34765625 83.984375 536.62109375 c 0,20,21
 108.88671875 566.89453125 108.88671875 566.89453125 145.01953125 585.9375 c 0,22,23
 181.15234375 604.98046875 181.15234375 604.98046875 228.02734375 604.98046875 c 0,24,25
 252.9296875 604.98046875 252.9296875 604.98046875 274.90234375 596.6796875 c 0,26,27
 296.875 588.37890625 296.875 588.37890625 312.98828125 572.998046875 c 0,28,29
 329.1015625 557.6171875 329.1015625 557.6171875 338.37890625 535.64453125 c 0,30,31
 347.65625 513.671875 347.65625 513.671875 347.65625 485.83984375 c 0,0,1
246.09375 494.62890625 m 0,32,33
 246.09375 515.13671875 246.09375 515.13671875 243.408203125 529.541015625 c 0,34,35
 240.72265625 543.9453125 240.72265625 543.9453125 236.083984375 552.734375 c 0,36,37
 231.4453125 561.5234375 231.4453125 561.5234375 224.853515625 565.4296875 c 0,38,39
 218.26171875 569.3359375 218.26171875 569.3359375 210.9375 569.3359375 c 0,40,41
 196.2890625 569.3359375 196.2890625 569.3359375 185.302734375 558.59375 c 0,42,43
 174.31640625 547.8515625 174.31640625 547.8515625 166.50390625 531.005859375 c 0,44,45
 158.69140625 514.16015625 158.69140625 514.16015625 153.564453125 492.919921875 c 0,46,47
 148.4375 471.6796875 148.4375 471.6796875 145.263671875 450.68359375 c 0,48,49
 142.08984375 429.6875 142.08984375 429.6875 140.869140625 410.64453125 c 0,50,51
 139.6484375 391.6015625 139.6484375 391.6015625 139.6484375 379.39453125 c 0,52,53
 139.6484375 341.30859375 139.6484375 341.30859375 147.94921875 324.21875 c 0,54,55
 156.25 307.12890625 156.25 307.12890625 176.7578125 307.12890625 c 0,56,57
 194.3359375 307.12890625 194.3359375 307.12890625 207.275390625 325.927734375 c 0,58,59
 220.21484375 344.7265625 220.21484375 344.7265625 229.00390625 373.046875 c 0,60,61
 237.79296875 401.3671875 237.79296875 401.3671875 241.943359375 434.08203125 c 0,62,63
 246.09375 466.796875 246.09375 466.796875 246.09375 494.62890625 c 0,32,33
133.30078125 1.46484375 m 0,64,65
 127.44140625 -1.46484375 127.44140625 -1.46484375 117.919921875 -3.662109375 c 0,66,67
 108.3984375 -5.859375 108.3984375 -5.859375 97.900390625 -7.8125 c 0,68,69
 87.40234375 -9.765625 87.40234375 -9.765625 77.392578125 -11.474609375 c 0,70,71
 67.3828125 -13.18359375 67.3828125 -13.18359375 61.03515625 -14.6484375 c 0,72,-1
 51.7578125 0 l 0,73,-1
 555.17578125 587.40234375 l 0,74,75
 560.05859375 589.35546875 560.05859375 589.35546875 569.580078125 591.552734375 c 0,76,77
 579.1015625 593.75 579.1015625 593.75 589.84375 595.947265625 c 0,78,79
 600.5859375 598.14453125 600.5859375 598.14453125 610.3515625 600.09765625 c 0,80,81
 620.1171875 602.05078125 620.1171875 602.05078125 625.48828125 603.02734375 c 0,82,-1
 635.25390625 589.35546875 l 0,83,-1
 133.30078125 1.46484375 l 0,64,65
653.3203125 199.21875 m 0,84,85
 653.3203125 160.64453125 653.3203125 160.64453125 641.11328125 122.314453125 c 0,86,87
 628.90625 83.984375 628.90625 83.984375 605.224609375 53.22265625 c 0,88,89
 581.54296875 22.4609375 581.54296875 22.4609375 546.142578125 3.41796875 c 0,90,91
 510.7421875 -15.625 510.7421875 -15.625 464.35546875 -15.625 c 0,92,93
 437.01171875 -15.625 437.01171875 -15.625 414.0625 -5.859375 c 0,94,95
 391.11328125 3.90625 391.11328125 3.90625 374.51171875 20.5078125 c 0,96,97
 357.91015625 37.109375 357.91015625 37.109375 348.6328125 58.837890625 c 0,98,99
 339.35546875 80.56640625 339.35546875 80.56640625 339.35546875 104.00390625 c 0,100,101
 339.35546875 142.578125 339.35546875 142.578125 352.05078125 181.15234375 c 0,102,103
 364.74609375 219.7265625 364.74609375 219.7265625 389.6484375 250 c 0,104,105
 414.55078125 280.2734375 414.55078125 280.2734375 450.68359375 299.31640625 c 0,106,107
 486.81640625 318.359375 486.81640625 318.359375 533.69140625 318.359375 c 0,108,109
 558.59375 318.359375 558.59375 318.359375 580.56640625 310.05859375 c 0,110,111
 602.5390625 301.7578125 602.5390625 301.7578125 618.65234375 286.376953125 c 0,112,113
 634.765625 270.99609375 634.765625 270.99609375 644.04296875 249.0234375 c 0,114,115
 653.3203125 227.05078125 653.3203125 227.05078125 653.3203125 199.21875 c 0,84,85
551.7578125 208.0078125 m 0,116,117
 551.7578125 228.515625 551.7578125 228.515625 549.072265625 242.919921875 c 0,118,119
 546.38671875 257.32421875 546.38671875 257.32421875 541.748046875 266.11328125 c 0,120,121
 537.109375 274.90234375 537.109375 274.90234375 530.517578125 278.80859375 c 0,122,123
 523.92578125 282.71484375 523.92578125 282.71484375 516.6015625 282.71484375 c 0,124,125
 501.953125 282.71484375 501.953125 282.71484375 490.966796875 271.97265625 c 0,126,127
 479.98046875 261.23046875 479.98046875 261.23046875 472.16796875 244.384765625 c 0,128,129
 464.35546875 227.5390625 464.35546875 227.5390625 459.228515625 206.298828125 c 0,130,131
 454.1015625 185.05859375 454.1015625 185.05859375 450.927734375 164.0625 c 0,132,133
 447.75390625 143.06640625 447.75390625 143.06640625 446.533203125 124.0234375 c 0,134,135
 445.3125 104.98046875 445.3125 104.98046875 445.3125 92.7734375 c 0,136,137
 445.3125 54.6875 445.3125 54.6875 453.61328125 37.59765625 c 0,138,139
 461.9140625 20.5078125 461.9140625 20.5078125 482.421875 20.5078125 c 0,140,141
 500 20.5078125 500 20.5078125 512.939453125 39.306640625 c 0,142,143
 525.87890625 58.10546875 525.87890625 58.10546875 534.66796875 86.42578125 c 0,144,145
 543.45703125 114.74609375 543.45703125 114.74609375 547.607421875 147.4609375 c 0,146,147
 551.7578125 180.17578125 551.7578125 180.17578125 551.7578125 208.0078125 c 0,116,117
EndSplineSet
EndChar

StartChar: ampersand
Encoding: 9 38 9
Width: 647
VWidth: 488
Flags: W
LayerCount: 2
Fore
SplineSet
291.015625 551.7578125 m 0,0,1
 287.59765625 527.34375 287.59765625 527.34375 290.283203125 501.220703125 c 0,2,3
 292.96875 475.09765625 292.96875 475.09765625 300.29296875 447.75390625 c 0,4,5
 320.3125 459.9609375 320.3125 459.9609375 334.716796875 475.341796875 c 0,6,7
 349.12109375 490.72265625 349.12109375 490.72265625 359.130859375 507.080078125 c 0,8,9
 369.140625 523.4375 369.140625 523.4375 374.51171875 540.0390625 c 0,10,11
 379.8828125 556.640625 379.8828125 556.640625 382.32421875 571.77734375 c 0,12,13
 384.765625 588.8671875 384.765625 588.8671875 382.568359375 601.806640625 c 0,14,15
 380.37109375 614.74609375 380.37109375 614.74609375 375 623.53515625 c 0,16,17
 369.62890625 632.32421875 369.62890625 632.32421875 362.060546875 636.71875 c 0,18,19
 354.4921875 641.11328125 354.4921875 641.11328125 345.703125 641.11328125 c 0,20,21
 334.47265625 641.11328125 334.47265625 641.11328125 325.68359375 634.27734375 c 0,22,23
 316.89453125 627.44140625 316.89453125 627.44140625 310.05859375 615.478515625 c 0,24,25
 303.22265625 603.515625 303.22265625 603.515625 298.583984375 587.158203125 c 0,26,27
 293.9453125 570.80078125 293.9453125 570.80078125 291.015625 551.7578125 c 0,0,1
257.32421875 60.546875 m 0,28,29
 279.296875 60.546875 279.296875 60.546875 301.025390625 67.3828125 c 0,30,31
 322.75390625 74.21875 322.75390625 74.21875 343.75 85.9375 c 0,32,33
 308.59375 127.9296875 308.59375 127.9296875 273.92578125 181.396484375 c 0,34,35
 239.2578125 234.86328125 239.2578125 234.86328125 212.890625 294.43359375 c 0,36,37
 191.40625 267.08984375 191.40625 267.08984375 181.15234375 239.990234375 c 0,38,39
 170.8984375 212.890625 170.8984375 212.890625 166.9921875 182.12890625 c 0,40,41
 162.109375 147.94921875 162.109375 147.94921875 168.701171875 124.755859375 c 0,42,43
 175.29296875 101.5625 175.29296875 101.5625 188.720703125 87.158203125 c 0,44,45
 202.1484375 72.75390625 202.1484375 72.75390625 220.458984375 66.650390625 c 0,46,47
 238.76953125 60.546875 238.76953125 60.546875 257.32421875 60.546875 c 0,28,29
684.08203125 365.234375 m 0,48,49
 677.24609375 357.91015625 677.24609375 357.91015625 668.9453125 347.900390625 c 0,50,51
 660.64453125 337.890625 660.64453125 337.890625 652.099609375 328.125 c 0,52,53
 643.5546875 318.359375 643.5546875 318.359375 635.25390625 310.05859375 c 0,54,55
 626.953125 301.7578125 626.953125 301.7578125 621.09375 297.36328125 c 0,56,57
 605.46875 305.6640625 605.46875 305.6640625 588.134765625 313.4765625 c 0,58,59
 570.80078125 321.2890625 570.80078125 321.2890625 555.17578125 322.265625 c 0,60,61
 562.98828125 309.5703125 562.98828125 309.5703125 563.720703125 294.677734375 c 0,62,63
 564.453125 279.78515625 564.453125 279.78515625 562.5 265.13671875 c 0,64,65
 558.10546875 233.3984375 558.10546875 233.3984375 539.794921875 197.75390625 c 0,66,67
 521.484375 162.109375 521.484375 162.109375 492.1875 127.9296875 c 0,68,69
 499.0234375 120.60546875 499.0234375 120.60546875 505.126953125 113.76953125 c 0,70,71
 511.23046875 106.93359375 511.23046875 106.93359375 517.578125 100.5859375 c 0,72,73
 539.55078125 77.63671875 539.55078125 77.63671875 565.673828125 72.265625 c 0,74,75
 591.796875 66.89453125 591.796875 66.89453125 614.2578125 72.265625 c 0,76,-1
 617.1875 31.73828125 l 0,77,78
 596.19140625 22.4609375 596.19140625 22.4609375 572.021484375 13.916015625 c 0,79,80
 547.8515625 5.37109375 547.8515625 5.37109375 525.87890625 -0.9765625 c 0,81,82
 503.90625 -7.32421875 503.90625 -7.32421875 487.548828125 -10.986328125 c 0,83,84
 471.19140625 -14.6484375 471.19140625 -14.6484375 466.30859375 -14.6484375 c 0,85,86
 454.58984375 -14.6484375 454.58984375 -14.6484375 434.08203125 -0.732421875 c 0,87,88
 413.57421875 13.18359375 413.57421875 13.18359375 387.6953125 38.0859375 c 0,89,90
 348.6328125 13.671875 348.6328125 13.671875 304.931640625 -0.48828125 c 0,91,92
 261.23046875 -14.6484375 261.23046875 -14.6484375 215.33203125 -14.6484375 c 0,93,94
 115.72265625 -14.6484375 115.72265625 -14.6484375 68.115234375 32.470703125 c 0,95,96
 20.5078125 79.58984375 20.5078125 79.58984375 33.203125 171.875 c 0,97,98
 39.55078125 221.6796875 39.55078125 221.6796875 75.68359375 272.216796875 c 0,99,100
 111.81640625 322.75390625 111.81640625 322.75390625 183.59375 375 c 0,101,102
 173.33984375 413.0859375 173.33984375 413.0859375 169.43359375 450.439453125 c 0,103,104
 165.52734375 487.79296875 165.52734375 487.79296875 170.41015625 523.92578125 c 0,105,106
 175.78125 563.4765625 175.78125 563.4765625 195.3125 597.16796875 c 0,107,108
 214.84375 630.859375 214.84375 630.859375 243.65234375 655.517578125 c 0,109,110
 272.4609375 680.17578125 272.4609375 680.17578125 308.59375 694.091796875 c 0,111,112
 344.7265625 708.0078125 344.7265625 708.0078125 383.7890625 708.0078125 c 0,113,114
 419.921875 708.0078125 419.921875 708.0078125 445.068359375 697.998046875 c 0,115,116
 470.21484375 687.98828125 470.21484375 687.98828125 484.86328125 671.38671875 c 0,117,118
 499.51171875 654.78515625 499.51171875 654.78515625 504.8828125 633.056640625 c 0,119,120
 510.25390625 611.328125 510.25390625 611.328125 506.8359375 587.890625 c 0,121,122
 503.41796875 562.5 503.41796875 562.5 486.328125 535.400390625 c 0,123,124
 469.23828125 508.30078125 469.23828125 508.30078125 444.3359375 482.421875 c 0,125,126
 419.43359375 456.54296875 419.43359375 456.54296875 389.404296875 433.10546875 c 0,127,128
 359.375 409.66796875 359.375 409.66796875 330.078125 391.6015625 c 0,129,-1
 321.77734375 386.23046875 l 0,130,131
 344.23828125 332.51953125 344.23828125 332.51953125 376.953125 280.517578125 c 0,132,133
 409.66796875 228.515625 409.66796875 228.515625 444.82421875 183.59375 c 0,134,135
 454.1015625 199.21875 454.1015625 199.21875 459.9609375 214.599609375 c 0,136,137
 465.8203125 229.98046875 465.8203125 229.98046875 468.26171875 245.1171875 c 0,138,139
 471.19140625 265.625 471.19140625 265.625 467.7734375 281.494140625 c 0,140,141
 464.35546875 297.36328125 464.35546875 297.36328125 456.298828125 307.861328125 c 0,142,143
 448.2421875 318.359375 448.2421875 318.359375 436.767578125 323.974609375 c 0,144,145
 425.29296875 329.58984375 425.29296875 329.58984375 412.109375 329.58984375 c 0,146,-1
 399.90234375 348.14453125 l 0,147,-1
 408.69140625 356.93359375 l 0,148,149
 414.55078125 362.79296875 414.55078125 362.79296875 421.630859375 369.140625 c 0,150,151
 428.7109375 375.48828125 428.7109375 375.48828125 435.791015625 380.615234375 c 0,152,153
 442.87109375 385.7421875 442.87109375 385.7421875 447.75390625 387.6953125 c 0,154,-1
 672.36328125 387.6953125 l 0,155,-1
 684.08203125 365.234375 l 0,48,49
EndSplineSet
EndChar

StartChar: quotesingle
Encoding: 10 39 10
Width: 244
VWidth: 488
Flags: W
LayerCount: 2
Fore
SplineSet
166.9921875 414.55078125 m 0,0,1
 163.0859375 412.109375 163.0859375 412.109375 155.76171875 410.400390625 c 0,2,3
 148.4375 408.69140625 148.4375 408.69140625 140.380859375 407.2265625 c 0,4,5
 132.32421875 405.76171875 132.32421875 405.76171875 124.51171875 405.029296875 c 0,6,7
 116.69921875 404.296875 116.69921875 404.296875 111.328125 404.296875 c 0,8,-1
 103.02734375 655.2734375 l 0,9,10
 106.93359375 657.2265625 106.93359375 657.2265625 116.455078125 661.1328125 c 0,11,12
 125.9765625 665.0390625 125.9765625 665.0390625 138.18359375 669.43359375 c 0,13,14
 150.390625 673.828125 150.390625 673.828125 164.0625 678.466796875 c 0,15,16
 177.734375 683.10546875 177.734375 683.10546875 190.185546875 687.255859375 c 0,17,18
 202.63671875 691.40625 202.63671875 691.40625 211.9140625 694.3359375 c 0,19,20
 221.19140625 697.265625 221.19140625 697.265625 224.609375 698.2421875 c 0,21,-1
 247.55859375 683.10546875 l 0,22,-1
 166.9921875 414.55078125 l 0,0,1
EndSplineSet
EndChar

StartChar: parenleft
Encoding: 11 40 11
Width: 312
VWidth: 488
Flags: W
LayerCount: 2
Fore
SplineSet
372.0703125 741.69921875 m 0,0,1
 339.84375 713.8671875 339.84375 713.8671875 310.791015625 676.025390625 c 0,2,3
 281.73828125 638.18359375 281.73828125 638.18359375 257.8125 587.890625 c 0,4,5
 233.88671875 537.59765625 233.88671875 537.59765625 215.576171875 474.365234375 c 0,6,7
 197.265625 411.1328125 197.265625 411.1328125 186.5234375 333.0078125 c 0,8,9
 176.26953125 261.71875 176.26953125 261.71875 174.072265625 197.75390625 c 0,10,11
 171.875 133.7890625 171.875 133.7890625 179.19921875 77.63671875 c 0,12,13
 186.5234375 21.484375 186.5234375 21.484375 204.345703125 -26.123046875 c 0,14,15
 222.16796875 -73.73046875 222.16796875 -73.73046875 251.953125 -112.3046875 c 0,16,-1
 219.23828125 -153.80859375 l 0,17,18
 169.921875 -123.046875 169.921875 -123.046875 133.056640625 -74.462890625 c 0,19,20
 96.19140625 -25.87890625 96.19140625 -25.87890625 73.974609375 35.400390625 c 0,21,22
 51.7578125 96.6796875 51.7578125 96.6796875 45.166015625 168.45703125 c 0,23,24
 38.57421875 240.234375 38.57421875 240.234375 49.8046875 317.87109375 c 0,25,26
 61.03515625 397.94921875 61.03515625 397.94921875 87.646484375 469.7265625 c 0,27,28
 114.2578125 541.50390625 114.2578125 541.50390625 153.3203125 601.318359375 c 0,29,30
 192.3828125 661.1328125 192.3828125 661.1328125 242.431640625 707.51953125 c 0,31,32
 292.48046875 753.90625 292.48046875 753.90625 351.07421875 783.203125 c 0,33,-1
 372.0703125 741.69921875 l 0,0,1
EndSplineSet
EndChar

StartChar: parenright
Encoding: 12 41 12
Width: 312
VWidth: 488
Flags: W
LayerCount: 2
Fore
SplineSet
272.94921875 311.5234375 m 0,0,1
 261.71875 231.4453125 261.71875 231.4453125 235.107421875 159.66796875 c 0,2,3
 208.49609375 87.890625 208.49609375 87.890625 169.43359375 28.076171875 c 0,4,5
 130.37109375 -31.73828125 130.37109375 -31.73828125 80.322265625 -78.125 c 0,6,7
 30.2734375 -124.51171875 30.2734375 -124.51171875 -28.3203125 -153.80859375 c 0,8,-1
 -49.31640625 -112.3046875 l 0,9,10
 -17.08984375 -84.47265625 -17.08984375 -84.47265625 11.962890625 -46.630859375 c 0,11,12
 41.015625 -8.7890625 41.015625 -8.7890625 64.94140625 41.50390625 c 0,13,14
 88.8671875 91.796875 88.8671875 91.796875 106.93359375 154.78515625 c 0,15,16
 125 217.7734375 125 217.7734375 136.23046875 296.38671875 c 0,17,18
 146.484375 367.67578125 146.484375 367.67578125 148.681640625 431.640625 c 0,19,20
 150.87890625 495.60546875 150.87890625 495.60546875 143.5546875 551.7578125 c 0,21,22
 136.23046875 607.91015625 136.23046875 607.91015625 118.408203125 655.517578125 c 0,23,24
 100.5859375 703.125 100.5859375 703.125 70.80078125 741.69921875 c 0,25,-1
 103.515625 783.203125 l 0,26,27
 152.83203125 752.44140625 152.83203125 752.44140625 189.697265625 703.857421875 c 0,28,29
 226.5625 655.2734375 226.5625 655.2734375 248.779296875 593.994140625 c 0,30,31
 270.99609375 532.71484375 270.99609375 532.71484375 277.587890625 460.9375 c 0,32,33
 284.1796875 389.16015625 284.1796875 389.16015625 272.94921875 311.5234375 c 0,0,1
EndSplineSet
EndChar

StartChar: asterisk
Encoding: 13 42 13
Width: 364
VWidth: 488
Flags: W
LayerCount: 2
Fore
SplineSet
221.19140625 600.5859375 m 0,0,-1
 325.1953125 688.4765625 l 0,1,2
 329.1015625 685.546875 329.1015625 685.546875 337.646484375 677.490234375 c 0,3,4
 346.19140625 669.43359375 346.19140625 669.43359375 355.46875 660.400390625 c 0,5,6
 364.74609375 651.3671875 364.74609375 651.3671875 372.55859375 642.822265625 c 0,7,8
 380.37109375 634.27734375 380.37109375 634.27734375 383.30078125 630.37109375 c 0,9,-1
 374.0234375 601.07421875 l 0,10,-1
 241.2109375 554.6875 l 0,11,-1
 351.5625 513.18359375 l 0,12,13
 350.5859375 507.32421875 350.5859375 507.32421875 347.16796875 494.384765625 c 0,14,15
 343.75 481.4453125 343.75 481.4453125 339.599609375 467.041015625 c 0,16,17
 335.44921875 452.63671875 335.44921875 452.63671875 331.54296875 439.94140625 c 0,18,19
 327.63671875 427.24609375 327.63671875 427.24609375 325.68359375 421.875 c 0,20,-1
 297.8515625 412.59765625 l 0,21,-1
 210.44921875 506.8359375 l 0,22,-1
 217.7734375 378.41796875 l 0,23,24
 212.40234375 375.48828125 212.40234375 375.48828125 200.439453125 370.60546875 c 0,25,26
 188.4765625 365.72265625 188.4765625 365.72265625 175.048828125 360.3515625 c 0,27,28
 161.62109375 354.98046875 161.62109375 354.98046875 149.4140625 350.830078125 c 0,29,30
 137.20703125 346.6796875 137.20703125 346.6796875 132.32421875 345.21484375 c 0,31,-1
 114.2578125 365.234375 l 0,32,-1
 159.66796875 506.34765625 l 0,33,-1
 56.15234375 418.9453125 l 0,34,35
 51.7578125 421.875 51.7578125 421.875 43.212890625 429.931640625 c 0,36,37
 34.66796875 437.98828125 34.66796875 437.98828125 25.390625 447.021484375 c 0,38,39
 16.11328125 456.0546875 16.11328125 456.0546875 8.056640625 464.599609375 c 0,40,41
 0 473.14453125 0 473.14453125 -2.9296875 477.05078125 c 0,42,-1
 7.32421875 506.34765625 l 0,43,-1
 140.625 552.734375 l 0,44,-1
 29.296875 594.23828125 l 0,45,46
 30.76171875 600.09765625 30.76171875 600.09765625 34.1796875 613.037109375 c 0,47,48
 37.59765625 625.9765625 37.59765625 625.9765625 41.50390625 640.380859375 c 0,49,50
 45.41015625 654.78515625 45.41015625 654.78515625 49.31640625 667.48046875 c 0,51,52
 53.22265625 680.17578125 53.22265625 680.17578125 55.6640625 685.546875 c 0,53,-1
 83.0078125 694.82421875 l 0,54,-1
 170.41015625 600.09765625 l 0,55,-1
 163.57421875 729.00390625 l 0,56,57
 168.9453125 731.93359375 168.9453125 731.93359375 180.908203125 736.81640625 c 0,58,59
 192.87109375 741.69921875 192.87109375 741.69921875 206.298828125 747.0703125 c 0,60,61
 219.7265625 752.44140625 219.7265625 752.44140625 231.4453125 756.591796875 c 0,62,63
 243.1640625 760.7421875 243.1640625 760.7421875 248.53515625 762.20703125 c 0,64,-1
 267.08984375 742.1875 l 0,65,-1
 221.19140625 600.5859375 l 0,0,-1
EndSplineSet
EndChar

StartChar: plus
Encoding: 14 43 14
Width: 407
VWidth: 488
Flags: W
LayerCount: 2
Fore
SplineSet
383.30078125 295.8984375 m 0,0,1
 381.34765625 290.52734375 381.34765625 290.52734375 377.197265625 282.2265625 c 0,2,3
 373.046875 273.92578125 373.046875 273.92578125 368.1640625 265.13671875 c 0,4,5
 363.28125 256.34765625 363.28125 256.34765625 358.88671875 248.53515625 c 0,6,7
 354.4921875 240.72265625 354.4921875 240.72265625 352.5390625 236.81640625 c 0,8,-1
 238.28125 236.81640625 l 0,9,-1
 220.703125 107.91015625 l 0,10,11
 216.30859375 105.46875 216.30859375 105.46875 208.984375 102.5390625 c 0,12,13
 201.66015625 99.609375 201.66015625 99.609375 193.603515625 96.6796875 c 0,14,15
 185.546875 93.75 185.546875 93.75 177.734375 91.30859375 c 0,16,17
 169.921875 88.8671875 169.921875 88.8671875 165.0390625 87.890625 c 0,18,-1
 152.34375 103.515625 l 0,19,-1
 170.41015625 236.81640625 l 0,20,-1
 39.55078125 236.81640625 l 0,21,-1
 26.85546875 253.41796875 l 0,22,23
 28.80859375 258.7890625 28.80859375 258.7890625 32.71484375 266.845703125 c 0,24,25
 36.62109375 274.90234375 36.62109375 274.90234375 41.259765625 283.447265625 c 0,26,27
 45.8984375 291.9921875 45.8984375 291.9921875 50.29296875 299.8046875 c 0,28,29
 54.6875 307.6171875 54.6875 307.6171875 57.12890625 312.5 c 0,30,-1
 180.6640625 312.5 l 0,31,-1
 198.73046875 442.3828125 l 0,32,33
 203.125 443.84765625 203.125 443.84765625 210.44921875 446.533203125 c 0,34,35
 217.7734375 449.21875 217.7734375 449.21875 225.830078125 452.1484375 c 0,36,37
 233.88671875 455.078125 233.88671875 455.078125 241.69921875 457.51953125 c 0,38,39
 249.51171875 459.9609375 249.51171875 459.9609375 254.39453125 461.42578125 c 0,40,-1
 266.6015625 445.3125 l 0,41,-1
 248.53515625 312.5 l 0,42,-1
 369.62890625 312.5 l 0,43,-1
 383.30078125 295.8984375 l 0,0,1
EndSplineSet
EndChar

StartChar: comma
Encoding: 15 44 15
Width: 244
VWidth: 488
Flags: W
LayerCount: 2
Fore
SplineSet
194.82421875 59.5703125 m 0,0,1
 194.82421875 37.109375 194.82421875 37.109375 187.01171875 12.451171875 c 0,2,3
 179.19921875 -12.20703125 179.19921875 -12.20703125 166.259765625 -36.865234375 c 0,4,5
 153.3203125 -61.5234375 153.3203125 -61.5234375 136.23046875 -84.9609375 c 0,6,7
 119.140625 -108.3984375 119.140625 -108.3984375 100.341796875 -129.150390625 c 0,8,9
 81.54296875 -149.90234375 81.54296875 -149.90234375 62.5 -166.259765625 c 0,10,11
 43.45703125 -182.6171875 43.45703125 -182.6171875 26.3671875 -192.87109375 c 0,12,-1
 -4.8828125 -166.015625 l 0,13,14
 13.671875 -146.484375 13.671875 -146.484375 27.83203125 -125.9765625 c 0,15,16
 41.9921875 -105.46875 41.9921875 -105.46875 51.26953125 -85.693359375 c 0,17,18
 60.546875 -65.91796875 60.546875 -65.91796875 65.185546875 -47.8515625 c 0,19,20
 69.82421875 -29.78515625 69.82421875 -29.78515625 69.82421875 -14.6484375 c 0,21,22
 69.82421875 -5.859375 69.82421875 -5.859375 66.40625 3.41796875 c 0,23,24
 62.98828125 12.6953125 62.98828125 12.6953125 56.15234375 20.01953125 c 0,25,26
 49.31640625 27.34375 49.31640625 27.34375 39.0625 31.73828125 c 0,27,28
 28.80859375 36.1328125 28.80859375 36.1328125 14.6484375 34.66796875 c 0,29,-1
 13.18359375 77.63671875 l 0,30,31
 19.04296875 82.51953125 19.04296875 82.51953125 30.029296875 88.37890625 c 0,32,33
 41.015625 94.23828125 41.015625 94.23828125 54.6875 100.341796875 c 0,34,35
 68.359375 106.4453125 68.359375 106.4453125 83.49609375 111.81640625 c 0,36,37
 98.6328125 117.1875 98.6328125 117.1875 112.79296875 121.58203125 c 0,38,39
 126.953125 125.9765625 126.953125 125.9765625 139.16015625 128.662109375 c 0,40,41
 151.3671875 131.34765625 151.3671875 131.34765625 159.1796875 131.34765625 c 0,42,43
 176.26953125 121.58203125 176.26953125 121.58203125 185.546875 105.712890625 c 0,44,45
 194.82421875 89.84375 194.82421875 89.84375 194.82421875 59.5703125 c 0,0,1
EndSplineSet
EndChar

StartChar: hyphen
Encoding: 16 45 16
Width: 337
Flags: W
LayerCount: 2
Fore
SplineSet
291 187 m 1,0,-1
 29 187 l 1,1,-1
 49 292 l 1,2,-1
 311 292 l 1,3,-1
 291 187 l 1,0,-1
EndSplineSet
Refer: 356 727 N 1 0 0 1 0 0 2
EndChar

StartChar: period
Encoding: 17 46 17
Width: 244
VWidth: 488
Flags: W
LayerCount: 2
Fore
SplineSet
182.12890625 83.984375 m 0,0,1
 182.12890625 66.89453125 182.12890625 66.89453125 176.025390625 49.31640625 c 0,2,3
 169.921875 31.73828125 169.921875 31.73828125 157.71484375 17.578125 c 0,4,5
 145.5078125 3.41796875 145.5078125 3.41796875 127.44140625 -5.859375 c 0,6,7
 109.375 -15.13671875 109.375 -15.13671875 85.44921875 -15.13671875 c 0,8,9
 51.26953125 -15.13671875 51.26953125 -15.13671875 35.64453125 0.9765625 c 0,10,11
 20.01953125 17.08984375 20.01953125 17.08984375 20.01953125 42.96875 c 0,12,13
 20.01953125 59.08203125 20.01953125 59.08203125 26.85546875 76.171875 c 0,14,15
 33.69140625 93.26171875 33.69140625 93.26171875 46.142578125 107.421875 c 0,16,17
 58.59375 121.58203125 58.59375 121.58203125 76.66015625 130.615234375 c 0,18,19
 94.7265625 139.6484375 94.7265625 139.6484375 117.67578125 139.6484375 c 0,20,21
 150.390625 139.6484375 150.390625 139.6484375 166.259765625 123.779296875 c 0,22,23
 182.12890625 107.91015625 182.12890625 107.91015625 182.12890625 83.984375 c 0,0,1
EndSplineSet
EndChar

StartChar: slash
Encoding: 18 47 18
Width: 444
VWidth: 488
Flags: W
LayerCount: 2
Fore
SplineSet
59.08203125 -129.39453125 m 0,0,1
 54.19921875 -132.8125 54.19921875 -132.8125 41.015625 -137.939453125 c 0,2,3
 27.83203125 -143.06640625 27.83203125 -143.06640625 12.939453125 -148.193359375 c 0,4,5
 -1.953125 -153.3203125 -1.953125 -153.3203125 -15.625 -157.71484375 c 0,6,7
 -29.296875 -162.109375 -29.296875 -162.109375 -35.15625 -164.0625 c 0,8,-1
 -54.19921875 -146.97265625 l 0,9,-1
 383.30078125 747.0703125 l 0,10,11
 389.6484375 751.46484375 389.6484375 751.46484375 402.34375 756.591796875 c 0,12,13
 415.0390625 761.71875 415.0390625 761.71875 428.7109375 766.357421875 c 0,14,15
 442.3828125 770.99609375 442.3828125 770.99609375 455.078125 774.90234375 c 0,16,17
 467.7734375 778.80859375 467.7734375 778.80859375 475.09765625 780.76171875 c 0,18,-1
 495.1171875 765.13671875 l 0,19,-1
 59.08203125 -129.39453125 l 0,0,1
EndSplineSet
EndChar

StartChar: zero
Encoding: 19 48 19
Width: 472
VWidth: 488
Flags: W
LayerCount: 2
Fore
SplineSet
453.125 382.8125 m 0,0,1
 453.125 343.75 453.125 343.75 449.70703125 309.08203125 c 0,2,3
 446.2890625 274.4140625 446.2890625 274.4140625 438.4765625 241.69921875 c 0,4,5
 430.6640625 208.984375 430.6640625 208.984375 417.724609375 177.734375 c 0,6,7
 404.78515625 146.484375 404.78515625 146.484375 386.23046875 115.234375 c 0,8,9
 370.1171875 87.890625 370.1171875 87.890625 349.12109375 64.208984375 c 0,10,11
 328.125 40.52734375 328.125 40.52734375 302.490234375 22.94921875 c 0,12,13
 276.85546875 5.37109375 276.85546875 5.37109375 246.826171875 -4.8828125 c 0,14,15
 216.796875 -15.13671875 216.796875 -15.13671875 182.6171875 -15.13671875 c 0,16,17
 145.01953125 -15.13671875 145.01953125 -15.13671875 113.76953125 3.173828125 c 0,18,19
 82.51953125 21.484375 82.51953125 21.484375 60.05859375 52.001953125 c 0,20,21
 37.59765625 82.51953125 37.59765625 82.51953125 25.390625 122.55859375 c 0,22,23
 13.18359375 162.59765625 13.18359375 162.59765625 13.18359375 206.0546875 c 0,24,25
 13.18359375 247.55859375 13.18359375 247.55859375 16.6015625 281.73828125 c 0,26,27
 20.01953125 315.91796875 20.01953125 315.91796875 27.83203125 346.6796875 c 0,28,29
 35.64453125 377.44140625 35.64453125 377.44140625 47.8515625 407.2265625 c 0,30,31
 60.05859375 437.01171875 60.05859375 437.01171875 77.1484375 469.23828125 c 0,32,33
 92.28515625 497.0703125 92.28515625 497.0703125 113.76953125 521.484375 c 0,34,35
 135.25390625 545.8984375 135.25390625 545.8984375 161.62109375 563.96484375 c 0,36,37
 187.98828125 582.03125 187.98828125 582.03125 218.994140625 592.529296875 c 0,38,39
 250 603.02734375 250 603.02734375 284.66796875 603.02734375 c 0,40,41
 318.84765625 603.02734375 318.84765625 603.02734375 349.365234375 587.890625 c 0,42,43
 379.8828125 572.75390625 379.8828125 572.75390625 403.076171875 544.189453125 c 0,44,45
 426.26953125 515.625 426.26953125 515.625 439.697265625 474.853515625 c 0,46,47
 453.125 434.08203125 453.125 434.08203125 453.125 382.8125 c 0,0,1
322.265625 398.4375 m 0,48,49
 322.265625 437.01171875 322.265625 437.01171875 317.626953125 463.37890625 c 0,50,51
 312.98828125 489.74609375 312.98828125 489.74609375 304.6875 506.103515625 c 0,52,53
 296.38671875 522.4609375 296.38671875 522.4609375 284.912109375 529.78515625 c 0,54,55
 273.4375 537.109375 273.4375 537.109375 259.765625 537.109375 c 0,56,57
 234.86328125 537.109375 234.86328125 537.109375 216.552734375 517.333984375 c 0,58,59
 198.2421875 497.55859375 198.2421875 497.55859375 185.302734375 466.064453125 c 0,60,61
 172.36328125 434.5703125 172.36328125 434.5703125 164.306640625 395.5078125 c 0,62,63
 156.25 356.4453125 156.25 356.4453125 151.611328125 317.3828125 c 0,64,65
 146.97265625 278.3203125 146.97265625 278.3203125 145.263671875 243.408203125 c 0,66,67
 143.5546875 208.49609375 143.5546875 208.49609375 143.5546875 185.546875 c 0,68,69
 143.5546875 114.74609375 143.5546875 114.74609375 158.935546875 83.251953125 c 0,70,71
 174.31640625 51.7578125 174.31640625 51.7578125 208.984375 51.7578125 c 0,72,73
 229.98046875 51.7578125 229.98046875 51.7578125 246.337890625 67.87109375 c 0,74,75
 262.6953125 83.984375 262.6953125 83.984375 275.390625 111.083984375 c 0,76,77
 288.0859375 138.18359375 288.0859375 138.18359375 296.875 173.828125 c 0,78,79
 305.6640625 209.47265625 305.6640625 209.47265625 311.279296875 247.802734375 c 0,80,81
 316.89453125 286.1328125 316.89453125 286.1328125 319.580078125 325.1953125 c 0,82,83
 322.265625 364.2578125 322.265625 364.2578125 322.265625 398.4375 c 0,48,49
EndSplineSet
EndChar

StartChar: one
Encoding: 20 49 20
Width: 472
VWidth: 488
Flags: W
LayerCount: 2
Fore
SplineSet
393.5546875 0 m 0,0,-1
 34.66796875 0 l 0,1,-1
 40.52734375 45.41015625 l 0,2,3
 77.1484375 49.8046875 77.1484375 49.8046875 101.5625 55.419921875 c 0,4,5
 125.9765625 61.03515625 125.9765625 61.03515625 140.869140625 66.89453125 c 0,6,7
 155.76171875 72.75390625 155.76171875 72.75390625 162.353515625 78.369140625 c 0,8,9
 168.9453125 83.984375 168.9453125 83.984375 169.921875 89.35546875 c 0,10,-1
 217.7734375 439.453125 l 0,11,12
 220.21484375 458.984375 220.21484375 458.984375 220.458984375 469.7265625 c 0,13,14
 220.703125 480.46875 220.703125 480.46875 215.8203125 487.3046875 c 0,15,16
 213.37890625 490.234375 213.37890625 490.234375 206.787109375 492.1875 c 0,17,18
 200.1953125 494.140625 200.1953125 494.140625 186.767578125 493.65234375 c 0,19,20
 173.33984375 493.1640625 173.33984375 493.1640625 152.099609375 490.234375 c 0,21,22
 130.859375 487.3046875 130.859375 487.3046875 100.09765625 480.46875 c 0,23,-1
 92.7734375 524.90234375 l 0,24,25
 105.95703125 527.34375 105.95703125 527.34375 126.46484375 533.203125 c 0,26,27
 146.97265625 539.0625 146.97265625 539.0625 170.654296875 546.630859375 c 0,28,29
 194.3359375 554.19921875 194.3359375 554.19921875 219.482421875 562.98828125 c 0,30,31
 244.62890625 571.77734375 244.62890625 571.77734375 267.822265625 580.078125 c 0,32,33
 291.015625 588.37890625 291.015625 588.37890625 310.302734375 595.703125 c 0,34,35
 329.58984375 603.02734375 329.58984375 603.02734375 341.796875 607.91015625 c 0,36,-1
 360.3515625 585.9375 l 0,37,-1
 292.48046875 89.35546875 l 0,38,39
 291.50390625 84.47265625 291.50390625 84.47265625 295.654296875 78.857421875 c 0,40,41
 299.8046875 73.2421875 299.8046875 73.2421875 311.767578125 67.3828125 c 0,42,43
 323.73046875 61.5234375 323.73046875 61.5234375 344.7265625 55.6640625 c 0,44,45
 365.72265625 49.8046875 365.72265625 49.8046875 399.4140625 45.41015625 c 0,46,-1
 393.5546875 0 l 0,0,-1
EndSplineSet
EndChar

StartChar: two
Encoding: 21 50 21
Width: 472
VWidth: 488
Flags: W
LayerCount: 2
Fore
SplineSet
449.70703125 500.9765625 m 0,0,1
 449.70703125 480.46875 449.70703125 480.46875 444.3359375 459.716796875 c 0,2,3
 438.96484375 438.96484375 438.96484375 438.96484375 425.78125 414.306640625 c 0,4,5
 412.59765625 389.6484375 412.59765625 389.6484375 390.13671875 359.375 c 0,6,7
 367.67578125 329.1015625 367.67578125 329.1015625 333.251953125 290.52734375 c 0,8,9
 298.828125 251.953125 298.828125 251.953125 250.9765625 203.369140625 c 0,10,11
 203.125 154.78515625 203.125 154.78515625 139.6484375 92.7734375 c 0,12,-1
 312.98828125 92.7734375 l 0,13,14
 320.80078125 92.7734375 320.80078125 92.7734375 327.880859375 97.16796875 c 0,15,16
 334.9609375 101.5625 334.9609375 101.5625 340.576171875 108.642578125 c 0,17,18
 346.19140625 115.72265625 346.19140625 115.72265625 350.830078125 124.755859375 c 0,19,20
 355.46875 133.7890625 355.46875 133.7890625 359.375 143.5546875 c 0,21,22
 368.1640625 166.015625 368.1640625 166.015625 373.046875 194.82421875 c 0,23,-1
 414.0625 184.08203125 l 0,24,-1
 381.34765625 0 l 0,25,-1
 2.9296875 0 l 0,26,-1
 -4.8828125 36.1328125 l 0,27,28
 82.03125 124.51171875 82.03125 124.51171875 143.06640625 192.87109375 c 0,29,30
 204.1015625 261.23046875 204.1015625 261.23046875 242.67578125 314.208984375 c 0,31,32
 281.25 367.1875 281.25 367.1875 298.828125 406.73828125 c 0,33,34
 316.40625 446.2890625 316.40625 446.2890625 316.40625 477.05078125 c 0,35,36
 316.40625 512.20703125 316.40625 512.20703125 302.978515625 527.34375 c 0,37,38
 289.55078125 542.48046875 289.55078125 542.48046875 263.18359375 542.48046875 c 0,39,40
 245.1171875 542.48046875 245.1171875 542.48046875 232.91015625 533.935546875 c 0,41,42
 220.703125 525.390625 220.703125 525.390625 213.37890625 511.71875 c 0,43,44
 206.0546875 498.046875 206.0546875 498.046875 203.369140625 480.95703125 c 0,45,46
 200.68359375 463.8671875 200.68359375 463.8671875 201.66015625 446.2890625 c 0,47,48
 193.84765625 441.89453125 193.84765625 441.89453125 178.466796875 436.279296875 c 0,49,50
 163.0859375 430.6640625 163.0859375 430.6640625 145.751953125 425.78125 c 0,51,52
 128.41796875 420.8984375 128.41796875 420.8984375 112.060546875 417.236328125 c 0,53,54
 95.703125 413.57421875 95.703125 413.57421875 85.44921875 412.59765625 c 0,55,-1
 72.75390625 451.66015625 l 0,56,57
 76.171875 477.05078125 76.171875 477.05078125 95.947265625 503.90625 c 0,58,59
 115.72265625 530.76171875 115.72265625 530.76171875 146.97265625 552.734375 c 0,60,61
 178.22265625 574.70703125 178.22265625 574.70703125 218.75 588.8671875 c 0,62,63
 259.27734375 603.02734375 259.27734375 603.02734375 304.19921875 603.02734375 c 0,64,65
 332.03125 603.02734375 332.03125 603.02734375 358.3984375 597.900390625 c 0,66,67
 384.765625 592.7734375 384.765625 592.7734375 405.029296875 581.0546875 c 0,68,69
 425.29296875 569.3359375 425.29296875 569.3359375 437.5 549.8046875 c 0,70,71
 449.70703125 530.2734375 449.70703125 530.2734375 449.70703125 500.9765625 c 0,0,1
EndSplineSet
EndChar

StartChar: three
Encoding: 22 51 22
Width: 472
VWidth: 488
Flags: W
LayerCount: 2
Fore
SplineSet
426.26953125 488.76953125 m 0,0,1
 426.26953125 462.40234375 426.26953125 462.40234375 417.724609375 439.697265625 c 0,2,3
 409.1796875 416.9921875 409.1796875 416.9921875 394.04296875 398.193359375 c 0,4,5
 378.90625 379.39453125 378.90625 379.39453125 358.3984375 364.990234375 c 0,6,7
 337.890625 350.5859375 337.890625 350.5859375 314.453125 340.8203125 c 0,8,9
 340.33203125 337.890625 340.33203125 337.890625 359.130859375 326.171875 c 0,10,11
 377.9296875 314.453125 377.9296875 314.453125 390.380859375 296.38671875 c 0,12,13
 402.83203125 278.3203125 402.83203125 278.3203125 408.69140625 255.859375 c 0,14,15
 414.55078125 233.3984375 414.55078125 233.3984375 414.55078125 208.984375 c 0,16,17
 414.55078125 163.0859375 414.55078125 163.0859375 395.01953125 122.314453125 c 0,18,19
 375.48828125 81.54296875 375.48828125 81.54296875 342.041015625 51.025390625 c 0,20,21
 308.59375 20.5078125 308.59375 20.5078125 264.404296875 2.685546875 c 0,22,23
 220.21484375 -15.13671875 220.21484375 -15.13671875 170.8984375 -15.13671875 c 0,24,25
 153.80859375 -15.13671875 153.80859375 -15.13671875 131.591796875 -9.27734375 c 0,26,27
 109.375 -3.41796875 109.375 -3.41796875 86.669921875 7.32421875 c 0,28,29
 63.96484375 18.06640625 63.96484375 18.06640625 42.236328125 33.447265625 c 0,30,31
 20.5078125 48.828125 20.5078125 48.828125 3.90625 67.87109375 c 0,32,-1
 32.71484375 120.1171875 l 0,33,34
 68.359375 86.42578125 68.359375 86.42578125 103.759765625 72.998046875 c 0,35,36
 139.16015625 59.5703125 139.16015625 59.5703125 172.8515625 59.5703125 c 0,37,38
 194.82421875 59.5703125 194.82421875 59.5703125 214.35546875 69.091796875 c 0,39,40
 233.88671875 78.61328125 233.88671875 78.61328125 248.779296875 96.19140625 c 0,41,42
 263.671875 113.76953125 263.671875 113.76953125 272.4609375 138.916015625 c 0,43,44
 281.25 164.0625 281.25 164.0625 281.25 195.80078125 c 0,45,46
 281.25 244.62890625 281.25 244.62890625 259.033203125 267.08984375 c 0,47,48
 236.81640625 289.55078125 236.81640625 289.55078125 201.171875 289.55078125 c 0,49,-1
 190.91796875 289.55078125 l 0,50,51
 187.01171875 289.55078125 187.01171875 289.55078125 182.861328125 289.0625 c 0,52,53
 178.7109375 288.57421875 178.7109375 288.57421875 174.072265625 288.0859375 c 0,54,55
 169.43359375 287.59765625 169.43359375 287.59765625 162.59765625 286.1328125 c 0,56,-1
 159.66796875 334.9609375 l 0,57,58
 295.41015625 368.1640625 295.41015625 368.1640625 295.41015625 483.3984375 c 0,59,60
 295.41015625 514.16015625 295.41015625 514.16015625 285.15625 528.3203125 c 0,61,62
 274.90234375 542.48046875 274.90234375 542.48046875 253.90625 542.48046875 c 0,63,64
 242.1875 542.48046875 242.1875 542.48046875 231.93359375 537.353515625 c 0,65,66
 221.6796875 532.2265625 221.6796875 532.2265625 214.35546875 522.216796875 c 0,67,68
 207.03125 512.20703125 207.03125 512.20703125 203.369140625 497.802734375 c 0,69,70
 199.70703125 483.3984375 199.70703125 483.3984375 201.171875 465.33203125 c 0,71,72
 190.91796875 459.47265625 190.91796875 459.47265625 175.78125 452.63671875 c 0,73,74
 160.64453125 445.80078125 160.64453125 445.80078125 143.798828125 440.185546875 c 0,75,76
 126.953125 434.5703125 126.953125 434.5703125 111.083984375 430.908203125 c 0,77,78
 95.21484375 427.24609375 95.21484375 427.24609375 83.49609375 426.7578125 c 0,79,-1
 70.80078125 461.42578125 l 0,80,81
 73.73046875 481.93359375 73.73046875 481.93359375 91.30859375 506.591796875 c 0,82,83
 108.88671875 531.25 108.88671875 531.25 136.962890625 552.734375 c 0,84,85
 165.0390625 574.21875 165.0390625 574.21875 202.1484375 588.623046875 c 0,86,87
 239.2578125 603.02734375 239.2578125 603.02734375 281.25 603.02734375 c 0,88,89
 323.73046875 603.02734375 323.73046875 603.02734375 351.5625 593.505859375 c 0,90,91
 379.39453125 583.984375 379.39453125 583.984375 395.99609375 568.115234375 c 0,92,93
 412.59765625 552.24609375 412.59765625 552.24609375 419.43359375 531.494140625 c 0,94,95
 426.26953125 510.7421875 426.26953125 510.7421875 426.26953125 488.76953125 c 0,0,1
EndSplineSet
EndChar

StartChar: four
Encoding: 23 52 23
Width: 472
VWidth: 488
Flags: W
LayerCount: 2
Fore
SplineSet
124.51171875 234.86328125 m 0,0,-1
 251.953125 234.86328125 l 0,1,-1
 284.1796875 468.75 l 0,2,-1
 124.51171875 234.86328125 l 0,0,-1
444.82421875 219.7265625 m 0,3,4
 438.96484375 211.9140625 438.96484375 211.9140625 431.396484375 203.369140625 c 0,5,6
 423.828125 194.82421875 423.828125 194.82421875 416.015625 186.767578125 c 0,7,8
 408.203125 178.7109375 408.203125 178.7109375 400.87890625 172.119140625 c 0,9,10
 393.5546875 165.52734375 393.5546875 165.52734375 387.6953125 161.1328125 c 0,11,-1
 359.86328125 161.1328125 l 0,12,-1
 347.16796875 70.3125 l 0,13,14
 346.6796875 66.40625 346.6796875 66.40625 349.12109375 63.232421875 c 0,15,16
 351.5625 60.05859375 351.5625 60.05859375 358.154296875 56.396484375 c 0,17,18
 364.74609375 52.734375 364.74609375 52.734375 376.46484375 48.828125 c 0,19,20
 388.18359375 44.921875 388.18359375 44.921875 406.73828125 40.52734375 c 0,21,-1
 401.3671875 0 l 0,22,-1
 124.51171875 0 l 0,23,-1
 129.8828125 40.52734375 l 0,24,25
 160.15625 45.8984375 160.15625 45.8984375 179.443359375 50.537109375 c 0,26,27
 198.73046875 55.17578125 198.73046875 55.17578125 209.9609375 59.326171875 c 0,28,29
 221.19140625 63.4765625 221.19140625 63.4765625 225.5859375 67.3828125 c 0,30,31
 229.98046875 71.2890625 229.98046875 71.2890625 230.46875 75.68359375 c 0,32,-1
 242.1875 161.1328125 l 0,33,-1
 29.78515625 161.1328125 l 0,34,-1
 13.18359375 182.12890625 l 0,35,-1
 282.2265625 568.359375 l 0,36,37
 293.9453125 572.265625 293.9453125 572.265625 309.5703125 577.392578125 c 0,38,39
 325.1953125 582.51953125 325.1953125 582.51953125 341.30859375 587.890625 c 0,40,-1
 372.55859375 598.14453125 l 0,41,42
 388.18359375 603.515625 388.18359375 603.515625 399.90234375 607.91015625 c 0,43,-1
 417.96875 585.9375 l 0,44,-1
 369.62890625 234.86328125 l 0,45,-1
 435.05859375 234.86328125 l 0,46,-1
 444.82421875 219.7265625 l 0,3,4
EndSplineSet
EndChar

StartChar: five
Encoding: 24 53 24
Width: 472
VWidth: 488
Flags: W
LayerCount: 2
Fore
SplineSet
462.890625 578.125 m 0,0,1
 457.51953125 569.3359375 457.51953125 569.3359375 446.77734375 556.15234375 c 0,2,3
 436.03515625 542.96875 436.03515625 542.96875 424.31640625 529.78515625 c 0,4,5
 412.59765625 516.6015625 412.59765625 516.6015625 401.85546875 505.615234375 c 0,6,7
 391.11328125 494.62890625 391.11328125 494.62890625 385.25390625 490.234375 c 0,8,-1
 183.59375 490.234375 l 0,9,10
 180.6640625 476.07421875 180.6640625 476.07421875 176.513671875 459.228515625 c 0,11,12
 172.36328125 442.3828125 172.36328125 442.3828125 167.96875 425.78125 c 0,13,14
 163.57421875 409.1796875 163.57421875 409.1796875 159.423828125 394.04296875 c 0,15,16
 155.2734375 378.90625 155.2734375 378.90625 151.85546875 368.1640625 c 0,17,18
 169.921875 377.9296875 169.921875 377.9296875 197.75390625 384.27734375 c 0,19,20
 225.5859375 390.625 225.5859375 390.625 255.37109375 390.625 c 0,21,22
 298.33984375 390.625 298.33984375 390.625 329.58984375 376.708984375 c 0,23,24
 360.83984375 362.79296875 360.83984375 362.79296875 381.103515625 340.576171875 c 0,25,26
 401.3671875 318.359375 401.3671875 318.359375 411.1328125 290.0390625 c 0,27,28
 420.8984375 261.71875 420.8984375 261.71875 420.8984375 232.91015625 c 0,29,30
 420.8984375 203.61328125 420.8984375 203.61328125 414.0625 174.072265625 c 0,31,32
 407.2265625 144.53125 407.2265625 144.53125 393.798828125 116.943359375 c 0,33,34
 380.37109375 89.35546875 380.37109375 89.35546875 360.107421875 65.185546875 c 0,35,36
 339.84375 41.015625 339.84375 41.015625 312.744140625 23.193359375 c 0,37,38
 285.64453125 5.37109375 285.64453125 5.37109375 251.46484375 -4.8828125 c 0,39,40
 217.28515625 -15.13671875 217.28515625 -15.13671875 176.7578125 -15.13671875 c 0,41,42
 154.78515625 -15.13671875 154.78515625 -15.13671875 131.591796875 -9.765625 c 0,43,44
 108.3984375 -4.39453125 108.3984375 -4.39453125 85.9375 5.859375 c 0,45,46
 63.4765625 16.11328125 63.4765625 16.11328125 42.724609375 31.25 c 0,47,48
 21.97265625 46.38671875 21.97265625 46.38671875 4.8828125 65.4296875 c 0,49,-1
 34.66796875 112.79296875 l 0,50,51
 56.640625 95.703125 56.640625 95.703125 75.927734375 84.47265625 c 0,52,53
 95.21484375 73.2421875 95.21484375 73.2421875 112.79296875 66.650390625 c 0,54,55
 130.37109375 60.05859375 130.37109375 60.05859375 146.240234375 57.373046875 c 0,56,57
 162.109375 54.6875 162.109375 54.6875 177.734375 54.6875 c 0,58,59
 201.171875 54.6875 201.171875 54.6875 222.412109375 66.40625 c 0,60,61
 243.65234375 78.125 243.65234375 78.125 259.765625 98.6328125 c 0,62,63
 275.87890625 119.140625 275.87890625 119.140625 285.400390625 146.97265625 c 0,64,65
 294.921875 174.8046875 294.921875 174.8046875 294.921875 207.03125 c 0,66,67
 294.921875 230.95703125 294.921875 230.95703125 288.57421875 250.48828125 c 0,68,69
 282.2265625 270.01953125 282.2265625 270.01953125 270.5078125 283.69140625 c 0,70,71
 258.7890625 297.36328125 258.7890625 297.36328125 241.943359375 304.931640625 c 0,72,73
 225.09765625 312.5 225.09765625 312.5 204.58984375 312.5 c 0,74,75
 165.0390625 312.5 165.0390625 312.5 135.7421875 300.29296875 c 0,76,77
 106.4453125 288.0859375 106.4453125 288.0859375 80.56640625 268.5546875 c 0,78,-1
 60.05859375 284.66796875 l 0,79,80
 66.40625 302.24609375 66.40625 302.24609375 73.73046875 326.904296875 c 0,81,82
 81.0546875 351.5625 81.0546875 351.5625 88.8671875 379.39453125 c 0,83,84
 96.6796875 407.2265625 96.6796875 407.2265625 104.4921875 437.01171875 c 0,85,86
 112.3046875 466.796875 112.3046875 466.796875 118.896484375 494.384765625 c 0,87,88
 125.48828125 521.97265625 125.48828125 521.97265625 131.103515625 546.38671875 c 0,89,90
 136.71875 570.80078125 136.71875 570.80078125 139.6484375 587.890625 c 0,91,-1
 393.06640625 587.890625 l 0,92,93
 405.2734375 587.890625 405.2734375 587.890625 415.283203125 589.111328125 c 0,94,95
 425.29296875 590.33203125 425.29296875 590.33203125 432.12890625 592.28515625 c 0,96,97
 440.4296875 594.23828125 440.4296875 594.23828125 446.77734375 597.16796875 c 0,98,-1
 462.890625 578.125 l 0,0,1
EndSplineSet
EndChar

StartChar: six
Encoding: 25 54 25
Width: 472
VWidth: 488
Flags: W
LayerCount: 2
Fore
SplineSet
439.453125 561.5234375 m 0,0,1
 381.8359375 551.26953125 381.8359375 551.26953125 338.37890625 530.2734375 c 0,2,3
 294.921875 509.27734375 294.921875 509.27734375 263.18359375 479.98046875 c 0,4,5
 231.4453125 450.68359375 231.4453125 450.68359375 210.693359375 414.306640625 c 0,6,7
 189.94140625 377.9296875 189.94140625 377.9296875 177.734375 336.42578125 c 0,8,9
 207.51953125 360.3515625 207.51953125 360.3515625 237.060546875 373.046875 c 0,10,11
 266.6015625 385.7421875 266.6015625 385.7421875 292.48046875 385.7421875 c 0,12,13
 325.1953125 385.7421875 325.1953125 385.7421875 352.05078125 374.51171875 c 0,14,15
 378.90625 363.28125 378.90625 363.28125 397.94921875 343.505859375 c 0,16,17
 416.9921875 323.73046875 416.9921875 323.73046875 427.490234375 296.142578125 c 0,18,19
 437.98828125 268.5546875 437.98828125 268.5546875 437.98828125 235.83984375 c 0,20,21
 437.98828125 209.47265625 437.98828125 209.47265625 430.908203125 180.419921875 c 0,22,23
 423.828125 151.3671875 423.828125 151.3671875 410.400390625 123.53515625 c 0,24,25
 396.97265625 95.703125 396.97265625 95.703125 376.953125 70.556640625 c 0,26,27
 356.93359375 45.41015625 356.93359375 45.41015625 331.298828125 26.3671875 c 0,28,29
 305.6640625 7.32421875 305.6640625 7.32421875 274.658203125 -3.90625 c 0,30,31
 243.65234375 -15.13671875 243.65234375 -15.13671875 207.51953125 -15.13671875 c 0,32,33
 170.41015625 -15.13671875 170.41015625 -15.13671875 137.451171875 -1.220703125 c 0,34,35
 104.4921875 12.6953125 104.4921875 12.6953125 79.58984375 37.841796875 c 0,36,37
 54.6875 62.98828125 54.6875 62.98828125 40.283203125 98.14453125 c 0,38,39
 25.87890625 133.30078125 25.87890625 133.30078125 25.87890625 175.78125 c 0,40,41
 25.87890625 228.515625 25.87890625 228.515625 37.59765625 279.052734375 c 0,42,43
 49.31640625 329.58984375 49.31640625 329.58984375 72.265625 375.244140625 c 0,44,45
 95.21484375 420.8984375 95.21484375 420.8984375 129.39453125 460.44921875 c 0,46,47
 163.57421875 500 163.57421875 500 208.740234375 530.76171875 c 0,48,49
 253.90625 561.5234375 253.90625 561.5234375 310.05859375 582.03125 c 0,50,51
 366.2109375 602.5390625 366.2109375 602.5390625 432.6171875 609.86328125 c 0,52,-1
 439.453125 561.5234375 l 0,0,1
247.0703125 312.01171875 m 0,53,54
 229.98046875 312.01171875 229.98046875 312.01171875 208.0078125 298.33984375 c 0,55,56
 186.03515625 284.66796875 186.03515625 284.66796875 162.59765625 261.23046875 c 0,57,58
 160.15625 241.69921875 160.15625 241.69921875 159.1796875 222.16796875 c 0,59,60
 158.203125 202.63671875 158.203125 202.63671875 158.203125 182.12890625 c 0,61,62
 158.203125 145.5078125 158.203125 145.5078125 163.57421875 120.60546875 c 0,63,64
 168.9453125 95.703125 168.9453125 95.703125 178.22265625 80.322265625 c 0,65,66
 187.5 64.94140625 187.5 64.94140625 200.439453125 58.349609375 c 0,67,68
 213.37890625 51.7578125 213.37890625 51.7578125 228.02734375 51.7578125 c 0,69,70
 242.67578125 51.7578125 242.67578125 51.7578125 254.39453125 59.814453125 c 0,71,72
 266.11328125 67.87109375 266.11328125 67.87109375 275.146484375 81.54296875 c 0,73,74
 284.1796875 95.21484375 284.1796875 95.21484375 290.283203125 112.79296875 c 0,75,76
 296.38671875 130.37109375 296.38671875 130.37109375 300.537109375 148.92578125 c 0,77,78
 304.6875 167.48046875 304.6875 167.48046875 306.396484375 186.279296875 c 0,79,80
 308.10546875 205.078125 308.10546875 205.078125 308.10546875 220.703125 c 0,81,82
 308.10546875 249.0234375 308.10546875 249.0234375 302.734375 266.845703125 c 0,83,84
 297.36328125 284.66796875 297.36328125 284.66796875 288.57421875 294.677734375 c 0,85,86
 279.78515625 304.6875 279.78515625 304.6875 268.798828125 308.349609375 c 0,87,88
 257.8125 312.01171875 257.8125 312.01171875 247.0703125 312.01171875 c 0,53,54
EndSplineSet
EndChar

StartChar: seven
Encoding: 26 55 26
Width: 472
VWidth: 488
Flags: W
LayerCount: 2
Fore
SplineSet
490.72265625 569.82421875 m 0,0,1
 462.40234375 517.08984375 462.40234375 517.08984375 435.05859375 463.8671875 c 0,2,3
 407.71484375 410.64453125 407.71484375 410.64453125 381.8359375 358.88671875 c 0,4,5
 355.95703125 307.12890625 355.95703125 307.12890625 332.51953125 258.30078125 c 0,6,7
 309.08203125 209.47265625 309.08203125 209.47265625 288.818359375 166.748046875 c 0,8,9
 268.5546875 124.0234375 268.5546875 124.0234375 252.197265625 88.134765625 c 0,10,11
 235.83984375 52.24609375 235.83984375 52.24609375 224.609375 26.3671875 c 0,12,13
 215.8203125 20.5078125 215.8203125 20.5078125 200.927734375 14.404296875 c 0,14,15
 186.03515625 8.30078125 186.03515625 8.30078125 169.43359375 2.9296875 c 0,16,17
 152.83203125 -2.44140625 152.83203125 -2.44140625 136.71875 -7.080078125 c 0,18,19
 120.60546875 -11.71875 120.60546875 -11.71875 108.88671875 -14.6484375 c 0,20,-1
 88.37890625 6.34765625 l 0,21,22
 121.58203125 56.15234375 121.58203125 56.15234375 149.4140625 99.853515625 c 0,23,24
 177.24609375 143.5546875 177.24609375 143.5546875 201.66015625 183.59375 c 0,25,26
 226.07421875 223.6328125 226.07421875 223.6328125 247.802734375 260.986328125 c 0,27,28
 269.53125 298.33984375 269.53125 298.33984375 290.283203125 335.693359375 c 0,29,30
 311.03515625 373.046875 311.03515625 373.046875 331.54296875 411.1328125 c 0,31,32
 352.05078125 449.21875 352.05078125 449.21875 374.51171875 490.72265625 c 0,33,-1
 167.96875 490.72265625 l 0,34,35
 161.1328125 490.72265625 161.1328125 490.72265625 153.076171875 488.76953125 c 0,36,37
 145.01953125 486.81640625 145.01953125 486.81640625 135.498046875 478.759765625 c 0,38,39
 125.9765625 470.703125 125.9765625 470.703125 114.501953125 454.58984375 c 0,40,41
 103.02734375 438.4765625 103.02734375 438.4765625 89.35546875 410.15625 c 0,42,-1
 56.15234375 423.828125 l 0,43,44
 58.10546875 431.15234375 58.10546875 431.15234375 61.767578125 444.3359375 c 0,45,46
 65.4296875 457.51953125 65.4296875 457.51953125 69.82421875 473.388671875 c 0,47,48
 74.21875 489.2578125 74.21875 489.2578125 78.857421875 506.34765625 c 0,49,50
 83.49609375 523.4375 83.49609375 523.4375 87.890625 539.306640625 c 0,51,52
 92.28515625 555.17578125 92.28515625 555.17578125 96.19140625 567.87109375 c 0,53,54
 100.09765625 580.56640625 100.09765625 580.56640625 103.02734375 587.890625 c 0,55,-1
 478.02734375 587.890625 l 0,56,-1
 490.72265625 569.82421875 l 0,0,1
EndSplineSet
EndChar

StartChar: eight
Encoding: 27 56 27
Width: 472
VWidth: 488
Flags: W
LayerCount: 2
Fore
SplineSet
455.56640625 488.76953125 m 0,0,1
 455.56640625 463.8671875 455.56640625 463.8671875 444.82421875 443.115234375 c 0,2,3
 434.08203125 422.36328125 434.08203125 422.36328125 416.9921875 404.541015625 c 0,4,5
 399.90234375 386.71875 399.90234375 386.71875 378.90625 371.58203125 c 0,6,7
 357.91015625 356.4453125 357.91015625 356.4453125 336.9140625 343.75 c 0,8,9
 356.4453125 333.49609375 356.4453125 333.49609375 374.755859375 320.3125 c 0,10,11
 393.06640625 307.12890625 393.06640625 307.12890625 406.982421875 289.55078125 c 0,12,13
 420.8984375 271.97265625 420.8984375 271.97265625 429.19921875 248.53515625 c 0,14,15
 437.5 225.09765625 437.5 225.09765625 437.5 193.84765625 c 0,16,17
 437.5 152.34375 437.5 152.34375 417.48046875 114.501953125 c 0,18,19
 397.4609375 76.66015625 397.4609375 76.66015625 364.501953125 47.8515625 c 0,20,21
 331.54296875 19.04296875 331.54296875 19.04296875 288.818359375 1.953125 c 0,22,23
 246.09375 -15.13671875 246.09375 -15.13671875 200.68359375 -15.13671875 c 0,24,25
 152.34375 -15.13671875 152.34375 -15.13671875 117.431640625 -3.90625 c 0,26,27
 82.51953125 7.32421875 82.51953125 7.32421875 60.05859375 26.3671875 c 0,28,29
 37.59765625 45.41015625 37.59765625 45.41015625 26.85546875 70.068359375 c 0,30,31
 16.11328125 94.7265625 16.11328125 94.7265625 16.11328125 122.0703125 c 0,32,33
 16.11328125 153.3203125 16.11328125 153.3203125 29.052734375 180.419921875 c 0,34,35
 41.9921875 207.51953125 41.9921875 207.51953125 62.98828125 230.712890625 c 0,36,37
 83.984375 253.90625 83.984375 253.90625 111.083984375 272.94921875 c 0,38,39
 138.18359375 291.9921875 138.18359375 291.9921875 166.9921875 307.12890625 c 0,40,41
 149.90234375 316.40625 149.90234375 316.40625 134.521484375 327.392578125 c 0,42,43
 119.140625 338.37890625 119.140625 338.37890625 107.666015625 353.02734375 c 0,44,45
 96.19140625 367.67578125 96.19140625 367.67578125 89.35546875 387.451171875 c 0,46,47
 82.51953125 407.2265625 82.51953125 407.2265625 82.51953125 434.08203125 c 0,48,49
 82.51953125 469.7265625 82.51953125 469.7265625 100.09765625 500.732421875 c 0,50,51
 117.67578125 531.73828125 117.67578125 531.73828125 147.4609375 554.443359375 c 0,52,53
 177.24609375 577.1484375 177.24609375 577.1484375 216.796875 590.087890625 c 0,54,55
 256.34765625 603.02734375 256.34765625 603.02734375 300.29296875 603.02734375 c 0,56,57
 341.30859375 603.02734375 341.30859375 603.02734375 370.60546875 594.482421875 c 0,58,59
 399.90234375 585.9375 399.90234375 585.9375 418.9453125 570.80078125 c 0,60,61
 437.98828125 555.6640625 437.98828125 555.6640625 446.77734375 534.66796875 c 0,62,63
 455.56640625 513.671875 455.56640625 513.671875 455.56640625 488.76953125 c 0,0,1
303.7109375 166.9921875 m 0,64,65
 303.7109375 190.4296875 303.7109375 190.4296875 297.119140625 207.763671875 c 0,66,67
 290.52734375 225.09765625 290.52734375 225.09765625 279.052734375 238.28125 c 0,68,69
 267.578125 251.46484375 267.578125 251.46484375 252.44140625 261.474609375 c 0,70,71
 237.3046875 271.484375 237.3046875 271.484375 220.703125 280.2734375 c 0,72,73
 205.56640625 265.13671875 205.56640625 265.13671875 192.87109375 248.779296875 c 0,74,75
 180.17578125 232.421875 180.17578125 232.421875 170.654296875 214.35546875 c 0,76,77
 161.1328125 196.2890625 161.1328125 196.2890625 155.76171875 176.26953125 c 0,78,79
 150.390625 156.25 150.390625 156.25 150.390625 133.7890625 c 0,80,81
 150.390625 112.79296875 150.390625 112.79296875 156.005859375 96.923828125 c 0,82,83
 161.62109375 81.0546875 161.62109375 81.0546875 170.8984375 70.3125 c 0,84,85
 180.17578125 59.5703125 180.17578125 59.5703125 192.138671875 54.19921875 c 0,86,87
 204.1015625 48.828125 204.1015625 48.828125 216.796875 48.828125 c 0,88,89
 236.328125 48.828125 236.328125 48.828125 252.44140625 59.08203125 c 0,90,91
 268.5546875 69.3359375 268.5546875 69.3359375 279.78515625 86.181640625 c 0,92,93
 291.015625 103.02734375 291.015625 103.02734375 297.36328125 124.0234375 c 0,94,95
 303.7109375 145.01953125 303.7109375 145.01953125 303.7109375 166.9921875 c 0,64,65
203.61328125 458.984375 m 0,96,97
 203.61328125 441.89453125 203.61328125 441.89453125 209.716796875 429.19921875 c 0,98,99
 215.8203125 416.50390625 215.8203125 416.50390625 226.318359375 406.25 c 0,100,101
 236.81640625 395.99609375 236.81640625 395.99609375 250.9765625 387.451171875 c 0,102,103
 265.13671875 378.90625 265.13671875 378.90625 281.25 371.09375 c 0,104,105
 300.29296875 390.625 300.29296875 390.625 314.453125 416.015625 c 0,106,107
 328.61328125 441.40625 328.61328125 441.40625 328.61328125 476.07421875 c 0,108,109
 328.61328125 508.30078125 328.61328125 508.30078125 313.720703125 525.390625 c 0,110,111
 298.828125 542.48046875 298.828125 542.48046875 271.484375 542.48046875 c 0,112,113
 257.32421875 542.48046875 257.32421875 542.48046875 245.1171875 535.15625 c 0,114,115
 232.91015625 527.83203125 232.91015625 527.83203125 223.6328125 515.869140625 c 0,116,117
 214.35546875 503.90625 214.35546875 503.90625 208.984375 489.013671875 c 0,118,119
 203.61328125 474.12109375 203.61328125 474.12109375 203.61328125 458.984375 c 0,96,97
EndSplineSet
EndChar

StartChar: nine
Encoding: 28 57 28
Width: 472
VWidth: 488
Flags: W
LayerCount: 2
Fore
SplineSet
459.9609375 420.8984375 m 0,0,1
 459.9609375 337.40234375 459.9609375 337.40234375 434.08203125 262.20703125 c 0,2,3
 408.203125 187.01171875 408.203125 187.01171875 356.4453125 127.685546875 c 0,4,5
 304.6875 68.359375 304.6875 68.359375 227.783203125 29.296875 c 0,6,7
 150.87890625 -9.765625 150.87890625 -9.765625 48.828125 -20.99609375 c 0,8,-1
 42.48046875 27.34375 l 0,9,10
 101.5625 41.015625 101.5625 41.015625 146.240234375 61.279296875 c 0,11,12
 190.91796875 81.54296875 190.91796875 81.54296875 223.14453125 109.375 c 0,13,14
 255.37109375 137.20703125 255.37109375 137.20703125 276.123046875 173.33984375 c 0,15,16
 296.875 209.47265625 296.875 209.47265625 308.59375 254.8828125 c 0,17,18
 283.203125 231.93359375 283.203125 231.93359375 252.44140625 217.041015625 c 0,19,20
 221.6796875 202.1484375 221.6796875 202.1484375 186.03515625 202.1484375 c 0,21,22
 149.4140625 202.1484375 149.4140625 202.1484375 123.291015625 214.84375 c 0,23,24
 97.16796875 227.5390625 97.16796875 227.5390625 80.322265625 248.53515625 c 0,25,26
 63.4765625 269.53125 63.4765625 269.53125 55.6640625 296.875 c 0,27,28
 47.8515625 324.21875 47.8515625 324.21875 47.8515625 354.00390625 c 0,29,30
 47.8515625 398.92578125 47.8515625 398.92578125 66.40625 443.359375 c 0,31,32
 84.9609375 487.79296875 84.9609375 487.79296875 117.1875 523.4375 c 0,33,34
 149.4140625 559.08203125 149.4140625 559.08203125 193.115234375 581.0546875 c 0,35,36
 236.81640625 603.02734375 236.81640625 603.02734375 287.59765625 603.02734375 c 0,37,38
 327.1484375 603.02734375 327.1484375 603.02734375 358.88671875 592.041015625 c 0,39,40
 390.625 581.0546875 390.625 581.0546875 413.0859375 558.59375 c 0,41,42
 435.546875 536.1328125 435.546875 536.1328125 447.75390625 501.708984375 c 0,43,44
 459.9609375 467.28515625 459.9609375 467.28515625 459.9609375 420.8984375 c 0,0,1
231.4453125 280.76171875 m 0,45,46
 256.8359375 280.76171875 256.8359375 280.76171875 279.541015625 294.189453125 c 0,47,48
 302.24609375 307.6171875 302.24609375 307.6171875 321.2890625 328.61328125 c 0,49,50
 325.68359375 369.62890625 325.68359375 369.62890625 325.68359375 417.96875 c 0,51,52
 325.68359375 453.61328125 325.68359375 453.61328125 321.533203125 476.806640625 c 0,53,54
 317.3828125 500 317.3828125 500 309.5703125 513.427734375 c 0,55,56
 301.7578125 526.85546875 301.7578125 526.85546875 291.015625 531.982421875 c 0,57,58
 280.2734375 537.109375 280.2734375 537.109375 267.08984375 537.109375 c 0,59,60
 241.2109375 537.109375 241.2109375 537.109375 223.876953125 521.97265625 c 0,61,62
 206.54296875 506.8359375 206.54296875 506.8359375 196.2890625 483.3984375 c 0,63,64
 186.03515625 459.9609375 186.03515625 459.9609375 181.640625 431.396484375 c 0,65,66
 177.24609375 402.83203125 177.24609375 402.83203125 177.24609375 375.9765625 c 0,67,68
 177.24609375 349.609375 177.24609375 349.609375 182.12890625 331.54296875 c 0,69,70
 187.01171875 313.4765625 187.01171875 313.4765625 194.82421875 302.001953125 c 0,71,72
 202.63671875 290.52734375 202.63671875 290.52734375 212.158203125 285.64453125 c 0,73,74
 221.6796875 280.76171875 221.6796875 280.76171875 231.4453125 280.76171875 c 0,45,46
EndSplineSet
EndChar

StartChar: colon
Encoding: 29 58 29
Width: 244
VWidth: 488
Flags: W
LayerCount: 2
Fore
SplineSet
182.12890625 83.984375 m 0,0,1
 182.12890625 66.89453125 182.12890625 66.89453125 176.025390625 49.31640625 c 0,2,3
 169.921875 31.73828125 169.921875 31.73828125 157.71484375 17.578125 c 0,4,5
 145.5078125 3.41796875 145.5078125 3.41796875 127.44140625 -5.859375 c 0,6,7
 109.375 -15.13671875 109.375 -15.13671875 85.44921875 -15.13671875 c 0,8,9
 51.26953125 -15.13671875 51.26953125 -15.13671875 35.64453125 0.9765625 c 0,10,11
 20.01953125 17.08984375 20.01953125 17.08984375 20.01953125 42.96875 c 0,12,13
 20.01953125 59.08203125 20.01953125 59.08203125 26.85546875 76.171875 c 0,14,15
 33.69140625 93.26171875 33.69140625 93.26171875 46.142578125 107.421875 c 0,16,17
 58.59375 121.58203125 58.59375 121.58203125 76.66015625 130.615234375 c 0,18,19
 94.7265625 139.6484375 94.7265625 139.6484375 117.67578125 139.6484375 c 0,20,21
 150.390625 139.6484375 150.390625 139.6484375 166.259765625 123.779296875 c 0,22,23
 182.12890625 107.91015625 182.12890625 107.91015625 182.12890625 83.984375 c 0,0,1
227.5390625 413.57421875 m 0,24,25
 227.5390625 396.484375 227.5390625 396.484375 221.435546875 378.90625 c 0,26,27
 215.33203125 361.328125 215.33203125 361.328125 203.125 347.16796875 c 0,28,29
 190.91796875 333.0078125 190.91796875 333.0078125 172.8515625 323.73046875 c 0,30,31
 154.78515625 314.453125 154.78515625 314.453125 130.859375 314.453125 c 0,32,33
 96.6796875 314.453125 96.6796875 314.453125 81.0546875 330.56640625 c 0,34,35
 65.4296875 346.6796875 65.4296875 346.6796875 65.4296875 372.55859375 c 0,36,37
 65.4296875 388.671875 65.4296875 388.671875 72.265625 405.76171875 c 0,38,39
 79.1015625 422.8515625 79.1015625 422.8515625 91.552734375 437.01171875 c 0,40,41
 104.00390625 451.171875 104.00390625 451.171875 122.0703125 460.205078125 c 0,42,43
 140.13671875 469.23828125 140.13671875 469.23828125 163.0859375 469.23828125 c 0,44,45
 195.80078125 469.23828125 195.80078125 469.23828125 211.669921875 453.369140625 c 0,46,47
 227.5390625 437.5 227.5390625 437.5 227.5390625 413.57421875 c 0,24,25
EndSplineSet
EndChar

StartChar: semicolon
Encoding: 30 59 30
Width: 244
VWidth: 488
Flags: W
LayerCount: 2
Fore
SplineSet
194.82421875 59.5703125 m 0,0,1
 194.82421875 37.109375 194.82421875 37.109375 187.01171875 12.451171875 c 0,2,3
 179.19921875 -12.20703125 179.19921875 -12.20703125 166.259765625 -36.865234375 c 0,4,5
 153.3203125 -61.5234375 153.3203125 -61.5234375 136.23046875 -84.9609375 c 0,6,7
 119.140625 -108.3984375 119.140625 -108.3984375 100.341796875 -129.150390625 c 0,8,9
 81.54296875 -149.90234375 81.54296875 -149.90234375 62.5 -166.259765625 c 0,10,11
 43.45703125 -182.6171875 43.45703125 -182.6171875 26.3671875 -192.87109375 c 0,12,-1
 -4.8828125 -166.015625 l 0,13,14
 13.671875 -146.484375 13.671875 -146.484375 27.83203125 -125.9765625 c 0,15,16
 41.9921875 -105.46875 41.9921875 -105.46875 51.26953125 -85.693359375 c 0,17,18
 60.546875 -65.91796875 60.546875 -65.91796875 65.185546875 -47.8515625 c 0,19,20
 69.82421875 -29.78515625 69.82421875 -29.78515625 69.82421875 -14.6484375 c 0,21,22
 69.82421875 -5.859375 69.82421875 -5.859375 66.40625 3.41796875 c 0,23,24
 62.98828125 12.6953125 62.98828125 12.6953125 56.15234375 20.01953125 c 0,25,26
 49.31640625 27.34375 49.31640625 27.34375 39.0625 31.73828125 c 0,27,28
 28.80859375 36.1328125 28.80859375 36.1328125 14.6484375 34.66796875 c 0,29,-1
 13.18359375 77.63671875 l 0,30,31
 19.04296875 82.51953125 19.04296875 82.51953125 30.029296875 88.37890625 c 0,32,33
 41.015625 94.23828125 41.015625 94.23828125 54.6875 100.341796875 c 0,34,35
 68.359375 106.4453125 68.359375 106.4453125 83.49609375 111.81640625 c 0,36,37
 98.6328125 117.1875 98.6328125 117.1875 112.79296875 121.58203125 c 0,38,39
 126.953125 125.9765625 126.953125 125.9765625 139.16015625 128.662109375 c 0,40,41
 151.3671875 131.34765625 151.3671875 131.34765625 159.1796875 131.34765625 c 0,42,43
 176.26953125 121.58203125 176.26953125 121.58203125 185.546875 105.712890625 c 0,44,45
 194.82421875 89.84375 194.82421875 89.84375 194.82421875 59.5703125 c 0,0,1
228.515625 413.57421875 m 0,46,47
 228.515625 396.484375 228.515625 396.484375 222.412109375 378.90625 c 0,48,49
 216.30859375 361.328125 216.30859375 361.328125 204.1015625 347.16796875 c 0,50,51
 191.89453125 333.0078125 191.89453125 333.0078125 173.828125 323.73046875 c 0,52,53
 155.76171875 314.453125 155.76171875 314.453125 131.8359375 314.453125 c 0,54,55
 97.65625 314.453125 97.65625 314.453125 82.03125 330.56640625 c 0,56,57
 66.40625 346.6796875 66.40625 346.6796875 66.40625 372.55859375 c 0,58,59
 66.40625 388.671875 66.40625 388.671875 73.2421875 405.76171875 c 0,60,61
 80.078125 422.8515625 80.078125 422.8515625 92.529296875 437.01171875 c 0,62,63
 104.98046875 451.171875 104.98046875 451.171875 123.046875 460.205078125 c 0,64,65
 141.11328125 469.23828125 141.11328125 469.23828125 164.0625 469.23828125 c 0,66,67
 196.77734375 469.23828125 196.77734375 469.23828125 212.646484375 453.369140625 c 0,68,69
 228.515625 437.5 228.515625 437.5 228.515625 413.57421875 c 0,46,47
EndSplineSet
EndChar

StartChar: less
Encoding: 31 60 31
Width: 439
VWidth: 488
Flags: W
LayerCount: 2
Fore
SplineSet
423.33984375 435.546875 m 0,0,1
 421.38671875 430.17578125 421.38671875 430.17578125 417.724609375 420.8984375 c 0,2,3
 414.0625 411.62109375 414.0625 411.62109375 410.15625 401.3671875 c 0,4,5
 406.25 391.11328125 406.25 391.11328125 402.587890625 381.8359375 c 0,6,7
 398.92578125 372.55859375 398.92578125 372.55859375 396.97265625 368.1640625 c 0,8,-1
 156.73828125 277.83203125 l 0,9,-1
 377.44140625 186.5234375 l 0,10,-1
 386.23046875 164.0625 l 0,11,12
 380.859375 159.1796875 380.859375 159.1796875 374.0234375 152.587890625 c 0,13,14
 367.1875 145.99609375 367.1875 145.99609375 359.619140625 139.16015625 c 0,15,16
 352.05078125 132.32421875 352.05078125 132.32421875 344.23828125 125.9765625 c 0,17,18
 336.42578125 119.62890625 336.42578125 119.62890625 329.1015625 115.234375 c 0,19,-1
 41.50390625 234.375 l 0,20,-1
 29.296875 256.34765625 l 0,21,22
 31.73828125 262.6953125 31.73828125 262.6953125 35.15625 270.99609375 c 0,23,24
 38.57421875 279.296875 38.57421875 279.296875 42.236328125 288.0859375 c 0,25,26
 45.8984375 296.875 45.8984375 296.875 49.560546875 305.17578125 c 0,27,28
 53.22265625 313.4765625 53.22265625 313.4765625 56.15234375 319.3359375 c 0,29,-1
 409.66796875 452.63671875 l 0,30,-1
 423.33984375 435.546875 l 0,0,1
EndSplineSet
EndChar

StartChar: equal
Encoding: 32 61 32
Width: 439
VWidth: 488
Flags: W
LayerCount: 2
Fore
SplineSet
395.01953125 222.65625 m 0,0,1
 393.06640625 217.28515625 393.06640625 217.28515625 388.916015625 208.984375 c 0,2,3
 384.765625 200.68359375 384.765625 200.68359375 379.8828125 191.89453125 c 0,4,5
 375 183.10546875 375 183.10546875 370.60546875 175.29296875 c 0,6,7
 366.2109375 167.48046875 366.2109375 167.48046875 364.2578125 163.57421875 c 0,8,-1
 32.2265625 163.57421875 l 0,9,-1
 19.53125 180.17578125 l 0,10,11
 21.484375 185.546875 21.484375 185.546875 25.390625 193.603515625 c 0,12,13
 29.296875 201.66015625 29.296875 201.66015625 33.935546875 210.205078125 c 0,14,15
 38.57421875 218.75 38.57421875 218.75 42.96875 226.5625 c 0,16,17
 47.36328125 234.375 47.36328125 234.375 50.29296875 239.2578125 c 0,18,-1
 381.8359375 239.2578125 l 0,19,-1
 395.01953125 222.65625 l 0,0,1
415.0390625 369.140625 m 0,20,21
 413.0859375 363.76953125 413.0859375 363.76953125 408.935546875 355.46875 c 0,22,23
 404.78515625 347.16796875 404.78515625 347.16796875 399.90234375 338.37890625 c 0,24,25
 395.01953125 329.58984375 395.01953125 329.58984375 390.625 321.77734375 c 0,26,27
 386.23046875 313.96484375 386.23046875 313.96484375 384.27734375 310.05859375 c 0,28,-1
 52.24609375 310.05859375 l 0,29,-1
 39.55078125 326.66015625 l 0,30,31
 41.50390625 332.03125 41.50390625 332.03125 45.41015625 340.087890625 c 0,32,33
 49.31640625 348.14453125 49.31640625 348.14453125 53.955078125 356.689453125 c 0,34,35
 58.59375 365.234375 58.59375 365.234375 62.98828125 373.046875 c 0,36,37
 67.3828125 380.859375 67.3828125 380.859375 70.3125 385.7421875 c 0,38,-1
 401.85546875 385.7421875 l 0,39,-1
 415.0390625 369.140625 l 0,20,21
EndSplineSet
EndChar

StartChar: greater
Encoding: 33 62 33
Width: 439
VWidth: 488
Flags: W
LayerCount: 2
Fore
SplineSet
405.76171875 311.5234375 m 0,0,1
 403.3203125 304.6875 403.3203125 304.6875 399.90234375 296.142578125 c 0,2,3
 396.484375 287.59765625 396.484375 287.59765625 392.822265625 279.052734375 c 0,4,5
 389.16015625 270.5078125 389.16015625 270.5078125 385.498046875 262.451171875 c 0,6,7
 381.8359375 254.39453125 381.8359375 254.39453125 378.90625 248.53515625 c 0,8,-1
 24.90234375 115.234375 l 0,9,-1
 12.20703125 132.32421875 l 0,10,11
 13.671875 137.20703125 13.671875 137.20703125 17.333984375 146.728515625 c 0,12,13
 20.99609375 156.25 20.99609375 156.25 24.90234375 166.50390625 c 0,14,15
 28.80859375 176.7578125 28.80859375 176.7578125 32.71484375 186.03515625 c 0,16,17
 36.62109375 195.3125 36.62109375 195.3125 38.57421875 199.70703125 c 0,18,-1
 278.3203125 290.0390625 l 0,19,-1
 57.6171875 381.34765625 l 0,20,-1
 49.31640625 403.80859375 l 0,21,22
 54.6875 408.69140625 54.6875 408.69140625 61.5234375 415.283203125 c 0,23,24
 68.359375 421.875 68.359375 421.875 75.68359375 428.7109375 c 0,25,26
 83.0078125 435.546875 83.0078125 435.546875 90.8203125 441.89453125 c 0,27,28
 98.6328125 448.2421875 98.6328125 448.2421875 105.95703125 452.63671875 c 0,29,-1
 393.06640625 333.49609375 l 0,30,-1
 405.76171875 311.5234375 l 0,0,1
EndSplineSet
EndChar

StartChar: question
Encoding: 34 63 34
Width: 439
VWidth: 488
Flags: W
LayerCount: 2
Fore
SplineSet
448.73046875 579.1015625 m 0,0,1
 448.73046875 538.57421875 448.73046875 538.57421875 434.326171875 506.8359375 c 0,2,3
 419.921875 475.09765625 419.921875 475.09765625 397.94921875 448.486328125 c 0,4,5
 375.9765625 421.875 375.9765625 421.875 349.853515625 398.4375 c 0,6,7
 323.73046875 375 323.73046875 375 300.537109375 351.5625 c 0,8,9
 277.34375 328.125 277.34375 328.125 260.25390625 302.734375 c 0,10,11
 243.1640625 277.34375 243.1640625 277.34375 239.2578125 246.58203125 c 0,12,-1
 233.88671875 204.58984375 l 0,13,14
 229.4921875 201.171875 229.4921875 201.171875 222.412109375 197.509765625 c 0,15,16
 215.33203125 193.84765625 215.33203125 193.84765625 207.275390625 190.673828125 c 0,17,18
 199.21875 187.5 199.21875 187.5 191.40625 184.5703125 c 0,19,20
 183.59375 181.640625 183.59375 181.640625 177.734375 179.6875 c 0,21,-1
 166.50390625 189.94140625 l 0,22,-1
 168.9453125 251.46484375 l 0,23,24
 170.41015625 281.73828125 170.41015625 281.73828125 181.396484375 308.10546875 c 0,25,26
 192.3828125 334.47265625 192.3828125 334.47265625 208.251953125 358.3984375 c 0,27,28
 224.12109375 382.32421875 224.12109375 382.32421875 242.431640625 404.78515625 c 0,29,30
 260.7421875 427.24609375 260.7421875 427.24609375 276.123046875 450.439453125 c 0,31,32
 291.50390625 473.6328125 291.50390625 473.6328125 301.7578125 498.291015625 c 0,33,34
 312.01171875 522.94921875 312.01171875 522.94921875 312.01171875 550.78125 c 0,35,36
 312.01171875 569.3359375 312.01171875 569.3359375 308.349609375 585.9375 c 0,37,38
 304.6875 602.5390625 304.6875 602.5390625 297.8515625 614.990234375 c 0,39,40
 291.015625 627.44140625 291.015625 627.44140625 280.517578125 634.765625 c 0,41,42
 270.01953125 642.08984375 270.01953125 642.08984375 256.34765625 642.08984375 c 0,43,44
 241.69921875 642.08984375 241.69921875 642.08984375 230.712890625 633.544921875 c 0,45,46
 219.7265625 625 219.7265625 625 213.37890625 609.86328125 c 0,47,48
 207.03125 594.7265625 207.03125 594.7265625 205.810546875 574.70703125 c 0,49,50
 204.58984375 554.6875 204.58984375 554.6875 208.984375 531.25 c 0,51,52
 198.2421875 526.3671875 198.2421875 526.3671875 181.396484375 520.751953125 c 0,53,54
 164.55078125 515.13671875 164.55078125 515.13671875 146.484375 510.498046875 c 0,55,56
 128.41796875 505.859375 128.41796875 505.859375 111.572265625 502.197265625 c 0,57,58
 94.7265625 498.53515625 94.7265625 498.53515625 83.984375 497.55859375 c 0,59,-1
 69.3359375 517.578125 l 0,60,61
 69.3359375 548.828125 69.3359375 548.828125 86.42578125 580.810546875 c 0,62,63
 103.515625 612.79296875 103.515625 612.79296875 134.27734375 638.916015625 c 0,64,65
 165.0390625 665.0390625 165.0390625 665.0390625 208.0078125 681.640625 c 0,66,67
 250.9765625 698.2421875 250.9765625 698.2421875 303.22265625 698.2421875 c 0,68,69
 337.890625 698.2421875 337.890625 698.2421875 364.990234375 688.96484375 c 0,70,71
 392.08984375 679.6875 392.08984375 679.6875 410.64453125 663.57421875 c 0,72,73
 429.19921875 647.4609375 429.19921875 647.4609375 438.96484375 625.732421875 c 0,74,75
 448.73046875 604.00390625 448.73046875 604.00390625 448.73046875 579.1015625 c 0,0,1
265.13671875 83.984375 m 0,76,77
 265.13671875 66.89453125 265.13671875 66.89453125 259.033203125 49.31640625 c 0,78,79
 252.9296875 31.73828125 252.9296875 31.73828125 240.72265625 17.578125 c 0,80,81
 228.515625 3.41796875 228.515625 3.41796875 210.44921875 -5.859375 c 0,82,83
 192.3828125 -15.13671875 192.3828125 -15.13671875 168.45703125 -15.13671875 c 0,84,85
 134.27734375 -15.13671875 134.27734375 -15.13671875 118.65234375 0.9765625 c 0,86,87
 103.02734375 17.08984375 103.02734375 17.08984375 103.02734375 42.96875 c 0,88,89
 103.02734375 59.08203125 103.02734375 59.08203125 109.86328125 76.171875 c 0,90,91
 116.69921875 93.26171875 116.69921875 93.26171875 129.150390625 107.421875 c 0,92,93
 141.6015625 121.58203125 141.6015625 121.58203125 159.66796875 130.615234375 c 0,94,95
 177.734375 139.6484375 177.734375 139.6484375 200.68359375 139.6484375 c 0,96,97
 233.3984375 139.6484375 233.3984375 139.6484375 249.267578125 123.779296875 c 0,98,99
 265.13671875 107.91015625 265.13671875 107.91015625 265.13671875 83.984375 c 0,76,77
EndSplineSet
EndChar

StartChar: at
Encoding: 35 64 35
Width: 844
VWidth: 488
Flags: W
LayerCount: 2
Fore
SplineSet
810.05859375 268.06640625 m 0,0,1
 804.19921875 225.5859375 804.19921875 225.5859375 786.865234375 187.98828125 c 0,2,3
 769.53125 150.390625 769.53125 150.390625 745.361328125 118.408203125 c 0,4,5
 721.19140625 86.42578125 721.19140625 86.42578125 692.3828125 60.791015625 c 0,6,7
 663.57421875 35.15625 663.57421875 35.15625 634.765625 17.08984375 c 0,8,9
 605.95703125 -0.9765625 605.95703125 -0.9765625 579.58984375 -10.498046875 c 0,10,11
 553.22265625 -20.01953125 553.22265625 -20.01953125 534.1796875 -20.01953125 c 0,12,13
 526.85546875 -20.01953125 526.85546875 -20.01953125 516.845703125 -15.869140625 c 0,14,15
 506.8359375 -11.71875 506.8359375 -11.71875 496.826171875 -0.732421875 c 0,16,17
 486.81640625 10.25390625 486.81640625 10.25390625 478.02734375 29.541015625 c 0,18,19
 469.23828125 48.828125 469.23828125 48.828125 464.84375 79.1015625 c 0,20,21
 452.1484375 59.08203125 452.1484375 59.08203125 435.546875 41.015625 c 0,22,23
 418.9453125 22.94921875 418.9453125 22.94921875 400.87890625 9.27734375 c 0,24,25
 382.8125 -4.39453125 382.8125 -4.39453125 364.2578125 -12.20703125 c 0,26,27
 345.703125 -20.01953125 345.703125 -20.01953125 329.58984375 -20.01953125 c 0,28,29
 312.98828125 -20.01953125 312.98828125 -20.01953125 293.212890625 -10.7421875 c 0,30,31
 273.4375 -1.46484375 273.4375 -1.46484375 256.103515625 18.798828125 c 0,32,33
 238.76953125 39.0625 238.76953125 39.0625 227.294921875 71.044921875 c 0,34,35
 215.8203125 103.02734375 215.8203125 103.02734375 215.8203125 148.92578125 c 0,36,37
 215.8203125 187.5 215.8203125 187.5 225.5859375 224.365234375 c 0,38,39
 235.3515625 261.23046875 235.3515625 261.23046875 254.150390625 294.921875 c 0,40,41
 272.94921875 328.61328125 272.94921875 328.61328125 299.8046875 358.154296875 c 0,42,43
 326.66015625 387.6953125 326.66015625 387.6953125 361.328125 411.1328125 c 0,44,45
 374.51171875 419.921875 374.51171875 419.921875 392.578125 428.22265625 c 0,46,47
 410.64453125 436.5234375 410.64453125 436.5234375 429.931640625 442.87109375 c 0,48,49
 449.21875 449.21875 449.21875 449.21875 468.26171875 453.125 c 0,50,51
 487.3046875 457.03125 487.3046875 457.03125 502.9296875 457.03125 c 0,52,53
 522.94921875 457.03125 522.94921875 457.03125 542.236328125 448.2421875 c 0,54,55
 561.5234375 439.453125 561.5234375 439.453125 578.61328125 429.6875 c 0,56,57
 596.19140625 437.5 596.19140625 437.5 612.79296875 444.3359375 c 0,58,59
 629.39453125 451.171875 629.39453125 451.171875 642.08984375 457.03125 c 0,60,-1
 659.1796875 420.41015625 l 0,61,62
 650.87890625 413.57421875 650.87890625 413.57421875 645.01953125 408.203125 c 0,63,64
 639.16015625 402.83203125 639.16015625 402.83203125 634.765625 395.751953125 c 0,65,66
 630.37109375 388.671875 630.37109375 388.671875 627.197265625 378.41796875 c 0,67,68
 624.0234375 368.1640625 624.0234375 368.1640625 620.60546875 351.5625 c 0,69,70
 613.28125 316.40625 613.28125 316.40625 607.666015625 284.912109375 c 0,71,72
 602.05078125 253.41796875 602.05078125 253.41796875 598.388671875 227.05078125 c 0,73,74
 594.7265625 200.68359375 594.7265625 200.68359375 592.7734375 181.15234375 c 0,75,76
 590.8203125 161.62109375 590.8203125 161.62109375 590.8203125 150.87890625 c 0,77,78
 590.8203125 120.60546875 590.8203125 120.60546875 598.6328125 105.224609375 c 0,79,80
 606.4453125 89.84375 606.4453125 89.84375 618.1640625 89.84375 c 0,81,82
 643.06640625 89.84375 643.06640625 89.84375 661.865234375 127.9296875 c 0,83,84
 680.6640625 166.015625 680.6640625 166.015625 693.359375 249.0234375 c 0,85,86
 705.56640625 331.54296875 705.56640625 331.54296875 692.138671875 392.578125 c 0,87,88
 678.7109375 453.61328125 678.7109375 453.61328125 646.484375 493.65234375 c 0,89,90
 614.2578125 533.69140625 614.2578125 533.69140625 567.3828125 553.466796875 c 0,91,92
 520.5078125 573.2421875 520.5078125 573.2421875 466.30859375 573.2421875 c 0,93,94
 407.71484375 573.2421875 407.71484375 573.2421875 355.95703125 546.875 c 0,95,96
 304.19921875 520.5078125 304.19921875 520.5078125 263.916015625 475.5859375 c 0,97,98
 223.6328125 430.6640625 223.6328125 430.6640625 196.2890625 371.337890625 c 0,99,100
 168.9453125 312.01171875 168.9453125 312.01171875 159.66796875 246.09375 c 0,101,102
 151.3671875 187.01171875 151.3671875 187.01171875 158.203125 138.427734375 c 0,103,104
 165.0390625 89.84375 165.0390625 89.84375 183.10546875 51.26953125 c 0,105,106
 201.171875 12.6953125 201.171875 12.6953125 228.759765625 -15.869140625 c 0,107,108
 256.34765625 -44.43359375 256.34765625 -44.43359375 289.794921875 -63.232421875 c 0,109,110
 323.2421875 -82.03125 323.2421875 -82.03125 360.595703125 -91.30859375 c 0,111,112
 397.94921875 -100.5859375 397.94921875 -100.5859375 436.03515625 -100.5859375 c 0,113,114
 462.890625 -100.5859375 462.890625 -100.5859375 489.501953125 -95.458984375 c 0,115,116
 516.11328125 -90.33203125 516.11328125 -90.33203125 541.50390625 -82.03125 c 0,117,118
 566.89453125 -73.73046875 566.89453125 -73.73046875 590.087890625 -63.232421875 c 0,119,120
 613.28125 -52.734375 613.28125 -52.734375 633.056640625 -41.50390625 c 0,121,122
 652.83203125 -30.2734375 652.83203125 -30.2734375 668.45703125 -19.775390625 c 0,123,124
 684.08203125 -9.27734375 684.08203125 -9.27734375 694.3359375 -0.9765625 c 0,125,-1
 711.9140625 -52.24609375 l 0,126,127
 693.359375 -70.80078125 693.359375 -70.80078125 662.59765625 -93.505859375 c 0,128,129
 631.8359375 -116.2109375 631.8359375 -116.2109375 591.064453125 -136.23046875 c 0,130,131
 550.29296875 -156.25 550.29296875 -156.25 500.732421875 -169.677734375 c 0,132,133
 451.171875 -183.10546875 451.171875 -183.10546875 395.01953125 -183.10546875 c 0,134,135
 338.37890625 -183.10546875 338.37890625 -183.10546875 287.109375 -170.166015625 c 0,136,137
 235.83984375 -157.2265625 235.83984375 -157.2265625 192.138671875 -132.32421875 c 0,138,139
 148.4375 -107.421875 148.4375 -107.421875 114.2578125 -71.77734375 c 0,140,141
 80.078125 -36.1328125 80.078125 -36.1328125 58.349609375 9.521484375 c 0,142,143
 36.62109375 55.17578125 36.62109375 55.17578125 28.564453125 109.86328125 c 0,144,145
 20.5078125 164.55078125 20.5078125 164.55078125 29.296875 227.05078125 c 0,146,147
 37.109375 281.73828125 37.109375 281.73828125 58.10546875 334.716796875 c 0,148,149
 79.1015625 387.6953125 79.1015625 387.6953125 111.572265625 434.5703125 c 0,150,151
 144.04296875 481.4453125 144.04296875 481.4453125 186.5234375 521.240234375 c 0,152,153
 229.00390625 561.03515625 229.00390625 561.03515625 279.541015625 589.84375 c 0,154,155
 330.078125 618.65234375 330.078125 618.65234375 387.6953125 634.765625 c 0,156,157
 445.3125 650.87890625 445.3125 650.87890625 507.32421875 650.87890625 c 0,158,159
 577.63671875 650.87890625 577.63671875 650.87890625 638.671875 625.48828125 c 0,160,161
 699.70703125 600.09765625 699.70703125 600.09765625 742.1875 551.025390625 c 0,162,163
 784.66796875 501.953125 784.66796875 501.953125 803.955078125 430.6640625 c 0,164,165
 823.2421875 359.375 823.2421875 359.375 810.05859375 268.06640625 c 0,0,1
462.890625 163.0859375 m 0,166,167
 464.84375 182.12890625 464.84375 182.12890625 468.994140625 208.49609375 c 0,168,169
 473.14453125 234.86328125 473.14453125 234.86328125 477.5390625 262.20703125 c 0,170,171
 481.93359375 289.55078125 481.93359375 289.55078125 486.572265625 314.94140625 c 0,172,173
 491.2109375 340.33203125 491.2109375 340.33203125 494.140625 357.91015625 c 0,174,175
 482.91015625 367.67578125 482.91015625 367.67578125 471.19140625 374.51171875 c 0,176,177
 459.47265625 381.34765625 459.47265625 381.34765625 448.2421875 381.34765625 c 0,178,179
 429.6875 381.34765625 429.6875 381.34765625 414.55078125 372.0703125 c 0,180,181
 399.4140625 362.79296875 399.4140625 362.79296875 387.451171875 347.412109375 c 0,182,183
 375.48828125 332.03125 375.48828125 332.03125 366.943359375 312.01171875 c 0,184,185
 358.3984375 291.9921875 358.3984375 291.9921875 352.5390625 270.263671875 c 0,186,187
 346.6796875 248.53515625 346.6796875 248.53515625 343.994140625 226.318359375 c 0,188,189
 341.30859375 204.1015625 341.30859375 204.1015625 341.30859375 185.05859375 c 0,190,191
 341.30859375 159.1796875 341.30859375 159.1796875 344.7265625 140.380859375 c 0,192,193
 348.14453125 121.58203125 348.14453125 121.58203125 353.271484375 109.375 c 0,194,195
 358.3984375 97.16796875 358.3984375 97.16796875 364.2578125 91.552734375 c 0,196,197
 370.1171875 85.9375 370.1171875 85.9375 375 85.9375 c 0,198,199
 381.34765625 85.9375 381.34765625 85.9375 389.892578125 89.84375 c 0,200,201
 398.4375 93.75 398.4375 93.75 409.423828125 102.5390625 c 0,202,203
 420.41015625 111.328125 420.41015625 111.328125 433.837890625 126.220703125 c 0,204,205
 447.265625 141.11328125 447.265625 141.11328125 462.890625 163.0859375 c 0,166,167
EndSplineSet
EndChar

StartChar: A
Encoding: 36 65 36
Width: 590
VWidth: 488
Flags: W
LayerCount: 2
Fore
SplineSet
347.65625 270.99609375 m 0,0,-1
 304.19921875 489.74609375 l 0,1,-1
 209.47265625 270.99609375 l 0,2,-1
 347.65625 270.99609375 l 0,0,-1
181.15234375 207.03125 m 0,3,-1
 121.58203125 73.73046875 l 0,4,5
 115.234375 58.59375 115.234375 58.59375 129.39453125 51.7578125 c 0,6,7
 143.5546875 44.921875 143.5546875 44.921875 180.17578125 40.52734375 c 0,8,-1
 174.8046875 0 l 0,9,-1
 -26.85546875 0 l 0,10,-1
 -21.484375 40.52734375 l 0,11,12
 10.25390625 46.38671875 10.25390625 46.38671875 27.099609375 52.734375 c 0,13,14
 43.9453125 59.08203125 43.9453125 59.08203125 50.29296875 73.73046875 c 0,15,-1
 275.390625 584.47265625 l 0,16,17
 289.55078125 595.703125 289.55078125 595.703125 305.419921875 604.736328125 c 0,18,19
 321.2890625 613.76953125 321.2890625 613.76953125 337.646484375 621.09375 c 0,20,21
 354.00390625 628.41796875 354.00390625 628.41796875 370.1171875 633.7890625 c 0,22,23
 386.23046875 639.16015625 386.23046875 639.16015625 400.390625 643.06640625 c 0,24,-1
 512.6953125 73.73046875 l 0,25,26
 514.16015625 66.89453125 514.16015625 66.89453125 516.845703125 61.5234375 c 0,27,28
 519.53125 56.15234375 519.53125 56.15234375 524.90234375 52.24609375 c 0,29,30
 530.2734375 48.33984375 530.2734375 48.33984375 539.55078125 45.41015625 c 0,31,32
 548.828125 42.48046875 548.828125 42.48046875 563.4765625 40.52734375 c 0,33,-1
 558.10546875 0 l 0,34,-1
 320.80078125 0 l 0,35,-1
 326.171875 40.52734375 l 0,36,37
 361.81640625 42.96875 361.81640625 42.96875 375.244140625 50.29296875 c 0,38,39
 388.671875 57.6171875 388.671875 57.6171875 385.7421875 73.73046875 c 0,40,-1
 359.86328125 207.03125 l 0,41,-1
 181.15234375 207.03125 l 0,3,-1
EndSplineSet
EndChar

StartChar: B
Encoding: 37 66 37
Width: 543
VWidth: 488
Flags: W
LayerCount: 2
Fore
SplineSet
514.6484375 200.1953125 m 0,0,1
 514.6484375 152.34375 514.6484375 152.34375 493.65234375 112.79296875 c 0,2,3
 472.65625 73.2421875 472.65625 73.2421875 436.279296875 44.921875 c 0,4,5
 399.90234375 16.6015625 399.90234375 16.6015625 350.5859375 0.732421875 c 0,6,7
 301.26953125 -15.13671875 301.26953125 -15.13671875 244.62890625 -15.13671875 c 0,8,9
 234.86328125 -15.13671875 234.86328125 -15.13671875 219.970703125 -14.6484375 c 0,10,11
 205.078125 -14.16015625 205.078125 -14.16015625 187.5 -12.939453125 c 0,12,13
 169.921875 -11.71875 169.921875 -11.71875 150.87890625 -10.498046875 c 0,14,15
 131.8359375 -9.27734375 131.8359375 -9.27734375 113.76953125 -7.8125 c 0,16,17
 70.80078125 -4.39453125 70.80078125 -4.39453125 22.4609375 0 c 0,18,-1
 -4.8828125 0 l 0,19,-1
 -1.953125 40.52734375 l 0,20,21
 28.80859375 47.36328125 28.80859375 47.36328125 44.921875 55.419921875 c 0,22,23
 61.03515625 63.4765625 61.03515625 63.4765625 62.01171875 70.3125 c 0,24,-1
 131.34765625 566.40625 l 0,25,26
 111.81640625 563.96484375 111.81640625 563.96484375 95.458984375 560.791015625 c 0,27,28
 79.1015625 557.6171875 79.1015625 557.6171875 63.96484375 554.19921875 c 0,29,-1
 63.96484375 599.12109375 l 0,30,31
 86.42578125 605.46875 86.42578125 605.46875 113.76953125 611.083984375 c 0,32,33
 141.11328125 616.69921875 141.11328125 616.69921875 171.630859375 620.849609375 c 0,34,35
 202.1484375 625 202.1484375 625 235.107421875 627.44140625 c 0,36,37
 268.06640625 629.8828125 268.06640625 629.8828125 301.7578125 629.8828125 c 0,38,39
 409.1796875 629.8828125 409.1796875 629.8828125 460.44921875 597.412109375 c 0,40,41
 511.71875 564.94140625 511.71875 564.94140625 511.71875 507.8125 c 0,42,43
 511.71875 456.54296875 511.71875 456.54296875 479.98046875 416.015625 c 0,44,45
 448.2421875 375.48828125 448.2421875 375.48828125 384.27734375 353.02734375 c 0,46,47
 412.59765625 349.609375 412.59765625 349.609375 436.767578125 336.181640625 c 0,48,49
 460.9375 322.75390625 460.9375 322.75390625 478.02734375 302.24609375 c 0,50,51
 495.1171875 281.73828125 495.1171875 281.73828125 504.8828125 255.615234375 c 0,52,53
 514.6484375 229.4921875 514.6484375 229.4921875 514.6484375 200.1953125 c 0,0,1
272.4609375 307.12890625 m 0,54,55
 262.20703125 307.12890625 262.20703125 307.12890625 254.8828125 306.640625 c 0,56,57
 247.55859375 306.15234375 247.55859375 306.15234375 241.943359375 305.17578125 c 0,58,59
 236.328125 304.19921875 236.328125 304.19921875 231.4453125 303.22265625 c 0,60,61
 226.5625 302.24609375 226.5625 302.24609375 221.6796875 300.78125 c 0,62,-1
 189.453125 70.3125 l 0,63,64
 187.98828125 65.91796875 187.98828125 65.91796875 197.265625 59.08203125 c 0,65,66
 212.890625 51.26953125 212.890625 51.26953125 230.224609375 48.33984375 c 0,67,68
 247.55859375 45.41015625 247.55859375 45.41015625 267.08984375 45.41015625 c 0,69,70
 294.921875 45.41015625 294.921875 45.41015625 316.162109375 55.908203125 c 0,71,72
 337.40234375 66.40625 337.40234375 66.40625 351.5625 84.716796875 c 0,73,74
 365.72265625 103.02734375 365.72265625 103.02734375 372.802734375 128.173828125 c 0,75,76
 379.8828125 153.3203125 379.8828125 153.3203125 379.8828125 183.10546875 c 0,77,78
 379.8828125 207.51953125 379.8828125 207.51953125 374.755859375 229.98046875 c 0,79,80
 369.62890625 252.44140625 369.62890625 252.44140625 357.177734375 269.53125 c 0,81,82
 344.7265625 286.62109375 344.7265625 286.62109375 323.974609375 296.875 c 0,83,84
 303.22265625 307.12890625 303.22265625 307.12890625 272.4609375 307.12890625 c 0,54,55
260.25390625 574.21875 m 0,85,-1
 230.46875 363.76953125 l 0,86,-1
 246.58203125 363.76953125 l 0,87,88
 269.53125 363.76953125 269.53125 363.76953125 292.724609375 370.60546875 c 0,89,90
 315.91796875 377.44140625 315.91796875 377.44140625 334.716796875 391.845703125 c 0,91,92
 353.515625 406.25 353.515625 406.25 365.234375 428.7109375 c 0,93,94
 376.953125 451.171875 376.953125 451.171875 376.953125 481.93359375 c 0,95,96
 376.953125 508.30078125 376.953125 508.30078125 367.919921875 525.87890625 c 0,97,98
 358.88671875 543.45703125 358.88671875 543.45703125 344.7265625 554.19921875 c 0,99,100
 330.56640625 564.94140625 330.56640625 564.94140625 312.98828125 569.580078125 c 0,101,102
 295.41015625 574.21875 295.41015625 574.21875 278.80859375 574.21875 c 0,103,-1
 260.25390625 574.21875 l 0,85,-1
EndSplineSet
EndChar

StartChar: C
Encoding: 38 67 38
Width: 515
VWidth: 488
Flags: W
LayerCount: 2
Fore
SplineSet
535.15625 581.0546875 m 0,0,1
 536.1328125 579.58984375 536.1328125 579.58984375 532.958984375 571.2890625 c 0,2,3
 529.78515625 562.98828125 529.78515625 562.98828125 523.92578125 551.025390625 c 0,4,5
 518.06640625 539.0625 518.06640625 539.0625 510.498046875 525.146484375 c 0,6,7
 502.9296875 511.23046875 502.9296875 511.23046875 495.1171875 498.53515625 c 0,8,9
 487.3046875 485.83984375 487.3046875 485.83984375 480.46875 475.830078125 c 0,10,11
 473.6328125 465.8203125 473.6328125 465.8203125 469.23828125 462.40234375 c 0,12,-1
 435.05859375 471.19140625 l 0,13,14
 429.6875 488.28125 429.6875 488.28125 420.8984375 504.39453125 c 0,15,16
 412.109375 520.5078125 412.109375 520.5078125 399.658203125 533.203125 c 0,17,18
 387.20703125 545.8984375 387.20703125 545.8984375 371.09375 553.466796875 c 0,19,20
 354.98046875 561.03515625 354.98046875 561.03515625 334.9609375 561.03515625 c 0,21,22
 315.4296875 561.03515625 315.4296875 561.03515625 299.560546875 556.640625 c 0,23,24
 283.69140625 552.24609375 283.69140625 552.24609375 264.16015625 537.109375 c 0,25,26
 233.3984375 513.18359375 233.3984375 513.18359375 213.134765625 477.05078125 c 0,27,28
 192.87109375 440.91796875 192.87109375 440.91796875 181.15234375 401.123046875 c 0,29,30
 169.43359375 361.328125 169.43359375 361.328125 164.55078125 322.021484375 c 0,31,32
 159.66796875 282.71484375 159.66796875 282.71484375 159.66796875 251.953125 c 0,33,34
 159.66796875 198.73046875 159.66796875 198.73046875 173.095703125 164.0625 c 0,35,36
 186.5234375 129.39453125 186.5234375 129.39453125 206.54296875 108.88671875 c 0,37,38
 226.5625 88.37890625 226.5625 88.37890625 250.244140625 80.078125 c 0,39,40
 273.92578125 71.77734375 273.92578125 71.77734375 294.43359375 71.2890625 c 0,41,42
 306.15234375 71.2890625 306.15234375 71.2890625 321.77734375 73.73046875 c 0,43,44
 337.40234375 76.171875 337.40234375 76.171875 357.177734375 83.49609375 c 0,45,46
 376.953125 90.8203125 376.953125 90.8203125 402.099609375 104.248046875 c 0,47,48
 427.24609375 117.67578125 427.24609375 117.67578125 458.0078125 139.6484375 c 0,49,50
 460.44921875 138.671875 460.44921875 138.671875 463.37890625 133.30078125 c 0,51,52
 466.30859375 127.9296875 466.30859375 127.9296875 468.994140625 121.58203125 c 0,53,54
 471.6796875 115.234375 471.6796875 115.234375 473.876953125 109.86328125 c 0,55,56
 476.07421875 104.4921875 476.07421875 104.4921875 477.05078125 103.02734375 c 0,57,58
 443.84765625 70.3125 443.84765625 70.3125 410.888671875 48.095703125 c 0,59,60
 377.9296875 25.87890625 377.9296875 25.87890625 347.16796875 12.20703125 c 0,61,62
 316.40625 -1.46484375 316.40625 -1.46484375 288.57421875 -7.32421875 c 0,63,64
 260.7421875 -13.18359375 260.7421875 -13.18359375 237.79296875 -13.18359375 c 0,65,66
 193.84765625 -13.18359375 193.84765625 -13.18359375 155.2734375 2.685546875 c 0,67,68
 116.69921875 18.5546875 116.69921875 18.5546875 88.37890625 48.828125 c 0,69,70
 60.05859375 79.1015625 60.05859375 79.1015625 43.701171875 123.291015625 c 0,71,72
 27.34375 167.48046875 27.34375 167.48046875 27.34375 224.12109375 c 0,73,74
 27.34375 270.01953125 27.34375 270.01953125 37.109375 317.626953125 c 0,75,76
 46.875 365.234375 46.875 365.234375 66.89453125 410.400390625 c 0,77,78
 86.9140625 455.56640625 86.9140625 455.56640625 117.431640625 496.337890625 c 0,79,80
 147.94921875 537.109375 147.94921875 537.109375 188.96484375 569.82421875 c 0,81,82
 206.54296875 583.49609375 206.54296875 583.49609375 229.00390625 594.7265625 c 0,83,84
 251.46484375 605.95703125 251.46484375 605.95703125 275.634765625 613.76953125 c 0,85,86
 299.8046875 621.58203125 299.8046875 621.58203125 324.70703125 625.732421875 c 0,87,88
 349.609375 629.8828125 349.609375 629.8828125 372.55859375 629.8828125 c 0,89,90
 396.484375 629.8828125 396.484375 629.8828125 420.8984375 625.9765625 c 0,91,92
 445.3125 622.0703125 445.3125 622.0703125 467.28515625 615.478515625 c 0,93,94
 489.2578125 608.88671875 489.2578125 608.88671875 506.8359375 600.09765625 c 0,95,96
 524.4140625 591.30859375 524.4140625 591.30859375 535.15625 581.0546875 c 0,0,1
EndSplineSet
EndChar

StartChar: D
Encoding: 39 68 39
Width: 604
VWidth: 488
Flags: W
LayerCount: 2
Fore
SplineSet
594.23828125 368.65234375 m 0,0,1
 594.23828125 325.68359375 594.23828125 325.68359375 583.49609375 281.73828125 c 0,2,3
 572.75390625 237.79296875 572.75390625 237.79296875 552.001953125 196.77734375 c 0,4,5
 531.25 155.76171875 531.25 155.76171875 501.708984375 119.873046875 c 0,6,7
 472.16796875 83.984375 472.16796875 83.984375 434.326171875 57.373046875 c 0,8,9
 396.484375 30.76171875 396.484375 30.76171875 351.318359375 15.380859375 c 0,10,11
 306.15234375 0 306.15234375 0 254.39453125 0 c 0,12,-1
 -4.8828125 0 l 0,13,-1
 0 40.52734375 l 0,14,15
 30.76171875 47.36328125 30.76171875 47.36328125 46.875 55.419921875 c 0,16,17
 62.98828125 63.4765625 62.98828125 63.4765625 63.96484375 70.3125 c 0,18,-1
 131.8359375 560.546875 l 0,19,-1
 64.94140625 549.8046875 l 0,20,-1
 64.94140625 600.09765625 l 0,21,22
 92.7734375 606.93359375 92.7734375 606.93359375 124.51171875 612.3046875 c 0,23,24
 156.25 617.67578125 156.25 617.67578125 187.98828125 621.58203125 c 0,25,26
 219.7265625 625.48828125 219.7265625 625.48828125 250.244140625 627.685546875 c 0,27,28
 280.76171875 629.8828125 280.76171875 629.8828125 305.6640625 629.8828125 c 0,29,30
 381.34765625 629.8828125 381.34765625 629.8828125 435.791015625 611.81640625 c 0,31,32
 490.234375 593.75 490.234375 593.75 525.390625 559.814453125 c 0,33,34
 560.546875 525.87890625 560.546875 525.87890625 577.392578125 477.5390625 c 0,35,36
 594.23828125 429.19921875 594.23828125 429.19921875 594.23828125 368.65234375 c 0,0,1
290.0390625 574.21875 m 0,37,38
 282.71484375 574.21875 282.71484375 574.21875 275.390625 573.2421875 c 0,39,40
 268.06640625 572.265625 268.06640625 572.265625 260.7421875 571.77734375 c 0,41,-1
 194.82421875 82.51953125 l 0,42,43
 192.87109375 68.359375 192.87109375 68.359375 205.56640625 62.01171875 c 0,44,45
 218.26171875 55.6640625 218.26171875 55.6640625 251.46484375 55.6640625 c 0,46,47
 284.1796875 55.6640625 284.1796875 55.6640625 312.255859375 68.359375 c 0,48,49
 340.33203125 81.0546875 340.33203125 81.0546875 363.28125 102.783203125 c 0,50,51
 386.23046875 124.51171875 386.23046875 124.51171875 403.564453125 153.80859375 c 0,52,53
 420.8984375 183.10546875 420.8984375 183.10546875 432.6171875 216.30859375 c 0,54,55
 444.3359375 249.51171875 444.3359375 249.51171875 450.439453125 285.15625 c 0,56,57
 456.54296875 320.80078125 456.54296875 320.80078125 456.54296875 354.98046875 c 0,58,59
 456.54296875 407.2265625 456.54296875 407.2265625 447.75390625 447.998046875 c 0,60,61
 438.96484375 488.76953125 438.96484375 488.76953125 419.189453125 516.845703125 c 0,62,63
 399.4140625 544.921875 399.4140625 544.921875 367.67578125 559.5703125 c 0,64,65
 335.9375 574.21875 335.9375 574.21875 290.0390625 574.21875 c 0,37,38
EndSplineSet
EndChar

StartChar: E
Encoding: 40 69 40
Width: 502
VWidth: 488
Flags: W
LayerCount: 2
Fore
SplineSet
477.05078125 158.203125 m 0,0,1
 472.65625 137.20703125 472.65625 137.20703125 466.796875 112.548828125 c 0,2,3
 460.9375 87.890625 460.9375 87.890625 455.322265625 65.185546875 c 0,4,5
 449.70703125 42.48046875 449.70703125 42.48046875 444.82421875 24.90234375 c 0,6,7
 439.94140625 7.32421875 439.94140625 7.32421875 437.01171875 0 c 0,8,-1
 -4.8828125 0 l 0,9,-1
 0.48828125 40.52734375 l 0,10,11
 32.2265625 47.36328125 32.2265625 47.36328125 48.583984375 55.419921875 c 0,12,13
 64.94140625 63.4765625 64.94140625 63.4765625 65.91796875 70.3125 c 0,14,-1
 130.859375 544.43359375 l 0,15,16
 131.8359375 550.29296875 131.8359375 550.29296875 118.65234375 559.08203125 c 0,17,18
 105.46875 567.87109375 105.46875 567.87109375 73.73046875 574.70703125 c 0,19,-1
 79.1015625 615.234375 l 0,20,-1
 490.72265625 615.234375 l 0,21,-1
 507.8125 598.14453125 l 0,22,23
 505.37109375 585.44921875 505.37109375 585.44921875 500.732421875 564.94140625 c 0,24,25
 496.09375 544.43359375 496.09375 544.43359375 490.478515625 522.94921875 c 0,26,27
 484.86328125 501.46484375 484.86328125 501.46484375 479.248046875 482.421875 c 0,28,29
 473.6328125 463.37890625 473.6328125 463.37890625 469.7265625 454.1015625 c 0,30,-1
 431.15234375 454.1015625 l 0,31,32
 435.05859375 499.51171875 435.05859375 499.51171875 429.443359375 525.634765625 c 0,33,34
 423.828125 551.7578125 423.828125 551.7578125 406.73828125 551.7578125 c 0,35,-1
 258.7890625 551.7578125 l 0,36,-1
 232.421875 358.88671875 l 0,37,-1
 411.62109375 358.88671875 l 0,38,-1
 425.78125 340.33203125 l 0,39,40
 421.38671875 333.49609375 421.38671875 333.49609375 414.794921875 323.73046875 c 0,41,42
 408.203125 313.96484375 408.203125 313.96484375 401.123046875 303.955078125 c 0,43,44
 394.04296875 293.9453125 394.04296875 293.9453125 386.962890625 285.64453125 c 0,45,46
 379.8828125 277.34375 379.8828125 277.34375 374.51171875 273.4375 c 0,47,48
 368.65234375 280.76171875 368.65234375 280.76171875 361.572265625 285.64453125 c 0,49,50
 354.4921875 290.52734375 354.4921875 290.52734375 344.7265625 293.9453125 c 0,51,52
 334.9609375 297.36328125 334.9609375 297.36328125 321.2890625 298.828125 c 0,53,54
 307.6171875 300.29296875 307.6171875 300.29296875 288.57421875 300.29296875 c 0,55,-1
 224.12109375 300.29296875 l 0,56,-1
 196.2890625 94.7265625 l 0,57,58
 195.3125 87.40234375 195.3125 87.40234375 197.75390625 81.787109375 c 0,59,60
 200.1953125 76.171875 200.1953125 76.171875 209.47265625 72.021484375 c 0,61,62
 218.75 67.87109375 218.75 67.87109375 236.572265625 65.673828125 c 0,63,64
 254.39453125 63.4765625 254.39453125 63.4765625 284.66796875 63.4765625 c 0,65,-1
 325.1953125 63.4765625 l 0,66,67
 346.19140625 63.4765625 346.19140625 63.4765625 361.81640625 69.580078125 c 0,68,69
 377.44140625 75.68359375 377.44140625 75.68359375 390.625 88.8671875 c 0,70,71
 403.80859375 102.05078125 403.80859375 102.05078125 415.771484375 122.55859375 c 0,72,73
 427.734375 143.06640625 427.734375 143.06640625 441.40625 171.875 c 0,74,-1
 477.05078125 158.203125 l 0,0,1
EndSplineSet
EndChar

StartChar: F
Encoding: 41 70 41
Width: 475
VWidth: 488
Flags: W
LayerCount: 2
Fore
SplineSet
413.0859375 340.33203125 m 0,0,1
 407.71484375 331.54296875 407.71484375 331.54296875 400.87890625 321.533203125 c 0,2,3
 394.04296875 311.5234375 394.04296875 311.5234375 387.20703125 302.001953125 c 0,4,5
 380.37109375 292.48046875 380.37109375 292.48046875 373.53515625 284.912109375 c 0,6,7
 366.69921875 277.34375 366.69921875 277.34375 361.328125 273.4375 c 0,8,9
 355.46875 280.76171875 355.46875 280.76171875 348.6328125 285.64453125 c 0,10,11
 341.796875 290.52734375 341.796875 290.52734375 331.787109375 293.9453125 c 0,12,13
 321.77734375 297.36328125 321.77734375 297.36328125 308.10546875 298.828125 c 0,14,15
 294.43359375 300.29296875 294.43359375 300.29296875 275.390625 300.29296875 c 0,16,-1
 224.12109375 300.29296875 l 0,17,-1
 192.87109375 70.3125 l 0,18,19
 192.3828125 67.3828125 192.3828125 67.3828125 195.3125 63.96484375 c 0,20,21
 198.2421875 60.546875 198.2421875 60.546875 206.298828125 56.884765625 c 0,22,23
 214.35546875 53.22265625 214.35546875 53.22265625 228.271484375 49.072265625 c 0,24,25
 242.1875 44.921875 242.1875 44.921875 264.16015625 40.52734375 c 0,26,-1
 258.7890625 0 l 0,27,-1
 -4.8828125 0 l 0,28,-1
 0.48828125 40.52734375 l 0,29,30
 32.2265625 47.36328125 32.2265625 47.36328125 48.583984375 55.419921875 c 0,31,32
 64.94140625 63.4765625 64.94140625 63.4765625 65.91796875 70.3125 c 0,33,-1
 130.859375 544.43359375 l 0,34,35
 131.8359375 550.29296875 131.8359375 550.29296875 118.65234375 559.08203125 c 0,36,37
 105.46875 567.87109375 105.46875 567.87109375 73.73046875 574.70703125 c 0,38,-1
 79.1015625 615.234375 l 0,39,-1
 495.1171875 615.234375 l 0,40,-1
 511.23046875 598.14453125 l 0,41,42
 509.27734375 585.44921875 509.27734375 585.44921875 504.638671875 564.94140625 c 0,43,44
 500 544.43359375 500 544.43359375 494.62890625 522.94921875 c 0,45,46
 489.2578125 501.46484375 489.2578125 501.46484375 483.642578125 482.421875 c 0,47,48
 478.02734375 463.37890625 478.02734375 463.37890625 474.12109375 454.1015625 c 0,49,-1
 434.5703125 454.1015625 l 0,50,51
 439.453125 499.51171875 439.453125 499.51171875 433.59375 525.634765625 c 0,52,53
 427.734375 551.7578125 427.734375 551.7578125 410.64453125 551.7578125 c 0,54,-1
 258.7890625 551.7578125 l 0,55,-1
 232.421875 358.88671875 l 0,56,-1
 397.94921875 358.88671875 l 0,57,-1
 413.0859375 340.33203125 l 0,0,1
EndSplineSet
EndChar

StartChar: G
Encoding: 42 71 42
Width: 554
VWidth: 488
Flags: W
LayerCount: 2
Fore
SplineSet
556.640625 268.06640625 m 0,0,1
 530.2734375 260.25390625 530.2734375 260.25390625 518.5546875 249.755859375 c 0,2,3
 506.8359375 239.2578125 506.8359375 239.2578125 505.37109375 228.02734375 c 0,4,5
 503.41796875 214.84375 503.41796875 214.84375 500.9765625 194.3359375 c 0,6,7
 498.53515625 173.828125 498.53515625 173.828125 495.849609375 152.587890625 c 0,8,9
 493.1640625 131.34765625 493.1640625 131.34765625 490.966796875 112.79296875 c 0,10,11
 488.76953125 94.23828125 488.76953125 94.23828125 487.79296875 84.9609375 c 0,12,13
 450.68359375 55.17578125 450.68359375 55.17578125 417.96875 35.888671875 c 0,14,15
 385.25390625 16.6015625 385.25390625 16.6015625 356.689453125 5.126953125 c 0,16,17
 328.125 -6.34765625 328.125 -6.34765625 303.7109375 -10.7421875 c 0,18,19
 279.296875 -15.13671875 279.296875 -15.13671875 259.765625 -15.13671875 c 0,20,21
 213.8671875 -15.13671875 213.8671875 -15.13671875 171.875 2.685546875 c 0,22,23
 129.8828125 20.5078125 129.8828125 20.5078125 97.65625 53.955078125 c 0,24,25
 65.4296875 87.40234375 65.4296875 87.40234375 46.38671875 134.765625 c 0,26,27
 27.34375 182.12890625 27.34375 182.12890625 27.34375 240.72265625 c 0,28,29
 27.34375 287.109375 27.34375 287.109375 37.841796875 331.54296875 c 0,30,31
 48.33984375 375.9765625 48.33984375 375.9765625 67.3828125 416.015625 c 0,32,33
 86.42578125 456.0546875 86.42578125 456.0546875 112.79296875 490.966796875 c 0,34,35
 139.16015625 525.87890625 139.16015625 525.87890625 171.38671875 553.22265625 c 0,36,37
 192.3828125 571.2890625 192.3828125 571.2890625 215.33203125 585.44921875 c 0,38,39
 238.28125 599.609375 238.28125 599.609375 265.13671875 609.375 c 0,40,41
 291.9921875 619.140625 291.9921875 619.140625 323.2421875 624.51171875 c 0,42,43
 354.4921875 629.8828125 354.4921875 629.8828125 392.08984375 629.8828125 c 0,44,45
 410.15625 629.8828125 410.15625 629.8828125 433.10546875 626.46484375 c 0,46,47
 456.0546875 623.046875 456.0546875 623.046875 478.759765625 616.69921875 c 0,48,49
 501.46484375 610.3515625 501.46484375 610.3515625 521.484375 601.07421875 c 0,50,51
 541.50390625 591.796875 541.50390625 591.796875 554.19921875 580.078125 c 0,52,53
 556.15234375 578.125 556.15234375 578.125 553.22265625 569.82421875 c 0,54,55
 550.29296875 561.5234375 550.29296875 561.5234375 544.43359375 549.8046875 c 0,56,57
 538.57421875 538.0859375 538.57421875 538.0859375 530.517578125 524.169921875 c 0,58,59
 522.4609375 510.25390625 522.4609375 510.25390625 514.404296875 497.802734375 c 0,60,61
 506.34765625 485.3515625 506.34765625 485.3515625 499.0234375 475.5859375 c 0,62,63
 491.69921875 465.8203125 491.69921875 465.8203125 487.3046875 462.40234375 c 0,64,-1
 454.1015625 470.21484375 l 0,65,66
 446.77734375 489.2578125 446.77734375 489.2578125 436.767578125 506.591796875 c 0,67,68
 426.7578125 523.92578125 426.7578125 523.92578125 412.59765625 537.353515625 c 0,69,70
 398.4375 550.78125 398.4375 550.78125 379.39453125 558.837890625 c 0,71,72
 360.3515625 566.89453125 360.3515625 566.89453125 335.44921875 566.89453125 c 0,73,74
 312.98828125 566.89453125 312.98828125 566.89453125 289.55078125 555.6640625 c 0,75,76
 266.11328125 544.43359375 266.11328125 544.43359375 242.1875 520.01953125 c 0,77,78
 225.09765625 502.44140625 225.09765625 502.44140625 209.716796875 472.65625 c 0,79,80
 194.3359375 442.87109375 194.3359375 442.87109375 183.10546875 407.470703125 c 0,81,82
 171.875 372.0703125 171.875 372.0703125 165.283203125 333.984375 c 0,83,84
 158.69140625 295.8984375 158.69140625 295.8984375 158.69140625 261.71875 c 0,85,86
 158.69140625 209.47265625 158.69140625 209.47265625 171.38671875 172.607421875 c 0,87,88
 184.08203125 135.7421875 184.08203125 135.7421875 204.1015625 112.3046875 c 0,89,90
 224.12109375 88.8671875 224.12109375 88.8671875 248.779296875 78.125 c 0,91,92
 273.4375 67.3828125 273.4375 67.3828125 297.8515625 67.3828125 c 0,93,94
 311.03515625 67.3828125 311.03515625 67.3828125 328.369140625 70.3125 c 0,95,96
 345.703125 73.2421875 345.703125 73.2421875 362.79296875 85.9375 c 0,97,-1
 383.7890625 228.02734375 l 0,98,99
 384.27734375 232.91015625 384.27734375 232.91015625 382.568359375 237.79296875 c 0,100,101
 380.859375 242.67578125 380.859375 242.67578125 370.849609375 247.55859375 c 0,102,103
 360.83984375 252.44140625 360.83984375 252.44140625 340.087890625 257.32421875 c 0,104,105
 319.3359375 262.20703125 319.3359375 262.20703125 282.71484375 268.06640625 c 0,106,-1
 285.64453125 308.59375 l 0,107,-1
 559.5703125 308.59375 l 0,108,-1
 556.640625 268.06640625 l 0,0,1
EndSplineSet
EndChar

StartChar: H
Encoding: 43 72 43
Width: 648
VWidth: 488
Flags: W
LayerCount: 2
Fore
SplineSet
323.73046875 574.70703125 m 0,0,1
 291.50390625 567.87109375 291.50390625 567.87109375 275.146484375 559.5703125 c 0,2,3
 258.7890625 551.26953125 258.7890625 551.26953125 257.8125 544.43359375 c 0,4,-1
 231.4453125 354.00390625 l 0,5,-1
 454.1015625 354.00390625 l 0,6,-1
 480.46875 544.43359375 l 0,7,8
 480.95703125 550.29296875 480.95703125 550.29296875 468.017578125 559.08203125 c 0,9,10
 455.078125 567.87109375 455.078125 567.87109375 423.33984375 574.70703125 c 0,11,-1
 428.7109375 615.234375 l 0,12,-1
 678.7109375 615.234375 l 0,13,-1
 673.33984375 574.70703125 l 0,14,15
 641.11328125 567.87109375 641.11328125 567.87109375 624.755859375 559.5703125 c 0,16,17
 608.3984375 551.26953125 608.3984375 551.26953125 607.421875 544.43359375 c 0,18,-1
 542.48046875 70.3125 l 0,19,20
 541.50390625 64.453125 541.50390625 64.453125 554.6875 55.908203125 c 0,21,22
 567.87109375 47.36328125 567.87109375 47.36328125 600.09765625 40.52734375 c 0,23,-1
 594.7265625 0 l 0,24,-1
 344.7265625 0 l 0,25,-1
 350.09765625 40.52734375 l 0,26,27
 381.8359375 47.36328125 381.8359375 47.36328125 398.193359375 55.419921875 c 0,28,29
 414.55078125 63.4765625 414.55078125 63.4765625 415.52734375 70.3125 c 0,30,-1
 445.80078125 290.52734375 l 0,31,-1
 223.14453125 290.52734375 l 0,32,-1
 192.87109375 70.3125 l 0,33,34
 191.89453125 64.453125 191.89453125 64.453125 204.833984375 55.908203125 c 0,35,36
 217.7734375 47.36328125 217.7734375 47.36328125 250.48828125 40.52734375 c 0,37,-1
 245.1171875 0 l 0,38,-1
 -4.8828125 0 l 0,39,-1
 0.48828125 40.52734375 l 0,40,41
 32.2265625 47.36328125 32.2265625 47.36328125 48.583984375 55.419921875 c 0,42,43
 64.94140625 63.4765625 64.94140625 63.4765625 65.91796875 70.3125 c 0,44,-1
 130.859375 544.43359375 l 0,45,46
 131.8359375 550.29296875 131.8359375 550.29296875 118.65234375 559.08203125 c 0,47,48
 105.46875 567.87109375 105.46875 567.87109375 73.73046875 574.70703125 c 0,49,-1
 79.1015625 615.234375 l 0,50,-1
 329.1015625 615.234375 l 0,51,-1
 323.73046875 574.70703125 l 0,0,1
EndSplineSet
EndChar

StartChar: I
Encoding: 44 73 44
Width: 318
VWidth: 488
Flags: W
LayerCount: 2
Fore
SplineSet
333.0078125 574.70703125 m 0,0,1
 301.26953125 567.87109375 301.26953125 567.87109375 284.912109375 559.5703125 c 0,2,3
 268.5546875 551.26953125 268.5546875 551.26953125 267.578125 544.43359375 c 0,4,-1
 202.63671875 70.3125 l 0,5,6
 201.66015625 64.453125 201.66015625 64.453125 214.599609375 55.908203125 c 0,7,8
 227.5390625 47.36328125 227.5390625 47.36328125 259.765625 40.52734375 c 0,9,-1
 254.39453125 0 l 0,10,-1
 4.8828125 0 l 0,11,-1
 10.25390625 40.52734375 l 0,12,13
 41.50390625 47.36328125 41.50390625 47.36328125 57.861328125 55.419921875 c 0,14,15
 74.21875 63.4765625 74.21875 63.4765625 75.1953125 70.3125 c 0,16,-1
 140.13671875 544.43359375 l 0,17,18
 141.11328125 550.29296875 141.11328125 550.29296875 128.173828125 559.08203125 c 0,19,20
 115.234375 567.87109375 115.234375 567.87109375 83.49609375 574.70703125 c 0,21,-1
 88.8671875 615.234375 l 0,22,-1
 338.37890625 615.234375 l 0,23,-1
 333.0078125 574.70703125 l 0,0,1
EndSplineSet
EndChar

StartChar: J
Encoding: 45 74 45
Width: 321
VWidth: 488
Flags: W
LayerCount: 2
Fore
SplineSet
344.7265625 574.70703125 m 0,0,1
 313.96484375 567.87109375 313.96484375 567.87109375 296.875 559.5703125 c 0,2,3
 279.78515625 551.26953125 279.78515625 551.26953125 278.80859375 544.43359375 c 0,4,-1
 219.7265625 100.09765625 l 0,5,6
 212.40234375 46.38671875 212.40234375 46.38671875 196.044921875 8.056640625 c 0,7,8
 179.6875 -30.2734375 179.6875 -30.2734375 159.1796875 -58.10546875 c 0,9,10
 138.671875 -85.9375 138.671875 -85.9375 115.966796875 -105.712890625 c 0,11,12
 93.26171875 -125.48828125 93.26171875 -125.48828125 73.2421875 -141.11328125 c 0,13,14
 60.05859375 -151.3671875 60.05859375 -151.3671875 42.236328125 -161.376953125 c 0,15,16
 24.4140625 -171.38671875 24.4140625 -171.38671875 4.8828125 -178.955078125 c 0,17,18
 -14.6484375 -186.5234375 -14.6484375 -186.5234375 -34.423828125 -191.162109375 c 0,19,20
 -54.19921875 -195.80078125 -54.19921875 -195.80078125 -70.80078125 -195.80078125 c 0,21,22
 -90.33203125 -195.80078125 -90.33203125 -195.80078125 -109.375 -190.4296875 c 0,23,24
 -128.41796875 -185.05859375 -128.41796875 -185.05859375 -143.5546875 -177.490234375 c 0,25,26
 -158.69140625 -169.921875 -158.69140625 -169.921875 -168.212890625 -161.376953125 c 0,27,28
 -177.734375 -152.83203125 -177.734375 -152.83203125 -177.734375 -146.97265625 c 0,29,30
 -177.734375 -143.5546875 -177.734375 -143.5546875 -171.875 -135.498046875 c 0,31,32
 -166.015625 -127.44140625 -166.015625 -127.44140625 -156.982421875 -117.67578125 c 0,33,34
 -147.94921875 -107.91015625 -147.94921875 -107.91015625 -136.962890625 -97.65625 c 0,35,36
 -125.9765625 -87.40234375 -125.9765625 -87.40234375 -115.72265625 -78.857421875 c 0,37,38
 -105.46875 -70.3125 -105.46875 -70.3125 -96.923828125 -64.697265625 c 0,39,40
 -88.37890625 -59.08203125 -88.37890625 -59.08203125 -84.47265625 -59.08203125 c 0,41,42
 -79.58984375 -59.08203125 -79.58984375 -59.08203125 -71.533203125 -66.40625 c 0,43,44
 -63.4765625 -73.73046875 -63.4765625 -73.73046875 -52.490234375 -82.763671875 c 0,45,46
 -41.50390625 -91.796875 -41.50390625 -91.796875 -28.3203125 -99.12109375 c 0,47,48
 -15.13671875 -106.4453125 -15.13671875 -106.4453125 0 -106.4453125 c 0,49,50
 11.71875 -106.4453125 11.71875 -106.4453125 23.681640625 -101.07421875 c 0,51,52
 35.64453125 -95.703125 35.64453125 -95.703125 46.875 -77.880859375 c 0,53,54
 58.10546875 -60.05859375 58.10546875 -60.05859375 68.359375 -26.123046875 c 0,55,56
 78.61328125 7.8125 78.61328125 7.8125 86.42578125 64.94140625 c 0,57,-1
 151.85546875 544.43359375 l 0,58,59
 152.34375 547.36328125 152.34375 547.36328125 149.658203125 550.78125 c 0,60,61
 146.97265625 554.19921875 146.97265625 554.19921875 138.427734375 558.10546875 c 0,62,63
 129.8828125 562.01171875 129.8828125 562.01171875 114.013671875 566.162109375 c 0,64,65
 98.14453125 570.3125 98.14453125 570.3125 71.77734375 574.70703125 c 0,66,-1
 77.1484375 615.234375 l 0,67,-1
 351.07421875 615.234375 l 0,68,-1
 344.7265625 574.70703125 l 0,0,1
EndSplineSet
EndChar

StartChar: K
Encoding: 46 75 46
Width: 604
VWidth: 488
Flags: W
LayerCount: 2
Fore
SplineSet
323.73046875 574.70703125 m 0,0,1
 291.50390625 567.87109375 291.50390625 567.87109375 275.146484375 559.5703125 c 0,2,3
 258.7890625 551.26953125 258.7890625 551.26953125 257.8125 544.43359375 c 0,4,-1
 227.5390625 324.21875 l 0,5,-1
 419.43359375 531.25 l 0,6,7
 431.640625 544.43359375 431.640625 544.43359375 437.5 552.24609375 c 0,8,9
 443.359375 560.05859375 443.359375 560.05859375 442.138671875 564.453125 c 0,10,11
 440.91796875 568.84765625 440.91796875 568.84765625 431.884765625 571.044921875 c 0,12,13
 422.8515625 573.2421875 422.8515625 573.2421875 405.2734375 574.70703125 c 0,14,-1
 410.64453125 615.234375 l 0,15,-1
 619.62890625 615.234375 l 0,16,-1
 614.2578125 574.70703125 l 0,17,18
 599.12109375 572.75390625 599.12109375 572.75390625 589.111328125 570.80078125 c 0,19,20
 579.1015625 568.84765625 579.1015625 568.84765625 571.2890625 565.673828125 c 0,21,22
 563.4765625 562.5 563.4765625 562.5 556.640625 557.373046875 c 0,23,24
 549.8046875 552.24609375 549.8046875 552.24609375 541.50390625 544.43359375 c 0,25,-1
 319.3359375 330.56640625 l 0,26,-1
 492.67578125 106.4453125 l 0,27,28
 499.0234375 98.6328125 499.0234375 98.6328125 510.009765625 95.703125 c 0,29,30
 520.99609375 92.7734375 520.99609375 92.7734375 533.447265625 93.26171875 c 0,31,32
 545.8984375 93.75 545.8984375 93.75 559.08203125 96.923828125 c 0,33,34
 572.265625 100.09765625 572.265625 100.09765625 583.0078125 104.4921875 c 0,35,-1
 597.16796875 63.96484375 l 0,36,37
 583.0078125 51.7578125 583.0078125 51.7578125 560.546875 39.306640625 c 0,38,39
 538.0859375 26.85546875 538.0859375 26.85546875 514.6484375 16.6015625 c 0,40,41
 491.2109375 6.34765625 491.2109375 6.34765625 470.21484375 -0.244140625 c 0,42,43
 449.21875 -6.8359375 449.21875 -6.8359375 438.4765625 -6.8359375 c 0,44,45
 424.8046875 -6.8359375 424.8046875 -6.8359375 415.283203125 -2.44140625 c 0,46,47
 405.76171875 1.953125 405.76171875 1.953125 397.94921875 14.16015625 c 0,48,-1
 224.609375 303.22265625 l 0,49,-1
 192.87109375 70.3125 l 0,50,51
 191.89453125 64.453125 191.89453125 64.453125 204.833984375 55.908203125 c 0,52,53
 217.7734375 47.36328125 217.7734375 47.36328125 250.48828125 40.52734375 c 0,54,-1
 245.1171875 0 l 0,55,-1
 -4.8828125 0 l 0,56,-1
 0.48828125 40.52734375 l 0,57,58
 32.2265625 47.36328125 32.2265625 47.36328125 48.583984375 55.419921875 c 0,59,60
 64.94140625 63.4765625 64.94140625 63.4765625 65.91796875 70.3125 c 0,61,-1
 130.859375 544.43359375 l 0,62,63
 131.8359375 550.29296875 131.8359375 550.29296875 118.65234375 559.08203125 c 0,64,65
 105.46875 567.87109375 105.46875 567.87109375 73.73046875 574.70703125 c 0,66,-1
 79.1015625 615.234375 l 0,67,-1
 329.1015625 615.234375 l 0,68,-1
 323.73046875 574.70703125 l 0,0,1
EndSplineSet
EndChar

StartChar: L
Encoding: 47 76 47
Width: 497
VWidth: 488
Flags: W
LayerCount: 2
Fore
SplineSet
472.65625 158.203125 m 0,0,1
 468.26171875 137.20703125 468.26171875 137.20703125 462.40234375 112.548828125 c 0,2,3
 456.54296875 87.890625 456.54296875 87.890625 450.68359375 65.185546875 c 0,4,5
 444.82421875 42.48046875 444.82421875 42.48046875 439.94140625 24.90234375 c 0,6,7
 435.05859375 7.32421875 435.05859375 7.32421875 432.6171875 0 c 0,8,-1
 -4.8828125 0 l 0,9,-1
 0.48828125 40.52734375 l 0,10,11
 32.2265625 47.36328125 32.2265625 47.36328125 48.583984375 55.419921875 c 0,12,13
 64.94140625 63.4765625 64.94140625 63.4765625 65.91796875 70.3125 c 0,14,-1
 130.859375 544.43359375 l 0,15,16
 131.8359375 550.29296875 131.8359375 550.29296875 118.65234375 559.08203125 c 0,17,18
 105.46875 567.87109375 105.46875 567.87109375 73.73046875 574.70703125 c 0,19,-1
 79.1015625 615.234375 l 0,20,-1
 329.1015625 615.234375 l 0,21,-1
 323.73046875 574.70703125 l 0,22,23
 291.50390625 567.87109375 291.50390625 567.87109375 275.146484375 559.5703125 c 0,24,25
 258.7890625 551.26953125 258.7890625 551.26953125 257.8125 544.43359375 c 0,26,-1
 196.77734375 99.609375 l 0,27,28
 195.80078125 90.8203125 195.80078125 90.8203125 198.73046875 84.228515625 c 0,29,30
 201.66015625 77.63671875 201.66015625 77.63671875 210.693359375 72.998046875 c 0,31,32
 219.7265625 68.359375 219.7265625 68.359375 235.595703125 65.91796875 c 0,33,34
 251.46484375 63.4765625 251.46484375 63.4765625 276.3671875 63.4765625 c 0,35,-1
 323.2421875 63.4765625 l 0,36,37
 344.23828125 63.4765625 344.23828125 63.4765625 359.375 69.580078125 c 0,38,39
 374.51171875 75.68359375 374.51171875 75.68359375 387.20703125 88.8671875 c 0,40,41
 399.90234375 102.05078125 399.90234375 102.05078125 411.62109375 122.55859375 c 0,42,43
 423.33984375 143.06640625 423.33984375 143.06640625 437.01171875 171.875 c 0,44,-1
 472.65625 158.203125 l 0,0,1
EndSplineSet
EndChar

StartChar: M
Encoding: 48 77 48
Width: 799
VWidth: 488
Flags: W
LayerCount: 2
Fore
SplineSet
812.98828125 574.70703125 m 0,0,1
 790.0390625 574.70703125 790.0390625 574.70703125 754.39453125 562.5 c 0,2,-1
 691.40625 70.3125 l 0,3,4
 690.4296875 64.453125 690.4296875 64.453125 705.810546875 55.908203125 c 0,5,6
 721.19140625 47.36328125 721.19140625 47.36328125 753.41796875 40.52734375 c 0,7,-1
 748.046875 0 l 0,8,-1
 501.46484375 0 l 0,9,-1
 506.8359375 40.52734375 l 0,10,11
 538.0859375 47.36328125 538.0859375 47.36328125 556.884765625 55.419921875 c 0,12,13
 575.68359375 63.4765625 575.68359375 63.4765625 576.66015625 70.3125 c 0,14,-1
 625 450.1953125 l 0,15,-1
 372.55859375 0 l 0,16,-1
 322.75390625 0 l 0,17,-1
 198.73046875 450.1953125 l 0,18,-1
 142.578125 70.3125 l 0,19,20
 141.6015625 64.453125 141.6015625 64.453125 154.78515625 55.908203125 c 0,21,22
 167.96875 47.36328125 167.96875 47.36328125 200.1953125 40.52734375 c 0,23,-1
 194.82421875 0 l 0,24,-1
 2.9296875 0 l 0,25,-1
 8.30078125 40.52734375 l 0,26,27
 40.52734375 47.36328125 40.52734375 47.36328125 56.640625 55.419921875 c 0,28,29
 72.75390625 63.4765625 72.75390625 63.4765625 73.73046875 70.3125 c 0,30,-1
 145.01953125 558.59375 l 0,31,32
 130.859375 567.87109375 130.859375 567.87109375 115.234375 571.2890625 c 0,33,34
 99.609375 574.70703125 99.609375 574.70703125 86.42578125 574.70703125 c 0,35,-1
 91.796875 615.234375 l 0,36,-1
 257.8125 615.234375 l 0,37,38
 262.20703125 615.234375 262.20703125 615.234375 265.869140625 613.76953125 c 0,39,40
 269.53125 612.3046875 269.53125 612.3046875 272.705078125 607.91015625 c 0,41,42
 275.87890625 603.515625 275.87890625 603.515625 279.052734375 595.458984375 c 0,43,44
 282.2265625 587.40234375 282.2265625 587.40234375 286.1328125 574.21875 c 0,45,-1
 394.53125 177.734375 l 0,46,-1
 617.67578125 574.21875 l 0,47,48
 625.48828125 588.8671875 625.48828125 588.8671875 630.859375 596.923828125 c 0,49,50
 636.23046875 604.98046875 636.23046875 604.98046875 640.625 609.130859375 c 0,51,52
 645.01953125 613.28125 645.01953125 613.28125 648.681640625 614.2578125 c 0,53,54
 652.34375 615.234375 652.34375 615.234375 656.73828125 615.234375 c 0,55,-1
 818.359375 615.234375 l 0,56,-1
 812.98828125 574.70703125 l 0,0,1
EndSplineSet
EndChar

StartChar: N
Encoding: 49 78 49
Width: 621
VWidth: 488
Flags: W
LayerCount: 2
Fore
SplineSet
663.0859375 574.70703125 m 0,0,1
 629.39453125 569.82421875 629.39453125 569.82421875 613.76953125 560.546875 c 0,2,3
 598.14453125 551.26953125 598.14453125 551.26953125 597.16796875 544.43359375 c 0,4,-1
 520.5078125 -14.6484375 l 0,5,6
 496.09375 -12.6953125 496.09375 -12.6953125 476.5625 -7.080078125 c 0,7,8
 457.03125 -1.46484375 457.03125 -1.46484375 442.3828125 6.34765625 c 0,9,10
 427.734375 14.16015625 427.734375 14.16015625 417.96875 23.92578125 c 0,11,12
 408.203125 33.69140625 408.203125 33.69140625 402.34375 44.43359375 c 0,13,-1
 192.3828125 437.01171875 l 0,14,-1
 142.08984375 70.3125 l 0,15,16
 141.6015625 67.3828125 141.6015625 67.3828125 144.04296875 63.232421875 c 0,17,18
 146.484375 59.08203125 146.484375 59.08203125 153.076171875 54.931640625 c 0,19,20
 159.66796875 50.78125 159.66796875 50.78125 170.8984375 46.875 c 0,21,22
 182.12890625 42.96875 182.12890625 42.96875 199.21875 40.52734375 c 0,23,-1
 193.84765625 0 l 0,24,-1
 -1.46484375 0 l 0,25,-1
 3.90625 40.52734375 l 0,26,27
 38.0859375 44.921875 38.0859375 44.921875 53.22265625 54.19921875 c 0,28,29
 68.359375 63.4765625 68.359375 63.4765625 69.3359375 70.3125 c 0,30,-1
 133.30078125 538.0859375 l 0,31,32
 120.60546875 552.734375 120.60546875 552.734375 106.4453125 562.5 c 0,33,34
 92.28515625 572.265625 92.28515625 572.265625 77.1484375 574.70703125 c 0,35,-1
 82.51953125 615.234375 l 0,36,-1
 219.7265625 615.234375 l 0,37,38
 226.07421875 615.234375 226.07421875 615.234375 230.46875 614.013671875 c 0,39,40
 234.86328125 612.79296875 234.86328125 612.79296875 238.76953125 608.88671875 c 0,41,42
 242.67578125 604.98046875 242.67578125 604.98046875 246.826171875 597.412109375 c 0,43,44
 250.9765625 589.84375 250.9765625 589.84375 257.8125 577.1484375 c 0,45,-1
 473.6328125 172.36328125 l 0,46,-1
 524.90234375 544.43359375 l 0,47,48
 525.390625 547.36328125 525.390625 547.36328125 523.193359375 551.513671875 c 0,49,50
 520.99609375 555.6640625 520.99609375 555.6640625 514.6484375 559.814453125 c 0,51,52
 508.30078125 563.96484375 508.30078125 563.96484375 497.0703125 567.87109375 c 0,53,54
 485.83984375 571.77734375 485.83984375 571.77734375 467.7734375 574.70703125 c 0,55,-1
 473.14453125 615.234375 l 0,56,-1
 668.45703125 615.234375 l 0,57,-1
 663.0859375 574.70703125 l 0,0,1
EndSplineSet
EndChar

StartChar: O
Encoding: 50 79 50
Width: 581
VWidth: 488
Flags: W
LayerCount: 2
Fore
SplineSet
576.171875 377.9296875 m 0,0,1
 576.171875 343.26171875 576.171875 343.26171875 569.3359375 307.6171875 c 0,2,3
 562.5 271.97265625 562.5 271.97265625 549.8046875 237.3046875 c 0,4,5
 537.109375 202.63671875 537.109375 202.63671875 519.04296875 170.166015625 c 0,6,7
 500.9765625 137.6953125 500.9765625 137.6953125 479.00390625 109.86328125 c 0,8,9
 458.49609375 83.49609375 458.49609375 83.49609375 432.12890625 60.791015625 c 0,10,11
 405.76171875 38.0859375 405.76171875 38.0859375 376.220703125 21.240234375 c 0,12,13
 346.6796875 4.39453125 346.6796875 4.39453125 314.453125 -5.37109375 c 0,14,15
 282.2265625 -15.13671875 282.2265625 -15.13671875 249.51171875 -15.13671875 c 0,16,17
 198.73046875 -15.13671875 198.73046875 -15.13671875 158.935546875 4.8828125 c 0,18,19
 119.140625 24.90234375 119.140625 24.90234375 91.30859375 59.326171875 c 0,20,21
 63.4765625 93.75 63.4765625 93.75 48.828125 139.6484375 c 0,22,23
 34.1796875 185.546875 34.1796875 185.546875 34.1796875 236.81640625 c 0,24,25
 34.1796875 313.4765625 34.1796875 313.4765625 58.10546875 378.41796875 c 0,26,27
 82.03125 443.359375 82.03125 443.359375 121.09375 497.0703125 c 0,28,29
 141.6015625 524.4140625 141.6015625 524.4140625 166.9921875 548.583984375 c 0,30,31
 192.3828125 572.75390625 192.3828125 572.75390625 222.65625 590.8203125 c 0,32,33
 252.9296875 608.88671875 252.9296875 608.88671875 288.330078125 619.384765625 c 0,34,35
 323.73046875 629.8828125 323.73046875 629.8828125 363.76953125 629.8828125 c 0,36,37
 416.9921875 629.8828125 416.9921875 629.8828125 457.03125 609.86328125 c 0,38,39
 497.0703125 589.84375 497.0703125 589.84375 523.4375 555.419921875 c 0,40,41
 549.8046875 520.99609375 549.8046875 520.99609375 562.98828125 475.09765625 c 0,42,43
 576.171875 429.19921875 576.171875 429.19921875 576.171875 377.9296875 c 0,0,1
444.82421875 369.140625 m 0,44,45
 444.82421875 410.15625 444.82421875 410.15625 437.255859375 445.80078125 c 0,46,47
 429.6875 481.4453125 429.6875 481.4453125 415.0390625 507.8125 c 0,48,49
 400.390625 534.1796875 400.390625 534.1796875 378.41796875 549.072265625 c 0,50,51
 356.4453125 563.96484375 356.4453125 563.96484375 328.125 563.96484375 c 0,52,53
 300.78125 563.96484375 300.78125 563.96484375 278.3203125 550.048828125 c 0,54,55
 255.859375 536.1328125 255.859375 536.1328125 237.79296875 512.451171875 c 0,56,57
 219.7265625 488.76953125 219.7265625 488.76953125 206.54296875 458.0078125 c 0,58,59
 193.359375 427.24609375 193.359375 427.24609375 184.5703125 393.310546875 c 0,60,61
 175.78125 359.375 175.78125 359.375 171.38671875 324.951171875 c 0,62,63
 166.9921875 290.52734375 166.9921875 290.52734375 166.9921875 259.765625 c 0,64,65
 166.9921875 214.35546875 166.9921875 214.35546875 174.31640625 176.26953125 c 0,66,67
 181.640625 138.18359375 181.640625 138.18359375 196.044921875 111.083984375 c 0,68,69
 210.44921875 83.984375 210.44921875 83.984375 231.689453125 68.84765625 c 0,70,71
 252.9296875 53.7109375 252.9296875 53.7109375 281.25 53.7109375 c 0,72,73
 310.05859375 53.7109375 310.05859375 53.7109375 333.49609375 68.359375 c 0,74,75
 356.93359375 83.0078125 356.93359375 83.0078125 375 107.91015625 c 0,76,77
 393.06640625 132.8125 393.06640625 132.8125 406.25 165.0390625 c 0,78,79
 419.43359375 197.265625 419.43359375 197.265625 427.978515625 232.177734375 c 0,80,81
 436.5234375 267.08984375 436.5234375 267.08984375 440.673828125 302.734375 c 0,82,83
 444.82421875 338.37890625 444.82421875 338.37890625 444.82421875 369.140625 c 0,44,45
EndSplineSet
EndChar

StartChar: P
Encoding: 51 80 51
Width: 534
VWidth: 488
Flags: W
LayerCount: 2
Fore
SplineSet
549.31640625 459.9609375 m 0,0,1
 549.31640625 418.45703125 549.31640625 418.45703125 530.76171875 380.615234375 c 0,2,3
 512.20703125 342.7734375 512.20703125 342.7734375 480.712890625 314.208984375 c 0,4,5
 449.21875 285.64453125 449.21875 285.64453125 407.470703125 268.5546875 c 0,6,7
 365.72265625 251.46484375 365.72265625 251.46484375 318.84765625 251.46484375 c 0,8,9
 300.29296875 251.46484375 300.29296875 251.46484375 281.25 256.103515625 c 0,10,11
 262.20703125 260.7421875 262.20703125 260.7421875 249.0234375 268.06640625 c 0,12,-1
 239.74609375 323.73046875 l 0,13,14
 256.34765625 316.40625 256.34765625 316.40625 268.798828125 312.01171875 c 0,15,16
 281.25 307.6171875 281.25 307.6171875 298.828125 307.6171875 c 0,17,18
 354.98046875 307.6171875 354.98046875 307.6171875 385.25390625 342.7734375 c 0,19,20
 415.52734375 377.9296875 415.52734375 377.9296875 415.52734375 441.89453125 c 0,21,22
 415.52734375 482.91015625 415.52734375 482.91015625 403.80859375 508.544921875 c 0,23,24
 392.08984375 534.1796875 392.08984375 534.1796875 372.55859375 548.828125 c 0,25,26
 353.02734375 563.4765625 353.02734375 563.4765625 327.880859375 568.84765625 c 0,27,28
 302.734375 574.21875 302.734375 574.21875 276.3671875 574.21875 c 0,29,30
 273.4375 574.21875 273.4375 574.21875 270.263671875 573.974609375 c 0,31,32
 267.08984375 573.73046875 267.08984375 573.73046875 264.16015625 573.73046875 c 0,33,-1
 193.84765625 70.3125 l 0,34,35
 192.87109375 67.3828125 192.87109375 67.3828125 195.80078125 63.96484375 c 0,36,37
 198.73046875 60.546875 198.73046875 60.546875 207.03125 56.640625 c 0,38,39
 215.33203125 52.734375 215.33203125 52.734375 229.98046875 48.828125 c 0,40,41
 244.62890625 44.921875 244.62890625 44.921875 267.578125 40.52734375 c 0,42,-1
 262.6953125 0 l 0,43,-1
 -4.8828125 0 l 0,44,-1
 0 40.52734375 l 0,45,46
 30.76171875 47.36328125 30.76171875 47.36328125 46.875 55.419921875 c 0,47,48
 62.98828125 63.4765625 62.98828125 63.4765625 63.96484375 70.3125 c 0,49,-1
 132.32421875 561.5234375 l 0,50,51
 115.234375 559.08203125 115.234375 559.08203125 98.14453125 555.908203125 c 0,52,53
 81.0546875 552.734375 81.0546875 552.734375 63.96484375 549.31640625 c 0,54,-1
 63.96484375 598.14453125 l 0,55,56
 89.35546875 604.98046875 89.35546875 604.98046875 119.384765625 610.83984375 c 0,57,58
 149.4140625 616.69921875 149.4140625 616.69921875 180.17578125 620.849609375 c 0,59,60
 210.9375 625 210.9375 625 241.2109375 627.44140625 c 0,61,62
 271.484375 629.8828125 271.484375 629.8828125 297.36328125 629.8828125 c 0,63,64
 357.421875 629.8828125 357.421875 629.8828125 404.296875 619.140625 c 0,65,66
 451.171875 608.3984375 451.171875 608.3984375 483.3984375 586.9140625 c 0,67,68
 515.625 565.4296875 515.625 565.4296875 532.470703125 533.69140625 c 0,69,70
 549.31640625 501.953125 549.31640625 501.953125 549.31640625 459.9609375 c 0,0,1
EndSplineSet
EndChar

StartChar: Q
Encoding: 52 81 52
Width: 596
VWidth: 488
Flags: W
LayerCount: 2
Fore
SplineSet
635.7421875 -62.01171875 m 0,0,1
 622.0703125 -83.49609375 622.0703125 -83.49609375 606.689453125 -101.806640625 c 0,2,3
 591.30859375 -120.1171875 591.30859375 -120.1171875 576.904296875 -134.033203125 c 0,4,5
 562.5 -147.94921875 562.5 -147.94921875 550.29296875 -155.76171875 c 0,6,7
 538.0859375 -163.57421875 538.0859375 -163.57421875 531.25 -163.57421875 c 0,8,9
 509.27734375 -163.57421875 509.27734375 -163.57421875 488.037109375 -155.76171875 c 0,10,11
 466.796875 -147.94921875 466.796875 -147.94921875 446.044921875 -135.25390625 c 0,12,13
 425.29296875 -122.55859375 425.29296875 -122.55859375 404.78515625 -106.201171875 c 0,14,15
 384.27734375 -89.84375 384.27734375 -89.84375 363.76953125 -72.998046875 c 0,16,17
 343.26171875 -56.15234375 343.26171875 -56.15234375 322.75390625 -40.283203125 c 0,18,19
 302.24609375 -24.4140625 302.24609375 -24.4140625 281.25 -12.6953125 c 0,20,21
 272.94921875 -13.671875 272.94921875 -13.671875 265.380859375 -14.404296875 c 0,22,23
 257.8125 -15.13671875 257.8125 -15.13671875 249.51171875 -15.13671875 c 0,24,25
 198.73046875 -15.13671875 198.73046875 -15.13671875 158.935546875 4.8828125 c 0,26,27
 119.140625 24.90234375 119.140625 24.90234375 91.30859375 59.326171875 c 0,28,29
 63.4765625 93.75 63.4765625 93.75 48.828125 139.6484375 c 0,30,31
 34.1796875 185.546875 34.1796875 185.546875 34.1796875 236.81640625 c 0,32,33
 34.1796875 313.4765625 34.1796875 313.4765625 58.10546875 378.41796875 c 0,34,35
 82.03125 443.359375 82.03125 443.359375 121.09375 497.0703125 c 0,36,37
 141.6015625 524.4140625 141.6015625 524.4140625 166.9921875 548.583984375 c 0,38,39
 192.3828125 572.75390625 192.3828125 572.75390625 222.65625 590.8203125 c 0,40,41
 252.9296875 608.88671875 252.9296875 608.88671875 288.330078125 619.384765625 c 0,42,43
 323.73046875 629.8828125 323.73046875 629.8828125 363.76953125 629.8828125 c 0,44,45
 416.9921875 629.8828125 416.9921875 629.8828125 457.03125 609.86328125 c 0,46,47
 497.0703125 589.84375 497.0703125 589.84375 523.4375 555.419921875 c 0,48,49
 549.8046875 520.99609375 549.8046875 520.99609375 562.98828125 475.09765625 c 0,50,51
 576.171875 429.19921875 576.171875 429.19921875 576.171875 377.9296875 c 0,52,53
 576.171875 343.26171875 576.171875 343.26171875 569.3359375 307.6171875 c 0,54,55
 562.5 271.97265625 562.5 271.97265625 549.8046875 237.3046875 c 0,56,57
 537.109375 202.63671875 537.109375 202.63671875 519.04296875 170.166015625 c 0,58,59
 500.9765625 137.6953125 500.9765625 137.6953125 479.00390625 109.86328125 c 0,60,61
 456.54296875 81.54296875 456.54296875 81.54296875 427.978515625 57.12890625 c 0,62,63
 399.4140625 32.71484375 399.4140625 32.71484375 366.69921875 15.625 c 0,64,65
 393.06640625 6.34765625 393.06640625 6.34765625 416.50390625 -6.34765625 c 0,66,67
 439.94140625 -19.04296875 439.94140625 -19.04296875 461.9140625 -30.76171875 c 0,68,69
 483.88671875 -42.48046875 483.88671875 -42.48046875 504.8828125 -50.537109375 c 0,70,71
 525.87890625 -58.59375 525.87890625 -58.59375 547.8515625 -58.59375 c 0,72,73
 553.7109375 -58.59375 553.7109375 -58.59375 559.08203125 -57.373046875 c 0,74,75
 564.453125 -56.15234375 564.453125 -56.15234375 571.77734375 -52.734375 c 0,76,77
 579.1015625 -49.31640625 579.1015625 -49.31640625 589.35546875 -42.724609375 c 0,78,79
 599.609375 -36.1328125 599.609375 -36.1328125 614.74609375 -25.390625 c 0,80,-1
 635.7421875 -62.01171875 l 0,0,1
444.82421875 369.140625 m 0,81,82
 444.82421875 410.15625 444.82421875 410.15625 437.255859375 445.80078125 c 0,83,84
 429.6875 481.4453125 429.6875 481.4453125 415.0390625 507.8125 c 0,85,86
 400.390625 534.1796875 400.390625 534.1796875 378.41796875 549.072265625 c 0,87,88
 356.4453125 563.96484375 356.4453125 563.96484375 328.125 563.96484375 c 0,89,90
 300.78125 563.96484375 300.78125 563.96484375 278.3203125 550.048828125 c 0,91,92
 255.859375 536.1328125 255.859375 536.1328125 237.79296875 512.451171875 c 0,93,94
 219.7265625 488.76953125 219.7265625 488.76953125 206.54296875 458.0078125 c 0,95,96
 193.359375 427.24609375 193.359375 427.24609375 184.5703125 393.310546875 c 0,97,98
 175.78125 359.375 175.78125 359.375 171.38671875 324.951171875 c 0,99,100
 166.9921875 290.52734375 166.9921875 290.52734375 166.9921875 259.765625 c 0,101,102
 166.9921875 214.35546875 166.9921875 214.35546875 174.31640625 176.26953125 c 0,103,104
 181.640625 138.18359375 181.640625 138.18359375 196.044921875 111.083984375 c 0,105,106
 210.44921875 83.984375 210.44921875 83.984375 231.689453125 68.84765625 c 0,107,108
 252.9296875 53.7109375 252.9296875 53.7109375 281.25 53.7109375 c 0,109,110
 310.05859375 53.7109375 310.05859375 53.7109375 333.49609375 68.359375 c 0,111,112
 356.93359375 83.0078125 356.93359375 83.0078125 375 107.91015625 c 0,113,114
 393.06640625 132.8125 393.06640625 132.8125 406.25 165.0390625 c 0,115,116
 419.43359375 197.265625 419.43359375 197.265625 427.978515625 232.177734375 c 0,117,118
 436.5234375 267.08984375 436.5234375 267.08984375 440.673828125 302.734375 c 0,119,120
 444.82421875 338.37890625 444.82421875 338.37890625 444.82421875 369.140625 c 0,81,82
EndSplineSet
EndChar

StartChar: R
Encoding: 53 82 53
Width: 569
VWidth: 488
Flags: W
LayerCount: 2
Fore
SplineSet
282.2265625 574.21875 m 0,0,-1
 272.4609375 574.21875 l 0,1,2
 267.578125 574.21875 267.578125 574.21875 262.20703125 573.73046875 c 0,3,-1
 231.93359375 348.14453125 l 0,4,5
 243.1640625 344.7265625 243.1640625 344.7265625 253.41796875 343.75 c 0,6,7
 263.671875 342.7734375 263.671875 342.7734375 275.87890625 342.7734375 c 0,8,9
 299.8046875 342.7734375 299.8046875 342.7734375 321.77734375 350.830078125 c 0,10,11
 343.75 358.88671875 343.75 358.88671875 360.595703125 373.779296875 c 0,12,13
 377.44140625 388.671875 377.44140625 388.671875 387.6953125 410.400390625 c 0,14,15
 397.94921875 432.12890625 397.94921875 432.12890625 397.94921875 459.9609375 c 0,16,17
 397.94921875 496.09375 397.94921875 496.09375 386.962890625 518.310546875 c 0,18,19
 375.9765625 540.52734375 375.9765625 540.52734375 359.130859375 552.978515625 c 0,20,21
 342.28515625 565.4296875 342.28515625 565.4296875 321.77734375 569.82421875 c 0,22,23
 301.26953125 574.21875 301.26953125 574.21875 282.2265625 574.21875 c 0,0,-1
579.58984375 58.10546875 m 0,24,25
 560.546875 45.41015625 560.546875 45.41015625 536.865234375 33.69140625 c 0,26,27
 513.18359375 21.97265625 513.18359375 21.97265625 490.72265625 12.939453125 c 0,28,29
 468.26171875 3.90625 468.26171875 3.90625 450.68359375 -1.46484375 c 0,30,31
 433.10546875 -6.8359375 433.10546875 -6.8359375 426.7578125 -6.8359375 c 0,32,33
 418.45703125 -6.8359375 418.45703125 -6.8359375 410.15625 -4.638671875 c 0,34,35
 401.85546875 -2.44140625 401.85546875 -2.44140625 393.798828125 4.39453125 c 0,36,37
 385.7421875 11.23046875 385.7421875 11.23046875 377.685546875 23.681640625 c 0,38,39
 369.62890625 36.1328125 369.62890625 36.1328125 362.3046875 57.12890625 c 0,40,-1
 281.73828125 282.2265625 l 0,41,42
 268.06640625 282.2265625 268.06640625 282.2265625 252.685546875 283.447265625 c 0,43,44
 237.3046875 284.66796875 237.3046875 284.66796875 223.6328125 288.0859375 c 0,45,-1
 194.3359375 70.3125 l 0,46,47
 192.87109375 64.453125 192.87109375 64.453125 208.251953125 55.908203125 c 0,48,49
 223.6328125 47.36328125 223.6328125 47.36328125 254.39453125 40.52734375 c 0,50,-1
 249.0234375 0 l 0,51,-1
 -4.8828125 0 l 0,52,-1
 0.48828125 40.52734375 l 0,53,54
 31.25 47.36328125 31.25 47.36328125 47.36328125 55.419921875 c 0,55,56
 63.4765625 63.4765625 63.4765625 63.4765625 64.453125 70.3125 c 0,57,-1
 130.859375 561.5234375 l 0,58,59
 112.3046875 558.59375 112.3046875 558.59375 95.21484375 555.6640625 c 0,60,61
 78.125 552.734375 78.125 552.734375 63.4765625 549.31640625 c 0,62,-1
 63.96484375 599.12109375 l 0,63,64
 85.9375 605.46875 85.9375 605.46875 114.2578125 611.083984375 c 0,65,66
 142.578125 616.69921875 142.578125 616.69921875 174.31640625 620.849609375 c 0,67,68
 206.0546875 625 206.0546875 625 239.990234375 627.44140625 c 0,69,70
 273.92578125 629.8828125 273.92578125 629.8828125 307.12890625 629.8828125 c 0,71,72
 416.015625 629.8828125 416.015625 629.8828125 473.6328125 590.087890625 c 0,73,74
 531.25 550.29296875 531.25 550.29296875 531.25 474.12109375 c 0,75,76
 531.25 449.21875 531.25 449.21875 520.5078125 422.607421875 c 0,77,78
 509.765625 395.99609375 509.765625 395.99609375 489.501953125 371.826171875 c 0,79,80
 469.23828125 347.65625 469.23828125 347.65625 440.4296875 327.63671875 c 0,81,82
 411.62109375 307.6171875 411.62109375 307.6171875 375.9765625 295.8984375 c 0,83,-1
 481.4453125 109.375 l 0,84,85
 487.79296875 98.14453125 487.79296875 98.14453125 495.1171875 92.529296875 c 0,86,87
 502.44140625 86.9140625 502.44140625 86.9140625 512.20703125 85.9375 c 0,88,89
 521.97265625 84.9609375 521.97265625 84.9609375 534.912109375 87.890625 c 0,90,91
 547.8515625 90.8203125 547.8515625 90.8203125 565.91796875 96.19140625 c 0,92,-1
 579.58984375 58.10546875 l 0,24,25
EndSplineSet
EndChar

StartChar: S
Encoding: 54 83 54
Width: 488
VWidth: 488
Flags: W
LayerCount: 2
Fore
SplineSet
484.375 584.9609375 m 0,0,1
 486.328125 583.49609375 486.328125 583.49609375 484.130859375 575.439453125 c 0,2,3
 481.93359375 567.3828125 481.93359375 567.3828125 477.05078125 556.15234375 c 0,4,5
 472.16796875 544.921875 472.16796875 544.921875 465.576171875 532.2265625 c 0,6,7
 458.984375 519.53125 458.984375 519.53125 452.1484375 508.056640625 c 0,8,9
 445.3125 496.58203125 445.3125 496.58203125 439.208984375 488.28125 c 0,10,11
 433.10546875 479.98046875 433.10546875 479.98046875 429.6875 478.02734375 c 0,12,-1
 395.99609375 480.95703125 l 0,13,14
 390.625 504.39453125 390.625 504.39453125 380.615234375 520.99609375 c 0,15,16
 370.60546875 537.59765625 370.60546875 537.59765625 357.91015625 548.33984375 c 0,17,18
 345.21484375 559.08203125 345.21484375 559.08203125 330.56640625 564.208984375 c 0,19,20
 315.91796875 569.3359375 315.91796875 569.3359375 301.26953125 569.3359375 c 0,21,22
 276.85546875 569.3359375 276.85546875 569.3359375 259.27734375 562.255859375 c 0,23,24
 241.69921875 555.17578125 241.69921875 555.17578125 230.46875 543.701171875 c 0,25,26
 219.23828125 532.2265625 219.23828125 532.2265625 213.8671875 517.08984375 c 0,27,28
 208.49609375 501.953125 208.49609375 501.953125 208.49609375 485.83984375 c 0,29,30
 208.49609375 475.09765625 208.49609375 475.09765625 211.9140625 463.37890625 c 0,31,32
 215.33203125 451.66015625 215.33203125 451.66015625 226.07421875 438.96484375 c 0,33,34
 236.81640625 426.26953125 236.81640625 426.26953125 256.591796875 411.865234375 c 0,35,36
 276.3671875 397.4609375 276.3671875 397.4609375 309.08203125 380.859375 c 0,37,38
 347.65625 360.83984375 347.65625 360.83984375 375.9765625 342.041015625 c 0,39,40
 404.296875 323.2421875 404.296875 323.2421875 422.607421875 302.978515625 c 0,41,42
 440.91796875 282.71484375 440.91796875 282.71484375 449.951171875 260.009765625 c 0,43,44
 458.984375 237.3046875 458.984375 237.3046875 458.984375 209.9609375 c 0,45,46
 458.984375 164.0625 458.984375 164.0625 438.4765625 123.291015625 c 0,47,48
 417.96875 82.51953125 417.96875 82.51953125 382.32421875 51.7578125 c 0,49,50
 346.6796875 20.99609375 346.6796875 20.99609375 298.33984375 2.9296875 c 0,51,52
 250 -15.13671875 250 -15.13671875 194.3359375 -15.13671875 c 0,53,54
 166.9921875 -15.13671875 166.9921875 -15.13671875 134.765625 -8.7890625 c 0,55,56
 102.5390625 -2.44140625 102.5390625 -2.44140625 74.21875 8.30078125 c 0,57,58
 45.8984375 19.04296875 45.8984375 19.04296875 27.099609375 32.71484375 c 0,59,60
 8.30078125 46.38671875 8.30078125 46.38671875 8.30078125 61.03515625 c 0,61,62
 8.30078125 65.91796875 8.30078125 65.91796875 12.451171875 75.68359375 c 0,63,64
 16.6015625 85.44921875 16.6015625 85.44921875 23.193359375 96.6796875 c 0,65,66
 29.78515625 107.91015625 29.78515625 107.91015625 38.330078125 119.62890625 c 0,67,68
 46.875 131.34765625 46.875 131.34765625 55.419921875 141.11328125 c 0,69,70
 63.96484375 150.87890625 63.96484375 150.87890625 71.77734375 156.982421875 c 0,71,72
 79.58984375 163.0859375 79.58984375 163.0859375 84.9609375 163.0859375 c 0,73,74
 90.33203125 163.0859375 90.33203125 163.0859375 97.65625 155.2734375 c 0,75,76
 104.98046875 147.4609375 104.98046875 147.4609375 114.013671875 135.498046875 c 0,77,78
 123.046875 123.53515625 123.046875 123.53515625 134.521484375 109.86328125 c 0,79,80
 145.99609375 96.19140625 145.99609375 96.19140625 160.64453125 84.228515625 c 0,81,82
 175.29296875 72.265625 175.29296875 72.265625 192.87109375 64.453125 c 0,83,84
 210.44921875 56.640625 210.44921875 56.640625 231.93359375 56.640625 c 0,85,86
 253.41796875 56.640625 253.41796875 56.640625 272.4609375 63.720703125 c 0,87,88
 291.50390625 70.80078125 291.50390625 70.80078125 305.6640625 83.984375 c 0,89,90
 319.82421875 97.16796875 319.82421875 97.16796875 328.125 116.69921875 c 0,91,92
 336.42578125 136.23046875 336.42578125 136.23046875 336.42578125 161.1328125 c 0,93,94
 336.42578125 183.10546875 336.42578125 183.10546875 329.1015625 201.416015625 c 0,95,96
 321.77734375 219.7265625 321.77734375 219.7265625 305.419921875 236.572265625 c 0,97,98
 289.0625 253.41796875 289.0625 253.41796875 262.939453125 269.53125 c 0,99,100
 236.81640625 285.64453125 236.81640625 285.64453125 199.70703125 303.22265625 c 0,101,102
 167.48046875 318.359375 167.48046875 318.359375 146.484375 335.205078125 c 0,103,104
 125.48828125 352.05078125 125.48828125 352.05078125 113.525390625 370.361328125 c 0,105,106
 101.5625 388.671875 101.5625 388.671875 96.6796875 409.1796875 c 0,107,108
 91.796875 429.6875 91.796875 429.6875 91.796875 453.125 c 0,109,110
 91.796875 485.3515625 91.796875 485.3515625 108.88671875 517.08984375 c 0,111,112
 125.9765625 548.828125 125.9765625 548.828125 157.2265625 573.73046875 c 0,113,114
 188.4765625 598.6328125 188.4765625 598.6328125 232.666015625 614.2578125 c 0,115,116
 276.85546875 629.8828125 276.85546875 629.8828125 331.54296875 629.8828125 c 0,117,118
 381.8359375 629.8828125 381.8359375 629.8828125 421.38671875 616.455078125 c 0,119,120
 460.9375 603.02734375 460.9375 603.02734375 484.375 584.9609375 c 0,0,1
EndSplineSet
EndChar

StartChar: T
Encoding: 55 84 55
Width: 548
VWidth: 488
Flags: W
LayerCount: 2
Fore
SplineSet
382.32421875 0 m 0,0,-1
 115.234375 0 l 0,1,-1
 120.60546875 40.52734375 l 0,2,3
 142.08984375 44.921875 142.08984375 44.921875 156.25 49.8046875 c 0,4,5
 170.41015625 54.6875 170.41015625 54.6875 178.955078125 59.326171875 c 0,6,7
 187.5 63.96484375 187.5 63.96484375 191.162109375 68.115234375 c 0,8,9
 194.82421875 72.265625 194.82421875 72.265625 195.3125 75.68359375 c 0,10,-1
 260.25390625 551.7578125 l 0,11,-1
 151.85546875 551.7578125 l 0,12,13
 145.01953125 551.7578125 145.01953125 551.7578125 137.939453125 545.654296875 c 0,14,15
 130.859375 539.55078125 130.859375 539.55078125 122.55859375 526.611328125 c 0,16,17
 114.2578125 513.671875 114.2578125 513.671875 103.515625 493.1640625 c 0,18,19
 92.7734375 472.65625 92.7734375 472.65625 78.61328125 444.3359375 c 0,20,-1
 42.96875 458.49609375 l 0,21,22
 45.8984375 472.65625 45.8984375 472.65625 51.26953125 494.140625 c 0,23,24
 56.640625 515.625 56.640625 515.625 62.5 538.330078125 c 0,25,26
 68.359375 561.03515625 68.359375 561.03515625 74.21875 581.787109375 c 0,27,28
 80.078125 602.5390625 80.078125 602.5390625 83.984375 615.234375 c 0,29,-1
 579.1015625 615.234375 l 0,30,-1
 594.7265625 598.14453125 l 0,31,32
 592.7734375 585.44921875 592.7734375 585.44921875 588.37890625 566.40625 c 0,33,34
 583.984375 547.36328125 583.984375 547.36328125 578.125 526.3671875 c 0,35,-1
 566.89453125 484.86328125 l 0,36,37
 561.5234375 464.35546875 561.5234375 464.35546875 556.640625 449.21875 c 0,38,-1
 518.06640625 449.21875 l 0,39,40
 516.6015625 471.6796875 516.6015625 471.6796875 516.357421875 490.72265625 c 0,41,42
 516.11328125 509.765625 516.11328125 509.765625 514.16015625 523.193359375 c 0,43,44
 512.20703125 536.62109375 512.20703125 536.62109375 507.8125 544.189453125 c 0,45,46
 503.41796875 551.7578125 503.41796875 551.7578125 493.65234375 551.7578125 c 0,47,-1
 387.6953125 551.7578125 l 0,48,-1
 322.75390625 75.68359375 l 0,49,50
 322.265625 72.75390625 322.265625 72.75390625 324.70703125 68.603515625 c 0,51,52
 327.1484375 64.453125 327.1484375 64.453125 334.47265625 59.5703125 c 0,53,54
 341.796875 54.6875 341.796875 54.6875 354.4921875 49.8046875 c 0,55,56
 367.1875 44.921875 367.1875 44.921875 387.6953125 40.52734375 c 0,57,-1
 382.32421875 0 l 0,0,-1
EndSplineSet
EndChar

StartChar: U
Encoding: 56 85 56
Width: 625
VWidth: 488
Flags: W
LayerCount: 2
Fore
SplineSet
654.296875 574.70703125 m 0,0,1
 623.53515625 567.87109375 623.53515625 567.87109375 608.88671875 559.5703125 c 0,2,3
 594.23828125 551.26953125 594.23828125 551.26953125 593.26171875 544.43359375 c 0,4,-1
 551.7578125 250 l 0,5,6
 542.96875 186.03515625 542.96875 186.03515625 518.798828125 136.474609375 c 0,7,8
 494.62890625 86.9140625 494.62890625 86.9140625 459.716796875 53.22265625 c 0,9,10
 424.8046875 19.53125 424.8046875 19.53125 381.103515625 2.197265625 c 0,11,12
 337.40234375 -15.13671875 337.40234375 -15.13671875 289.0625 -15.13671875 c 0,13,14
 249.0234375 -15.13671875 249.0234375 -15.13671875 211.9140625 -2.9296875 c 0,15,16
 174.8046875 9.27734375 174.8046875 9.27734375 146.240234375 32.71484375 c 0,17,18
 117.67578125 56.15234375 117.67578125 56.15234375 100.5859375 90.576171875 c 0,19,20
 83.49609375 125 83.49609375 125 83.49609375 169.921875 c 0,21,22
 83.49609375 195.80078125 83.49609375 195.80078125 87.890625 226.07421875 c 0,23,-1
 133.30078125 544.43359375 l 0,24,25
 133.7890625 550.29296875 133.7890625 550.29296875 121.09375 559.08203125 c 0,26,27
 108.3984375 567.87109375 108.3984375 567.87109375 77.1484375 574.70703125 c 0,28,-1
 82.51953125 615.234375 l 0,29,-1
 329.1015625 615.234375 l 0,30,-1
 323.73046875 574.70703125 l 0,31,32
 292.96875 567.87109375 292.96875 567.87109375 276.611328125 559.5703125 c 0,33,34
 260.25390625 551.26953125 260.25390625 551.26953125 259.27734375 544.43359375 c 0,35,-1
 216.30859375 249.0234375 l 0,36,37
 213.8671875 234.86328125 213.8671875 234.86328125 212.40234375 220.703125 c 0,38,39
 210.9375 206.54296875 210.9375 206.54296875 210.9375 193.84765625 c 0,40,41
 210.9375 125.48828125 210.9375 125.48828125 239.501953125 93.505859375 c 0,42,43
 268.06640625 61.5234375 268.06640625 61.5234375 328.61328125 61.5234375 c 0,44,45
 360.3515625 61.5234375 360.3515625 61.5234375 383.544921875 73.974609375 c 0,46,47
 406.73828125 86.42578125 406.73828125 86.42578125 422.607421875 108.88671875 c 0,48,49
 438.4765625 131.34765625 438.4765625 131.34765625 447.998046875 161.865234375 c 0,50,51
 457.51953125 192.3828125 457.51953125 192.3828125 462.40234375 229.00390625 c 0,52,-1
 506.8359375 544.43359375 l 0,53,54
 507.32421875 547.36328125 507.32421875 547.36328125 504.8828125 551.26953125 c 0,55,56
 502.44140625 555.17578125 502.44140625 555.17578125 496.337890625 559.08203125 c 0,57,58
 490.234375 562.98828125 490.234375 562.98828125 479.736328125 567.138671875 c 0,59,60
 469.23828125 571.2890625 469.23828125 571.2890625 453.61328125 574.70703125 c 0,61,-1
 458.984375 615.234375 l 0,62,-1
 659.66796875 615.234375 l 0,63,-1
 654.296875 574.70703125 l 0,0,1
EndSplineSet
EndChar

StartChar: V
Encoding: 57 86 57
Width: 613
VWidth: 488
Flags: W
LayerCount: 2
Fore
SplineSet
662.109375 574.70703125 m 0,0,1
 629.8828125 568.359375 629.8828125 568.359375 611.81640625 562.255859375 c 0,2,3
 593.75 556.15234375 593.75 556.15234375 587.40234375 542.48046875 c 0,4,-1
 349.609375 43.45703125 l 0,5,6
 344.7265625 32.71484375 344.7265625 32.71484375 333.0078125 23.4375 c 0,7,8
 321.2890625 14.16015625 321.2890625 14.16015625 306.396484375 6.8359375 c 0,9,10
 291.50390625 -0.48828125 291.50390625 -0.48828125 275.390625 -5.859375 c 0,11,12
 259.27734375 -11.23046875 259.27734375 -11.23046875 246.09375 -14.6484375 c 0,13,-1
 113.76953125 542.48046875 l 0,14,15
 110.3515625 555.17578125 110.3515625 555.17578125 98.14453125 562.98828125 c 0,16,17
 85.9375 570.80078125 85.9375 570.80078125 58.10546875 574.70703125 c 0,18,-1
 63.4765625 615.234375 l 0,19,-1
 306.640625 615.234375 l 0,20,-1
 301.26953125 574.70703125 l 0,21,22
 264.6484375 571.77734375 264.6484375 571.77734375 252.197265625 564.697265625 c 0,23,24
 239.74609375 557.6171875 239.74609375 557.6171875 243.1640625 543.45703125 c 0,25,-1
 332.51953125 152.83203125 l 0,26,-1
 515.13671875 542.48046875 l 0,27,28
 518.5546875 549.8046875 518.5546875 549.8046875 517.822265625 554.6875 c 0,29,30
 517.08984375 559.5703125 517.08984375 559.5703125 511.23046875 563.232421875 c 0,31,32
 505.37109375 566.89453125 505.37109375 566.89453125 493.896484375 569.580078125 c 0,33,34
 482.421875 572.265625 482.421875 572.265625 464.35546875 574.70703125 c 0,35,-1
 469.7265625 615.234375 l 0,36,-1
 667.48046875 615.234375 l 0,37,-1
 662.109375 574.70703125 l 0,0,1
EndSplineSet
EndChar

StartChar: W
Encoding: 58 87 58
Width: 782
VWidth: 488
Flags: W
LayerCount: 2
Fore
SplineSet
834.9609375 574.70703125 m 0,0,1
 813.96484375 570.3125 813.96484375 570.3125 800.29296875 566.40625 c 0,2,3
 786.62109375 562.5 786.62109375 562.5 778.564453125 558.837890625 c 0,4,5
 770.5078125 555.17578125 770.5078125 555.17578125 766.6015625 551.7578125 c 0,6,7
 762.6953125 548.33984375 762.6953125 548.33984375 761.71875 544.43359375 c 0,8,-1
 587.40234375 28.80859375 l 0,9,10
 583.984375 18.5546875 583.984375 18.5546875 574.70703125 10.986328125 c 0,11,12
 565.4296875 3.41796875 565.4296875 3.41796875 554.19921875 -1.708984375 c 0,13,14
 542.96875 -6.8359375 542.96875 -6.8359375 531.73828125 -10.009765625 c 0,15,16
 520.5078125 -13.18359375 520.5078125 -13.18359375 513.18359375 -14.6484375 c 0,17,-1
 415.0390625 416.9921875 l 0,18,-1
 231.93359375 28.80859375 l 0,19,20
 227.5390625 18.5546875 227.5390625 18.5546875 218.017578125 11.23046875 c 0,21,22
 208.49609375 3.90625 208.49609375 3.90625 197.265625 -1.220703125 c 0,23,24
 186.03515625 -6.34765625 186.03515625 -6.34765625 174.072265625 -9.521484375 c 0,25,26
 162.109375 -12.6953125 162.109375 -12.6953125 152.83203125 -14.6484375 c 0,27,-1
 110.83984375 540.52734375 l 0,28,29
 109.86328125 552.734375 109.86328125 552.734375 97.16796875 560.546875 c 0,30,31
 84.47265625 568.359375 84.47265625 568.359375 53.22265625 574.70703125 c 0,32,-1
 58.59375 615.234375 l 0,33,-1
 289.55078125 615.234375 l 0,34,-1
 284.1796875 574.70703125 l 0,35,36
 261.71875 572.265625 261.71875 572.265625 249.0234375 568.603515625 c 0,37,38
 236.328125 564.94140625 236.328125 564.94140625 230.224609375 560.546875 c 0,39,40
 224.12109375 556.15234375 224.12109375 556.15234375 222.900390625 551.025390625 c 0,41,42
 221.6796875 545.8984375 221.6796875 545.8984375 222.16796875 540.52734375 c 0,43,-1
 250 209.9609375 l 0,44,-1
 433.59375 615.234375 l 0,45,-1
 485.83984375 615.234375 l 0,46,-1
 579.58984375 209.9609375 l 0,47,-1
 694.3359375 544.43359375 l 0,48,49
 696.2890625 550.29296875 696.2890625 550.29296875 691.89453125 554.6875 c 0,50,51
 687.5 559.08203125 687.5 559.08203125 678.466796875 562.5 c 0,52,53
 669.43359375 565.91796875 669.43359375 565.91796875 656.73828125 568.84765625 c 0,54,55
 644.04296875 571.77734375 644.04296875 571.77734375 628.90625 574.70703125 c 0,56,-1
 634.27734375 615.234375 l 0,57,-1
 840.33203125 615.234375 l 0,58,-1
 834.9609375 574.70703125 l 0,0,1
EndSplineSet
EndChar

StartChar: X
Encoding: 59 88 59
Width: 598
VWidth: 488
Flags: W
LayerCount: 2
Fore
SplineSet
551.26953125 0 m 0,0,-1
 296.875 0 l 0,1,-1
 302.24609375 40.52734375 l 0,2,3
 322.75390625 42.48046875 322.75390625 42.48046875 335.44921875 45.654296875 c 0,4,5
 348.14453125 48.828125 348.14453125 48.828125 354.248046875 53.466796875 c 0,6,7
 360.3515625 58.10546875 360.3515625 58.10546875 360.107421875 64.94140625 c 0,8,9
 359.86328125 71.77734375 359.86328125 71.77734375 354.98046875 81.54296875 c 0,10,-1
 276.3671875 238.28125 l 0,11,-1
 154.78515625 81.54296875 l 0,12,13
 146.484375 70.80078125 146.484375 70.80078125 143.310546875 63.720703125 c 0,14,15
 140.13671875 56.640625 140.13671875 56.640625 143.5546875 52.001953125 c 0,16,17
 146.97265625 47.36328125 146.97265625 47.36328125 158.203125 44.677734375 c 0,18,19
 169.43359375 41.9921875 169.43359375 41.9921875 189.94140625 40.52734375 c 0,20,-1
 184.5703125 0 l 0,21,-1
 -19.53125 0 l 0,22,-1
 -14.16015625 40.52734375 l 0,23,24
 15.625 42.96875 15.625 42.96875 37.109375 52.490234375 c 0,25,26
 58.59375 62.01171875 58.59375 62.01171875 73.73046875 81.54296875 c 0,27,-1
 243.1640625 304.6875 l 0,28,-1
 128.41796875 533.69140625 l 0,29,30
 123.046875 544.43359375 123.046875 544.43359375 117.67578125 551.26953125 c 0,31,32
 112.3046875 558.10546875 112.3046875 558.10546875 105.224609375 562.5 c 0,33,34
 98.14453125 566.89453125 98.14453125 566.89453125 88.134765625 569.580078125 c 0,35,36
 78.125 572.265625 78.125 572.265625 63.4765625 574.70703125 c 0,37,-1
 68.84765625 615.234375 l 0,38,-1
 328.125 615.234375 l 0,39,-1
 322.75390625 574.70703125 l 0,40,41
 283.69140625 570.80078125 283.69140625 570.80078125 270.5078125 562.744140625 c 0,42,43
 257.32421875 554.6875 257.32421875 554.6875 268.06640625 533.69140625 c 0,44,-1
 337.40234375 395.5078125 l 0,45,-1
 437.5 533.69140625 l 0,46,47
 445.80078125 544.921875 445.80078125 544.921875 448.73046875 552.001953125 c 0,48,49
 451.66015625 559.08203125 451.66015625 559.08203125 447.998046875 563.720703125 c 0,50,51
 444.3359375 568.359375 444.3359375 568.359375 433.10546875 570.80078125 c 0,52,53
 421.875 573.2421875 421.875 573.2421875 402.34375 574.70703125 c 0,54,-1
 407.71484375 615.234375 l 0,55,-1
 613.28125 615.234375 l 0,56,-1
 607.91015625 574.70703125 l 0,57,58
 590.8203125 572.75390625 590.8203125 572.75390625 577.880859375 569.82421875 c 0,59,60
 564.94140625 566.89453125 564.94140625 566.89453125 554.19921875 562.255859375 c 0,61,62
 543.45703125 557.6171875 543.45703125 557.6171875 534.912109375 550.78125 c 0,63,64
 526.3671875 543.9453125 526.3671875 543.9453125 519.04296875 533.69140625 c 0,65,-1
 369.62890625 331.0546875 l 0,66,-1
 495.1171875 81.54296875 l 0,67,68
 500.48828125 71.2890625 500.48828125 71.2890625 505.859375 64.208984375 c 0,69,70
 511.23046875 57.12890625 511.23046875 57.12890625 518.06640625 52.490234375 c 0,71,72
 524.90234375 47.8515625 524.90234375 47.8515625 534.1796875 45.166015625 c 0,73,74
 543.45703125 42.48046875 543.45703125 42.48046875 556.640625 40.52734375 c 0,75,-1
 551.26953125 0 l 0,0,-1
EndSplineSet
EndChar

StartChar: Y
Encoding: 60 89 60
Width: 575
VWidth: 488
Flags: W
LayerCount: 2
Fore
SplineSet
402.83203125 0 m 0,0,-1
 134.765625 0 l 0,1,-1
 140.13671875 40.52734375 l 0,2,3
 161.1328125 44.921875 161.1328125 44.921875 175.29296875 49.8046875 c 0,4,5
 189.453125 54.6875 189.453125 54.6875 197.998046875 59.326171875 c 0,6,7
 206.54296875 63.96484375 206.54296875 63.96484375 210.44921875 68.115234375 c 0,8,9
 214.35546875 72.265625 214.35546875 72.265625 214.84375 75.68359375 c 0,10,-1
 239.74609375 257.8125 l 0,11,12
 228.515625 296.38671875 228.515625 296.38671875 214.111328125 337.40234375 c 0,13,14
 199.70703125 378.41796875 199.70703125 378.41796875 184.326171875 416.259765625 c 0,15,16
 168.9453125 454.1015625 168.9453125 454.1015625 153.80859375 486.81640625 c 0,17,18
 138.671875 519.53125 138.671875 519.53125 126.46484375 542.48046875 c 0,19,20
 123.53515625 547.8515625 123.53515625 547.8515625 119.62890625 552.001953125 c 0,21,22
 115.72265625 556.15234375 115.72265625 556.15234375 108.642578125 558.837890625 c 0,23,24
 101.5625 561.5234375 101.5625 561.5234375 90.087890625 562.98828125 c 0,25,26
 78.61328125 564.453125 78.61328125 564.453125 59.5703125 564.453125 c 0,27,-1
 62.98828125 604.98046875 l 0,28,29
 76.66015625 606.93359375 76.66015625 606.93359375 94.970703125 609.619140625 c 0,30,31
 113.28125 612.3046875 113.28125 612.3046875 131.591796875 614.501953125 c 0,32,33
 149.90234375 616.69921875 149.90234375 616.69921875 166.015625 618.408203125 c 0,34,35
 182.12890625 620.1171875 182.12890625 620.1171875 191.40625 620.1171875 c 0,36,37
 205.078125 620.1171875 205.078125 620.1171875 218.26171875 613.76953125 c 0,38,39
 231.4453125 607.421875 231.4453125 607.421875 237.79296875 596.19140625 c 0,40,41
 250.9765625 571.77734375 250.9765625 571.77734375 265.13671875 540.52734375 c 0,42,43
 279.296875 509.27734375 279.296875 509.27734375 292.96875 474.609375 c 0,44,45
 306.640625 439.94140625 306.640625 439.94140625 319.3359375 403.076171875 c 0,46,47
 332.03125 366.2109375 332.03125 366.2109375 342.7734375 331.0546875 c 0,48,-1
 473.14453125 542.48046875 l 0,49,50
 480.95703125 555.17578125 480.95703125 555.17578125 470.947265625 562.5 c 0,51,52
 460.9375 569.82421875 460.9375 569.82421875 426.7578125 574.70703125 c 0,53,-1
 432.12890625 615.234375 l 0,54,-1
 625.48828125 615.234375 l 0,55,-1
 620.1171875 574.70703125 l 0,56,57
 588.37890625 568.359375 588.37890625 568.359375 572.998046875 561.5234375 c 0,58,59
 557.6171875 554.6875 557.6171875 554.6875 549.8046875 542.48046875 c 0,60,-1
 366.2109375 251.953125 l 0,61,-1
 342.28515625 75.68359375 l 0,62,63
 341.796875 72.75390625 341.796875 72.75390625 344.23828125 68.603515625 c 0,64,65
 346.6796875 64.453125 346.6796875 64.453125 354.00390625 59.5703125 c 0,66,67
 361.328125 54.6875 361.328125 54.6875 374.51171875 49.8046875 c 0,68,69
 387.6953125 44.921875 387.6953125 44.921875 408.203125 40.52734375 c 0,70,-1
 402.83203125 0 l 0,0,-1
EndSplineSet
EndChar

StartChar: Z
Encoding: 61 90 61
Width: 526
VWidth: 488
Flags: W
LayerCount: 2
Fore
SplineSet
168.45703125 68.359375 m 0,0,-1
 365.234375 68.359375 l 0,1,2
 375 68.359375 375 68.359375 383.7890625 76.66015625 c 0,3,4
 392.578125 84.9609375 392.578125 84.9609375 401.611328125 101.07421875 c 0,5,6
 410.64453125 117.1875 410.64453125 117.1875 421.142578125 140.380859375 c 0,7,8
 431.640625 163.57421875 431.640625 163.57421875 444.3359375 193.84765625 c 0,9,-1
 486.328125 182.12890625 l 0,10,11
 483.3984375 166.50390625 483.3984375 166.50390625 479.00390625 141.357421875 c 0,12,13
 474.609375 116.2109375 474.609375 116.2109375 470.21484375 89.599609375 c 0,14,15
 465.8203125 62.98828125 465.8203125 62.98828125 461.9140625 38.57421875 c 0,16,17
 458.0078125 14.16015625 458.0078125 14.16015625 456.0546875 0 c 0,18,-1
 19.53125 0 l 0,19,-1
 5.37109375 26.85546875 l 0,20,-1
 376.46484375 546.875 l 0,21,-1
 208.984375 546.875 l 0,22,23
 201.66015625 546.875 201.66015625 546.875 191.162109375 537.59765625 c 0,24,25
 180.6640625 528.3203125 180.6640625 528.3203125 169.189453125 511.962890625 c 0,26,27
 157.71484375 495.60546875 157.71484375 495.60546875 146.728515625 473.6328125 c 0,28,29
 135.7421875 451.66015625 135.7421875 451.66015625 127.44140625 426.26953125 c 0,30,-1
 84.9609375 437.01171875 l 0,31,-1
 127.9296875 623.046875 l 0,32,33
 140.13671875 620.1171875 140.13671875 620.1171875 149.90234375 618.408203125 c 0,34,35
 159.66796875 616.69921875 159.66796875 616.69921875 169.43359375 615.966796875 c 0,36,37
 179.19921875 615.234375 179.19921875 615.234375 189.453125 615.234375 c 0,38,-1
 524.90234375 615.234375 l 0,39,-1
 537.109375 589.35546875 l 0,40,-1
 168.45703125 68.359375 l 0,0,-1
EndSplineSet
EndChar

StartChar: bracketleft
Encoding: 62 91 62
Width: 375
VWidth: 488
Flags: W
LayerCount: 2
Fore
SplineSet
424.8046875 763.18359375 m 0,0,1
 423.33984375 757.32421875 423.33984375 757.32421875 419.677734375 748.779296875 c 0,2,3
 416.015625 740.234375 416.015625 740.234375 411.62109375 731.689453125 c 0,4,5
 407.2265625 723.14453125 407.2265625 723.14453125 403.3203125 716.30859375 c 0,6,7
 399.4140625 709.47265625 399.4140625 709.47265625 397.4609375 706.54296875 c 0,8,-1
 269.53125 706.54296875 l 0,9,-1
 160.64453125 -88.37890625 l 0,10,-1
 285.64453125 -88.37890625 l 0,11,-1
 304.6875 -107.421875 l 0,12,13
 303.22265625 -112.3046875 303.22265625 -112.3046875 299.8046875 -120.1171875 c 0,14,15
 296.38671875 -127.9296875 296.38671875 -127.9296875 292.236328125 -136.23046875 c 0,16,17
 288.0859375 -144.53125 288.0859375 -144.53125 284.1796875 -152.099609375 c 0,18,19
 280.2734375 -159.66796875 280.2734375 -159.66796875 277.83203125 -164.0625 c 0,20,-1
 32.2265625 -164.0625 l 0,21,-1
 165.0390625 780.76171875 l 0,22,-1
 406.73828125 780.76171875 l 0,23,-1
 424.8046875 763.18359375 l 0,0,1
EndSplineSet
EndChar

StartChar: backslash
Encoding: 63 92 63
Width: 424
VWidth: 488
Flags: W
LayerCount: 2
Fore
SplineSet
340.33203125 -164.0625 m 0,0,1
 334.9609375 -162.109375 334.9609375 -162.109375 322.265625 -157.71484375 c 0,2,3
 309.5703125 -153.3203125 309.5703125 -153.3203125 295.654296875 -148.193359375 c 0,4,5
 281.73828125 -143.06640625 281.73828125 -143.06640625 269.775390625 -137.939453125 c 0,6,7
 257.8125 -132.8125 257.8125 -132.8125 254.39453125 -129.39453125 c 0,8,-1
 65.91796875 765.13671875 l 0,9,-1
 88.8671875 780.76171875 l 0,10,11
 95.703125 778.80859375 95.703125 778.80859375 107.666015625 774.90234375 c 0,12,13
 119.62890625 770.99609375 119.62890625 770.99609375 132.568359375 766.357421875 c 0,14,15
 145.5078125 761.71875 145.5078125 761.71875 157.2265625 756.591796875 c 0,16,17
 168.9453125 751.46484375 168.9453125 751.46484375 174.8046875 747.0703125 c 0,18,-1
 362.3046875 -146.97265625 l 0,19,-1
 340.33203125 -164.0625 l 0,0,1
EndSplineSet
EndChar

StartChar: bracketright
Encoding: 64 93 64
Width: 344
VWidth: 488
Flags: W
LayerCount: 2
Fore
SplineSet
218.75 -164.0625 m 0,0,-1
 -22.94921875 -164.0625 l 0,1,-1
 -41.9921875 -145.01953125 l 0,2,3
 -40.0390625 -139.16015625 -40.0390625 -139.16015625 -36.376953125 -130.859375 c 0,4,5
 -32.71484375 -122.55859375 -32.71484375 -122.55859375 -28.80859375 -114.2578125 c 0,6,7
 -24.90234375 -105.95703125 -24.90234375 -105.95703125 -21.240234375 -98.6328125 c 0,8,9
 -17.578125 -91.30859375 -17.578125 -91.30859375 -15.625 -88.37890625 c 0,10,-1
 112.3046875 -88.37890625 l 0,11,-1
 224.12109375 706.54296875 l 0,12,-1
 100.09765625 706.54296875 l 0,13,-1
 81.0546875 724.12109375 l 0,14,15
 82.51953125 729.4921875 82.51953125 729.4921875 85.693359375 737.548828125 c 0,16,17
 88.8671875 745.60546875 88.8671875 745.60546875 92.7734375 753.90625 c 0,18,19
 96.6796875 762.20703125 96.6796875 762.20703125 100.09765625 769.53125 c 0,20,21
 103.515625 776.85546875 103.515625 776.85546875 105.95703125 780.76171875 c 0,22,-1
 350.5859375 780.76171875 l 0,23,-1
 218.75 -164.0625 l 0,0,-1
EndSplineSet
EndChar

StartChar: asciicircum
Encoding: 65 94 65
Width: 458
VWidth: 488
Flags: W
LayerCount: 2
Fore
SplineSet
416.9921875 310.05859375 m 0,0,1
 403.3203125 298.828125 403.3203125 298.828125 391.357421875 291.259765625 c 0,2,3
 379.39453125 283.69140625 379.39453125 283.69140625 362.79296875 275.87890625 c 0,4,-1
 348.14453125 289.0625 l 0,5,-1
 270.01953125 642.08984375 l 0,6,-1
 108.88671875 310.05859375 l 0,7,8
 103.515625 305.17578125 103.515625 305.17578125 96.19140625 300.048828125 c 0,9,10
 88.8671875 294.921875 88.8671875 294.921875 81.298828125 290.283203125 c 0,11,12
 73.73046875 285.64453125 73.73046875 285.64453125 66.89453125 281.982421875 c 0,13,14
 60.05859375 278.3203125 60.05859375 278.3203125 55.17578125 275.87890625 c 0,15,-1
 45.8984375 289.0625 l 0,16,-1
 251.953125 713.8671875 l 0,17,18
 258.30078125 719.7265625 258.30078125 719.7265625 267.08984375 725.830078125 c 0,19,20
 275.87890625 731.93359375 275.87890625 731.93359375 285.15625 737.79296875 c 0,21,22
 294.43359375 743.65234375 294.43359375 743.65234375 303.22265625 748.53515625 c 0,23,24
 312.01171875 753.41796875 312.01171875 753.41796875 318.84765625 756.8359375 c 0,25,-1
 416.9921875 310.05859375 l 0,0,1
EndSplineSet
EndChar

StartChar: underscore
Encoding: 66 95 66
Width: 454
VWidth: 488
Flags: W
LayerCount: 2
Fore
SplineSet
395.99609375 -81.0546875 m 0,0,1
 394.53125 -86.42578125 394.53125 -86.42578125 390.625 -94.482421875 c 0,2,3
 386.71875 -102.5390625 386.71875 -102.5390625 382.32421875 -111.083984375 c 0,4,5
 377.9296875 -119.62890625 377.9296875 -119.62890625 373.779296875 -127.44140625 c 0,6,7
 369.62890625 -135.25390625 369.62890625 -135.25390625 367.1875 -139.6484375 c 0,8,-1
 1.46484375 -139.6484375 l 0,9,-1
 -11.23046875 -121.58203125 l 0,10,11
 -9.765625 -116.69921875 -9.765625 -116.69921875 -6.103515625 -109.130859375 c 0,12,13
 -2.44140625 -101.5625 -2.44140625 -101.5625 1.953125 -93.017578125 c 0,14,15
 6.34765625 -84.47265625 6.34765625 -84.47265625 10.986328125 -76.66015625 c 0,16,17
 15.625 -68.84765625 15.625 -68.84765625 18.5546875 -63.96484375 c 0,18,-1
 382.32421875 -63.96484375 l 0,19,-1
 395.99609375 -81.0546875 l 0,0,1
EndSplineSet
EndChar

StartChar: grave
Encoding: 67 96 67
Width: 295
VWidth: 488
Flags: W
LayerCount: 2
Fore
SplineSet
283.69140625 516.11328125 m 0,0,1
 273.92578125 510.25390625 273.92578125 510.25390625 260.7421875 504.39453125 c 0,2,3
 247.55859375 498.53515625 247.55859375 498.53515625 238.76953125 496.09375 c 0,4,-1
 92.28515625 669.921875 l 0,5,-1
 112.79296875 697.265625 l 0,6,7
 118.65234375 698.2421875 118.65234375 698.2421875 134.765625 701.66015625 c 0,8,9
 150.87890625 705.078125 150.87890625 705.078125 168.9453125 708.49609375 c 0,10,11
 187.01171875 711.9140625 187.01171875 711.9140625 203.125 714.599609375 c 0,12,13
 219.23828125 717.28515625 219.23828125 717.28515625 225.5859375 717.28515625 c 0,14,-1
 283.69140625 516.11328125 l 0,0,1
EndSplineSet
EndChar

StartChar: a
Encoding: 68 97 68
Width: 491
VWidth: 488
Flags: W
LayerCount: 2
Fore
SplineSet
491.2109375 57.6171875 m 0,0,1
 470.703125 42.96875 470.703125 42.96875 449.462890625 28.80859375 c 0,2,3
 428.22265625 14.6484375 428.22265625 14.6484375 409.1796875 3.90625 c 0,4,5
 390.13671875 -6.8359375 390.13671875 -6.8359375 374.755859375 -13.427734375 c 0,6,7
 359.375 -20.01953125 359.375 -20.01953125 350.5859375 -20.01953125 c 0,8,9
 342.7734375 -20.01953125 342.7734375 -20.01953125 331.787109375 -14.892578125 c 0,10,11
 320.80078125 -9.765625 320.80078125 -9.765625 310.302734375 2.44140625 c 0,12,13
 299.8046875 14.6484375 299.8046875 14.6484375 290.771484375 34.912109375 c 0,14,15
 281.73828125 55.17578125 281.73828125 55.17578125 278.3203125 85.9375 c 0,16,17
 262.20703125 64.453125 262.20703125 64.453125 244.384765625 45.166015625 c 0,18,19
 226.5625 25.87890625 226.5625 25.87890625 207.763671875 11.474609375 c 0,20,21
 188.96484375 -2.9296875 188.96484375 -2.9296875 169.43359375 -11.474609375 c 0,22,23
 149.90234375 -20.01953125 149.90234375 -20.01953125 129.8828125 -20.01953125 c 0,24,25
 111.81640625 -20.01953125 111.81640625 -20.01953125 91.796875 -10.7421875 c 0,26,27
 71.77734375 -1.46484375 71.77734375 -1.46484375 54.931640625 18.798828125 c 0,28,29
 38.0859375 39.0625 38.0859375 39.0625 27.099609375 71.044921875 c 0,30,31
 16.11328125 103.02734375 16.11328125 103.02734375 16.11328125 148.92578125 c 0,32,33
 16.11328125 187.5 16.11328125 187.5 26.123046875 224.365234375 c 0,34,35
 36.1328125 261.23046875 36.1328125 261.23046875 54.6875 294.921875 c 0,36,37
 73.2421875 328.61328125 73.2421875 328.61328125 100.341796875 358.154296875 c 0,38,39
 127.44140625 387.6953125 127.44140625 387.6953125 162.109375 411.1328125 c 0,40,41
 188.4765625 429.19921875 188.4765625 429.19921875 226.07421875 443.115234375 c 0,42,43
 263.671875 457.03125 263.671875 457.03125 308.59375 457.03125 c 0,44,45
 329.1015625 457.03125 329.1015625 457.03125 349.12109375 447.998046875 c 0,46,47
 369.140625 438.96484375 369.140625 438.96484375 387.20703125 427.734375 c 0,48,49
 405.76171875 436.03515625 405.76171875 436.03515625 423.583984375 443.115234375 c 0,50,51
 441.40625 450.1953125 441.40625 450.1953125 455.078125 457.03125 c 0,52,-1
 472.16796875 420.41015625 l 0,53,54
 463.8671875 413.57421875 463.8671875 413.57421875 458.251953125 408.203125 c 0,55,56
 452.63671875 402.83203125 452.63671875 402.83203125 448.73046875 395.751953125 c 0,57,58
 444.82421875 388.671875 444.82421875 388.671875 441.650390625 378.41796875 c 0,59,60
 438.4765625 368.1640625 438.4765625 368.1640625 435.05859375 351.5625 c 0,61,62
 427.734375 316.40625 427.734375 316.40625 422.119140625 284.912109375 c 0,63,64
 416.50390625 253.41796875 416.50390625 253.41796875 412.841796875 227.05078125 c 0,65,66
 409.1796875 200.68359375 409.1796875 200.68359375 407.2265625 181.15234375 c 0,67,68
 405.2734375 161.62109375 405.2734375 161.62109375 405.2734375 150.87890625 c 0,69,70
 405.2734375 137.6953125 405.2734375 137.6953125 407.2265625 125.244140625 c 0,71,72
 409.1796875 112.79296875 409.1796875 112.79296875 412.841796875 102.783203125 c 0,73,74
 416.50390625 92.7734375 416.50390625 92.7734375 421.142578125 86.9140625 c 0,75,76
 425.78125 81.0546875 425.78125 81.0546875 431.640625 81.0546875 c 0,77,78
 441.40625 81.0546875 441.40625 81.0546875 452.392578125 83.740234375 c 0,79,80
 463.37890625 86.42578125 463.37890625 86.42578125 482.91015625 94.7265625 c 0,81,-1
 491.2109375 57.6171875 l 0,0,1
281.73828125 175.78125 m 0,82,83
 284.1796875 195.80078125 284.1796875 195.80078125 287.59765625 219.23828125 c 0,84,85
 291.015625 242.67578125 291.015625 242.67578125 294.677734375 266.11328125 c 0,86,87
 298.33984375 289.55078125 298.33984375 289.55078125 302.001953125 311.03515625 c 0,88,89
 305.6640625 332.51953125 305.6640625 332.51953125 308.59375 349.12109375 c 0,90,91
 294.921875 362.3046875 294.921875 362.3046875 280.76171875 372.0703125 c 0,92,93
 266.6015625 381.8359375 266.6015625 381.8359375 253.90625 381.34765625 c 0,94,95
 233.88671875 380.859375 233.88671875 380.859375 217.7734375 371.58203125 c 0,96,97
 201.66015625 362.3046875 201.66015625 362.3046875 189.208984375 346.923828125 c 0,98,99
 176.7578125 331.54296875 176.7578125 331.54296875 167.724609375 311.5234375 c 0,100,101
 158.69140625 291.50390625 158.69140625 291.50390625 152.83203125 269.775390625 c 0,102,103
 146.97265625 248.046875 146.97265625 248.046875 144.287109375 226.07421875 c 0,104,105
 141.6015625 204.1015625 141.6015625 204.1015625 141.6015625 185.05859375 c 0,106,107
 141.6015625 159.1796875 141.6015625 159.1796875 145.01953125 140.380859375 c 0,108,109
 148.4375 121.58203125 148.4375 121.58203125 154.296875 109.375 c 0,110,111
 160.15625 97.16796875 160.15625 97.16796875 167.236328125 91.552734375 c 0,112,113
 174.31640625 85.9375 174.31640625 85.9375 181.640625 85.9375 c 0,114,115
 187.98828125 85.9375 187.98828125 85.9375 197.265625 90.33203125 c 0,116,117
 206.54296875 94.7265625 206.54296875 94.7265625 218.994140625 105.224609375 c 0,118,119
 231.4453125 115.72265625 231.4453125 115.72265625 247.0703125 133.056640625 c 0,120,121
 262.6953125 150.390625 262.6953125 150.390625 281.73828125 175.78125 c 0,82,83
EndSplineSet
EndChar

StartChar: b
Encoding: 69 98 69
Width: 508
VWidth: 488
Flags: W
LayerCount: 2
Fore
SplineSet
483.3984375 297.8515625 m 0,0,1
 482.421875 246.09375 482.421875 246.09375 459.228515625 192.87109375 c 0,2,3
 436.03515625 139.6484375 436.03515625 139.6484375 398.92578125 91.796875 c 0,4,5
 381.8359375 69.82421875 381.8359375 69.82421875 360.107421875 49.560546875 c 0,6,7
 338.37890625 29.296875 338.37890625 29.296875 312.744140625 13.916015625 c 0,8,9
 287.109375 -1.46484375 287.109375 -1.46484375 258.30078125 -10.7421875 c 0,10,11
 229.4921875 -20.01953125 229.4921875 -20.01953125 198.73046875 -20.01953125 c 0,12,13
 187.5 -20.01953125 187.5 -20.01953125 172.36328125 -14.6484375 c 0,14,15
 157.2265625 -9.27734375 157.2265625 -9.27734375 141.357421875 0 c 0,16,17
 125.48828125 9.27734375 125.48828125 9.27734375 109.86328125 22.4609375 c 0,18,19
 94.23828125 35.64453125 94.23828125 35.64453125 82.03125 51.26953125 c 0,20,21
 69.82421875 66.89453125 69.82421875 66.89453125 62.01171875 84.47265625 c 0,22,23
 54.19921875 102.05078125 54.19921875 102.05078125 54.19921875 120.60546875 c 0,24,25
 54.19921875 133.30078125 54.19921875 133.30078125 56.884765625 158.447265625 c 0,26,27
 59.5703125 183.59375 59.5703125 183.59375 64.208984375 216.30859375 c 0,28,29
 68.84765625 249.0234375 68.84765625 249.0234375 74.70703125 287.353515625 c 0,30,31
 80.56640625 325.68359375 80.56640625 325.68359375 86.9140625 365.234375 c 0,32,33
 93.26171875 404.78515625 93.26171875 404.78515625 99.365234375 443.603515625 c 0,34,35
 105.46875 482.421875 105.46875 482.421875 110.107421875 516.357421875 c 0,36,37
 114.74609375 550.29296875 114.74609375 550.29296875 117.67578125 576.66015625 c 0,38,39
 120.60546875 603.02734375 120.60546875 603.02734375 120.60546875 618.1640625 c 0,40,41
 120.60546875 629.39453125 120.60546875 629.39453125 118.1640625 635.986328125 c 0,42,43
 115.72265625 642.578125 115.72265625 642.578125 111.81640625 645.751953125 c 0,44,45
 107.91015625 648.92578125 107.91015625 648.92578125 103.515625 649.90234375 c 0,46,47
 99.12109375 650.87890625 99.12109375 650.87890625 94.7265625 650.87890625 c 0,48,49
 90.33203125 650.87890625 90.33203125 650.87890625 82.763671875 648.681640625 c 0,50,51
 75.1953125 646.484375 75.1953125 646.484375 68.359375 644.04296875 c 0,52,53
 59.5703125 641.11328125 59.5703125 641.11328125 50.78125 637.6953125 c 0,54,-1
 41.9921875 676.26953125 l 0,55,56
 64.453125 687.01171875 64.453125 687.01171875 93.505859375 698.73046875 c 0,57,58
 122.55859375 710.44921875 122.55859375 710.44921875 150.390625 720.21484375 c 0,59,60
 178.22265625 729.98046875 178.22265625 729.98046875 200.927734375 736.083984375 c 0,61,62
 223.6328125 742.1875 223.6328125 742.1875 233.3984375 742.1875 c 0,63,64
 250.48828125 742.1875 250.48828125 742.1875 256.34765625 733.3984375 c 0,65,66
 262.20703125 724.609375 262.20703125 724.609375 262.20703125 702.1484375 c 0,67,68
 262.20703125 681.640625 262.20703125 681.640625 257.8125 645.263671875 c 0,69,70
 253.41796875 608.88671875 253.41796875 608.88671875 246.826171875 563.232421875 c 0,71,72
 240.234375 517.578125 240.234375 517.578125 231.93359375 466.552734375 c 0,73,74
 223.6328125 415.52734375 223.6328125 415.52734375 215.8203125 366.2109375 c 0,75,76
 239.74609375 395.01953125 239.74609375 395.01953125 260.986328125 412.841796875 c 0,77,78
 282.2265625 430.6640625 282.2265625 430.6640625 300.78125 440.4296875 c 0,79,80
 319.3359375 450.1953125 319.3359375 450.1953125 335.44921875 453.61328125 c 0,81,82
 351.5625 457.03125 351.5625 457.03125 364.74609375 457.03125 c 0,83,84
 389.6484375 457.51953125 389.6484375 457.51953125 411.376953125 447.021484375 c 0,85,86
 433.10546875 436.5234375 433.10546875 436.5234375 449.21875 416.259765625 c 0,87,88
 465.33203125 395.99609375 465.33203125 395.99609375 474.609375 366.2109375 c 0,89,90
 483.88671875 336.42578125 483.88671875 336.42578125 483.3984375 297.8515625 c 0,0,1
307.12890625 362.79296875 m 0,91,92
 301.26953125 362.79296875 301.26953125 362.79296875 291.259765625 357.666015625 c 0,93,94
 281.25 352.5390625 281.25 352.5390625 267.333984375 339.84375 c 0,95,96
 253.41796875 327.1484375 253.41796875 327.1484375 236.083984375 305.908203125 c 0,97,98
 218.75 284.66796875 218.75 284.66796875 198.2421875 251.953125 c 0,99,100
 193.84765625 219.7265625 193.84765625 219.7265625 191.162109375 194.3359375 c 0,101,102
 188.4765625 168.9453125 188.4765625 168.9453125 188.4765625 154.296875 c 0,103,104
 188.4765625 141.6015625 188.4765625 141.6015625 195.80078125 128.662109375 c 0,105,106
 203.125 115.72265625 203.125 115.72265625 213.8671875 105.46875 c 0,107,108
 224.609375 95.21484375 224.609375 95.21484375 236.083984375 88.37890625 c 0,109,110
 247.55859375 81.54296875 247.55859375 81.54296875 255.859375 81.0546875 c 0,111,112
 276.3671875 79.58984375 276.3671875 79.58984375 291.50390625 89.35546875 c 0,113,114
 306.640625 99.12109375 306.640625 99.12109375 318.84765625 116.69921875 c 0,115,116
 328.125 129.8828125 328.125 129.8828125 334.9609375 147.705078125 c 0,117,118
 341.796875 165.52734375 341.796875 165.52734375 346.19140625 184.5703125 c 0,119,120
 350.5859375 203.61328125 350.5859375 203.61328125 352.5390625 222.900390625 c 0,121,122
 354.4921875 242.1875 354.4921875 242.1875 354.4921875 258.7890625 c 0,123,124
 354.4921875 281.25 354.4921875 281.25 351.5625 300.29296875 c 0,125,126
 348.6328125 319.3359375 348.6328125 319.3359375 342.529296875 333.251953125 c 0,127,128
 336.42578125 347.16796875 336.42578125 347.16796875 327.63671875 354.98046875 c 0,129,130
 318.84765625 362.79296875 318.84765625 362.79296875 307.12890625 362.79296875 c 0,91,92
EndSplineSet
EndChar

StartChar: c
Encoding: 70 99 70
Width: 438
VWidth: 488
Flags: W
LayerCount: 2
Fore
SplineSet
457.51953125 402.83203125 m 0,0,1
 447.265625 391.6015625 447.265625 391.6015625 431.884765625 376.953125 c 0,2,3
 416.50390625 362.3046875 416.50390625 362.3046875 400.634765625 349.12109375 c 0,4,5
 384.765625 335.9375 384.765625 335.9375 370.60546875 326.904296875 c 0,6,7
 356.4453125 317.87109375 356.4453125 317.87109375 348.14453125 317.87109375 c 0,8,9
 339.35546875 317.87109375 339.35546875 317.87109375 331.0546875 327.880859375 c 0,10,11
 322.75390625 337.890625 322.75390625 337.890625 313.720703125 349.609375 c 0,12,13
 304.6875 361.328125 304.6875 361.328125 293.701171875 371.337890625 c 0,14,15
 282.71484375 381.34765625 282.71484375 381.34765625 269.04296875 381.34765625 c 0,16,17
 244.62890625 381.34765625 244.62890625 381.34765625 225.830078125 364.990234375 c 0,18,19
 207.03125 348.6328125 207.03125 348.6328125 194.091796875 322.021484375 c 0,20,21
 181.15234375 295.41015625 181.15234375 295.41015625 174.31640625 261.962890625 c 0,22,23
 167.48046875 228.515625 167.48046875 228.515625 167.48046875 194.3359375 c 0,24,25
 167.48046875 130.859375 167.48046875 130.859375 184.5703125 96.19140625 c 0,26,27
 201.66015625 61.5234375 201.66015625 61.5234375 229.00390625 61.5234375 c 0,28,29
 258.30078125 61.5234375 258.30078125 61.5234375 295.654296875 82.763671875 c 0,30,31
 333.0078125 104.00390625 333.0078125 104.00390625 385.7421875 146.97265625 c 0,32,33
 387.6953125 144.53125 387.6953125 144.53125 391.6015625 138.671875 c 0,34,35
 395.5078125 132.8125 395.5078125 132.8125 399.90234375 126.46484375 c 0,36,37
 404.296875 120.1171875 404.296875 120.1171875 407.958984375 114.74609375 c 0,38,39
 411.62109375 109.375 411.62109375 109.375 412.59765625 107.421875 c 0,40,41
 374.51171875 72.75390625 374.51171875 72.75390625 342.28515625 48.33984375 c 0,42,43
 310.05859375 23.92578125 310.05859375 23.92578125 281.982421875 8.7890625 c 0,44,45
 253.90625 -6.34765625 253.90625 -6.34765625 229.248046875 -13.18359375 c 0,46,47
 204.58984375 -20.01953125 204.58984375 -20.01953125 181.15234375 -20.01953125 c 0,48,49
 159.1796875 -20.01953125 159.1796875 -20.01953125 134.033203125 -11.71875 c 0,50,51
 108.88671875 -3.41796875 108.88671875 -3.41796875 87.40234375 17.08984375 c 0,52,53
 65.91796875 37.59765625 65.91796875 37.59765625 51.7578125 71.77734375 c 0,54,55
 37.59765625 105.95703125 37.59765625 105.95703125 37.59765625 157.2265625 c 0,56,57
 37.59765625 189.94140625 37.59765625 189.94140625 44.43359375 223.388671875 c 0,58,59
 51.26953125 256.8359375 51.26953125 256.8359375 66.650390625 288.330078125 c 0,60,61
 82.03125 319.82421875 82.03125 319.82421875 106.689453125 348.6328125 c 0,62,63
 131.34765625 377.44140625 131.34765625 377.44140625 167.48046875 401.3671875 c 0,64,65
 181.15234375 410.15625 181.15234375 410.15625 199.70703125 420.166015625 c 0,66,67
 218.26171875 430.17578125 218.26171875 430.17578125 239.501953125 438.232421875 c 0,68,69
 260.7421875 446.2890625 260.7421875 446.2890625 283.69140625 451.66015625 c 0,70,71
 306.640625 457.03125 306.640625 457.03125 329.1015625 457.03125 c 0,72,73
 350.5859375 457.03125 350.5859375 457.03125 367.67578125 450.439453125 c 0,74,75
 384.765625 443.84765625 384.765625 443.84765625 399.658203125 434.814453125 c 0,76,77
 414.55078125 425.78125 414.55078125 425.78125 428.466796875 416.748046875 c 0,78,79
 442.3828125 407.71484375 442.3828125 407.71484375 457.51953125 402.83203125 c 0,0,1
EndSplineSet
EndChar

